/* XPM */
static char * back_xpm[] = {
"50 50 3 1",
" 	c #1F922D",
".	c #24A633",
"+	c #22AD33",
"                                                  ",
"                                                  ",
"                                                  ",
"   ......   .........................    ......   ",
"   ......   .........................    ......   ",
"   ......   .........................    ......   ",
"   ......   ....++++++++++++++++++...    ......   ",
"   ......   ....++++++++++++++++++...    ......   ",
"   ......   ....++++++++++++++++++...    ......   ",
"   ......   ....+++++++++++++++......    ......   ",
"   ......   ....+++++++++++++++......    ......   ",
"   ......   ....+++++++++++++++......    ......   ",
"   ......   ....++++++++++++.........    ......   ",
"   ......   ....++++++++++++.........    ......   ",
"   ......   ....++++++++++++.........    ......   ",
"   ......   ....++++++++++++.........    ......   ",
"   ......   ....+++++++++............    ......   ",
"   ......   ....+++++++++............    ......   ",
"   ......   ....+++++++++............    ......   ",
"   ......   .........................    ......   ",
"   ......   .........................    ......   ",
"   ......   .........................    ......   ",
"                                                  ",
"                                                  ",
"                                                  ",
"   ................   ......   ................   ",
"   ................   ......   ................   ",
"   ................   ......   ................   ",
"   ...++++++.......   ......   ................   ",
"   ...++++++.......   ......   ................   ",
"   ...++++++.......   ......   ................   ",
"   ...+++..........   ......   ................   ",
"   ...+++..........   ......   ................   ",
"   ...+++..........   ......   ................   ",
"   ................   ......   ................   ",
"   ................   ......   ................   ",
"   ................   ......   ................   ",
"   ................   ......   ..........+++...   ",
"   ................   ......   ..........+++...   ",
"   ................   ......   ..........+++...   ",
"   ................   ......   ..........+++...   ",
"   ................   ......   ......+++++++...   ",
"   ................   ......   ......+++++++...   ",
"   ................   ......   ......+++++++...   ",
"   ................   ......   ................   ",
"   ................   ......   ................   ",
"   ................   ......   ................   ",
"                                                  ",
"                                                  ",
"                                                  "};
