/* XPM */
static char * brick_xpm[] = {
"50 50 60 1",
" 	c #A6B9FF",
".	c #02020A",
"+	c #010101",
"@	c #0A0002",
"#	c #000902",
"$	c #0A020B",
"%	c #020B0C",
"&	c #000A14",
"*	c #010313",
"=	c #130104",
"-	c #14000B",
";	c #021208",
">	c #F9C9BD",
",	c #FEC1AC",
"'	c #F8ADA1",
")	c #FEBAAA",
"!	c #FEBAA4",
"~	c #FEBEB9",
"{	c #FDC1B1",
"]	c #FFAEB4",
"^	c #FEB5B1",
"/	c #FEB5AB",
"(	c #F3B292",
"_	c #FFB49D",
":	c #F5BBA4",
"<	c #F4BBAC",
"[	c #F7BB9F",
"}	c #FEBBB2",
"|	c #FEC2A5",
"1	c #090806",
"2	c #FDB5A4",
"3	c #FFC09F",
"4	c #FFBEC2",
"5	c #FCB14B",
"6	c #FEAE4B",
"7	c #FDB153",
"8	c #FDB245",
"9	c #F7B897",
"0	c #FEBB9D",
"a	c #F5B3A9",
"b	c #FEAC43",
"c	c #FFC8AF",
"d	c #FEB15A",
"e	c #FFC6B9",
"f	c #FEAC53",
"g	c #FCAB3C",
"h	c #F8A755",
"i	c #F6B1A4",
"j	c #FDB596",
"k	c #F5C6B4",
"l	c #F7BABF",
"m	c #FDB563",
"n	c #F6A553",
"o	c #FFB6BC",
"p	c #F9A64A",
"q	c #F8B945",
"r	c #FFAE59",
"s	c #F9B139",
"t	c #F4B541",
"u	c #1A0000",
"  ..+@.+#+++#$##++++++++++++++++#.+#+#+++#%++&#+  ",
"  *.+@+@+$=@#.+@++++++++++++++++@.-+@.$+@@+@@+@@  ",
"+*@@@+&++.+#+$+@+++++++++++++++++;@#+*.+*+$#@++%++",
"%.@>,')!~@+@{]^/!!!!!!!!!!!!!!)!,(_:~@@#@</[:}<@++",
"#@+:|):))+#+!/!!}}}}}}}}}})}}}}}],^)!+1#+)2),/)+++",
"@@+/)}:2/@@#/<,/22!2!22!2!2!2!22/34^!+=++)![!!)+++",
"%+*{2:{,}+$.,<))555565565565555578920#.%$/a~})/.++",
"+@+_,2)/)#%+!)_)6666666666666666b6^42#@+#!!//!!#@+",
"+++))))))+++))))6665666666666666652}!++++/))!/)+++",
"+++))))!)+++)!/)666666666666666666!))++++)!))))+++",
"++.2)))))+++))))6666666666666666662}!++++)))))/+++",
"+++))))))+++))/!666666666666666665!}!++++))))))+++",
"++.!)))!)+++)!))666666666666666666!}!++++/)))))+++",
"+++)))))/.++))))6666665666656666652)!++++))!)!)+++",
"$++2)))!)+++/!))5666666666666666662})++++/)))))+++",
"++.)))/))+++))/)666666666666666666!}!++++))))))+++",
"$++)a,}!)+$+),!)686665656665668665,2!@+.+))/))!+++",
"@+@)c(}),+.+!2_}6666666666566666d7'~!+@@+/a}//a.++",
"#%+!)!})!#+#2e))66666f6666666666g80):##+#:c!!c:+++",
"+++/^}])/@$+}a)^6666666666666666fh!))$++@)i|):)@++",
"$+$)::{|/+++))))))))!)))!)!))))!|,~//@+@.^/)<//.++",
"+#+,!!!j}###2'0|)))})))})})))}))i})!)+###!)/!):#++",
"@#+a})^~}#@@~^}a!!!!!!!!!!!!!!!!)/!,a@+@@:,//k!@++",
"@+%=@+++@.$.@##@+++++++++++.+++++.##@%.@*@#@@+@*++",
"+@++#+.#++++++++++#++@#++#$++@+#++.++++.+@+@+#@@++",
"+..$+-+@++++++++.+@$@$++@+.#+=$+++.+++#+++#.+#+%++",
"#.*+#@%#++++++++@++*.##+@+$#++.@+@+.+.+.++++@+@#++",
"+@@~!2()!!)!!!!!}}k@@@k/}}]{@++~))})}/)!!),//{/@++",
"#1+!,/,]}})}}}}}!!:##@))!!/!###)))!!)))!)/<)~_|+++",
"+-+!^l|^2!2!22!2))/++@/)/,))+@@/}}9!!2}),2|!^)<#++",
"%$#3!98565555555<)}+++}a/)<{+$+}/jm7f875b78n!~/.++",
"+++2o/5666666666))2++#)!)!)2+%#)}9d6bbf6fdgf|2)+++",
"+++!}!6666666666)))+++))))))+++))/55b66666f6))!+++",
"+++!}25666666666!)2+++)!)))/+++))/5665666666!)!+++",
"+++)}26666666666))/+#+)))/!)+++)))57b6666666))!+++",
"+++!):5666666666!))+++/)))))+++))/5666f65656))!.++",
"+++!}26666656666))!+++))!)!)++./)25f68666666))!+++",
"+++)}!6666666666))/+++)!))))+++)))56656655f6))!+++",
"+++!}!6666666666)!/+#+}))/))+++))/55b5666666)}!+++",
"+++!}25666666666))!+++))!)))+++)))56p5668666))!+++",
"+++!2,5f86656566})a+++))!!,).$+2!48ff68b565qa9{+++",
"@+@!~'7r66666666!!{@+@)2)_2)+.+,0/s68b56prb8o)~@++",
"+##:!08g66666666)!i%#+{!})e2#+#!}^5f665f75g8/2)+++",
"+.$))!hf66666666//}..+~/^}a/$+@/_27f5b66tb88!,/+++",
"++=//~|,))!))))))))+$@{!)!))#++/}e9!))!!/]}_4)<+++",
"##+}!)/i))))))))2!|##+!!|022###}:)!/}}))0/),)9{@++",
"@+@a,)/}!!!!!!!!o})#+=/}a~^}@@+})))/))2!,})<a,)=++",
"@.#@##.+++.+++++#+u*..@#@+#@.$.@++++#++$++++#@=&++",
"  +++++@++++++++++++++++++++++++++++++++++++++++  ",
"  ++++++++++++++++++++++++++++++++++++++++++++++  "};
