/* XPM */
static char * clouds_xpm[] = {
"200 50 4 1",
" 	c #A6B9FF",
".	c #FFFFFF",
"+	c #75FFFF",
"@	c #A1F6FF",
"                                                                                                                                                                                                        ",
"                                                                                                                                                                                                        ",
"                                                                                                                                                                                                        ",
"                                                                                                                                                                                                        ",
"                                                                                                                                                                                                        ",
"                                                      .........................                                                                                                                         ",
"                                                      .........................                                                                                                                         ",
"                                             ...........................................                                                                                                                ",
"                                             ...........................................                                                                                                                ",
"                                             ...........................................                                                                                                                ",
"                                         ...................................................                                                                                                            ",
"                                         ...................................................                                                                                                            ",
"                                     ...........................................................                                                                                                        ",
"                                     ...........................................................                                                                                                        ",
"                                   ...............................................................                                                                                                      ",
"                                   ...............................................................                                                                                                      ",
"                                   ...............................................................                                                                                                      ",
"                                   ...............................................................                                                                                                      ",
"                                 .................................................................++                                                                                                    ",
"                                 .................................................................++                                                                                                    ",
"                                 .................................................................++                                                                                                    ",
"                                 .................................................................++                                                                                                    ",
"                                 ...............................................................++++                                                                                                    ",
"                                 ...............................................................++++                                      .............                                                 ",
"                                 ...............................................................++++                               ..........................                                           ",
"                                 ...............................................................++++                               ..........................                                           ",
"                                   ...........................................................++++                              ................................                                        ",
"                                   ...........................................................++++                            ....................................                                      ",
"                                   ++.....................................................++++++++                            ....................................                                      ",
"                                   ++.....................................................++++++++                            ....................................                                      ",
"                                   ++.....................................................++++++++                            ....................................                                      ",
"                                     ++++++........................................+++++++++++++                             .......................................                                    ",
"                                     ++++++........................................+++++++++++++                             .......................................                                    ",
"                                         +++++++++++++.....................+++++++++++++++++                                 .......................................                                    ",
"                                         +++++++++++++.....................+++++++++++++++++                                 .......................................                                    ",
"                                             +++++++++++++++++++++++++++++++++++++++++++                                     .......................................                                    ",
"                                             +++++++++++++++++++++++++++++++++++++++++++                                     @....................................@@                                    ",
"                                                      +++++++++++++++++++++++++                                               @@................................@@                                      ",
"                                                      +++++++++++++++++++++++++                                               @@................................@@                                      ",
"                                                                                                                              @@@@@@@.......................@@@@@@                                      ",
"                                                                                                                                @@@@@@@@@@@............@@@@@@@@@                                        ",
"                                                                                                                                @@@@@@@@@@@............@@@@@@@@@                                        ",
"                                                                                                                                   @@@@@@@@@@@@@@@@@@@@@@@@@@                                           ",
"                                                                                                                                   @@@@@@@@@@@@@@@@@@@@@@@@@@                                           ",
"                                                                                                                                          @@@@@@@@@@@@@                                                 ",
"                                                                                                                                                                                                        ",
"                                                                                                                                                                                                        ",
"                                                                                                                                                                                                        ",
"                                                                                                                                                                                                        ",
"                                                                                                                                                                                                        "};
