/* XPM */
static char * coin2_xpm[] = {
"50 50 4 1",
" 	c #FF000000",
".	c #FFBAAA",
"+	c #000000",
"@	c #FFAE4C",
"                                                  ",
"                                                  ",
"                                                  ",
"                                                  ",
"                                                  ",
"                                                  ",
"                                                  ",
"                                                  ",
"                                                  ",
"                                                  ",
"                                                  ",
"                     ....++++                     ",
"                     ....++++                     ",
"                   ..@@@@@@@@++                   ",
"                   ..@@@@@@@@++                   ",
"                   ..@@@@@@@@++                   ",
"                   ..@@@@@@@@++                   ",
"                 ..@@@@....@@@@++                 ",
"                 ..@@@@....@@@@++                 ",
"                 ..@@..@@@@++@@++                 ",
"                 ..@@..@@@@++@@++                 ",
"                 ..@@..@@@@++@@++                 ",
"                 ..@@..@@@@++@@++                 ",
"                 ..@@..@@@@++@@++                 ",
"                 ..@@..@@@@++@@++                 ",
"                 ..@@..@@@@++@@++                 ",
"                 ..@@..@@@@++@@++                 ",
"                 ..@@..@@@@++@@++                 ",
"                 ..@@..@@@@++@@++                 ",
"                 ..@@..@@@@++@@++                 ",
"                 ..@@..@@@@++@@++                 ",
"                 ..@@@@++++@@@@++                 ",
"                 ..@@@@++++@@@@++                 ",
"                   ..@@@@@@@@++                   ",
"                   ..@@@@@@@@++                   ",
"                   ..@@@@@@@@++                   ",
"                   ..@@@@@@@@++                   ",
"                     ..++++++                     ",
"                     ..++++++                     ",
"                                                  ",
"                                                  ",
"                                                  ",
"                                                  ",
"                                                  ",
"                                                  ",
"                                                  ",
"                                                  ",
"                                                  ",
"                                                  ",
"                                                  "};
