/* XPM */
static char * coin3_xpm[] = {
"50 50 4 1",
" 	c #FF000000",
".	c #000000",
"+	c #FFBAAA",
"@	c #FFAE4C",
"                                                  ",
"                                                  ",
"                                                  ",
"                                                  ",
"                                                  ",
"                                                  ",
"                                                  ",
"                                                  ",
"                                                  ",
"                       ....                       ",
"                       ....                       ",
"                     ..++++..                     ",
"                     ..++++..                     ",
"                     ..++@@..                     ",
"                     ..++@@..                     ",
"                   @@..++@@..@@                   ",
"                   @@..++@@..@@                   ",
"                   @@..++@@..@@                   ",
"                   @@..++@@..@@                   ",
"                   @@..++@@..@@                   ",
"                   @@..++@@..@@                   ",
"                   @@..++@@..@@                   ",
"                   @@..++@@..@@                   ",
"                   @@..++@@..@@                   ",
"                   @@..++@@..@@                   ",
"                   @@..++@@..@@                   ",
"                   @@..++@@..@@                   ",
"                   @@..++@@..@@                   ",
"                   @@..++@@..@@                   ",
"                   @@..++@@..@@                   ",
"                   @@..++@@..@@                   ",
"                   @@..++@@..@@                   ",
"                   @@..++@@..@@                   ",
"                   @@..++@@..@@                   ",
"                   @@..++@@..@@                   ",
"                     ..++@@..                     ",
"                     ..++@@..                     ",
"                     ..++@@..                     ",
"                     ..++@@..                     ",
"                       ....                       ",
"                       ....                       ",
"                                                  ",
"                                                  ",
"                                                  ",
"                                                  ",
"                                                  ",
"                                                  ",
"                                                  ",
"                                                  ",
"                                                  "};
