/* XPM */
static char * D:\Downloads\Downloads\mario21_xpm[] = {
"50 50 4 1",
" 	c #FF000000",
".	c #000000",
"*	c #FF0000",
"o	c #FFFFFF",
"                                                  ",
"                                                  ",
"                                                  ",
"                                                  ",
"                                                  ",
"                                                  ",
"                                                  ",
"                                                  ",
"                                                  ",
"                                                  ",
"                                                  ",
"                                                  ",
"                                                  ",
"                          *                       ",
"                         *.*                      ",
"                         o.o                      ",
"                      ooo..ooo                    ",
"                    oo... ....oo                  ",
"                   o..   *.*  ..o                 ",
"                   o.     *    .o                 ",
"                  o.            .o                ",
"                 o.              .o               ",
"                 o.              .o               ",
"                *o.*            *.o*              ",
"               *....*         *.....*             ",
"                *o.*            *.o*              ",
"                 o.              .o               ",
"                 o.              .o               ",
"                  o.            .o                ",
"                  o.     **    ..o                ",
"                   o..  *..*  ..o                 ",
"                    oo........oo                  ",
"                      ooo..ooo                    ",
"                        o..o                      ",
"                        *..*                      ",
"                         **                       ",
"                                                  ",
"                                                  ",
"                                                  ",
"                                                  ",
"                                                  ",
"                                                  ",
"                                                  ",
"                                                  ",
"                                                  ",
"                                                  ",
"                                                  ",
"                                                  ",
"                                                  ",
"                                                  "};
