/* XPM */
static char * D:\Downloads\Downloads\mario10_xpm[] = {
"50 50 344 2",
"  	c #FF000000",
". 	c #180000",
"+ 	c #160000",
"@ 	c #0B0000",
"# 	c #080000",
"$ 	c #0B150D",
"% 	c #41200E",
"& 	c #991300",
"* 	c #A51600",
"= 	c #9C1400",
"- 	c #971300",
"; 	c #9D1400",
"> 	c #931200",
", 	c #4C2F15",
"' 	c #030C08",
") 	c #3A0000",
"! 	c #010000",
"~ 	c #330000",
"{ 	c #801100",
"] 	c #8C1400",
"^ 	c #8F1600",
"/ 	c #B72200",
"( 	c #D02B00",
"_ 	c #C02300",
": 	c #710200",
"< 	c #460000",
"[ 	c #490500",
"} 	c #7F1502",
"| 	c #951500",
"1 	c #2E0300",
"2 	c #000000",
"3 	c #1E0400",
"4 	c #9D1A00",
"5 	c #C62600",
"6 	c #BA2100",
"7 	c #AF1500",
"8 	c #C43F00",
"9 	c #E97B00",
"0 	c #9F5700",
"a 	c #000608",
"b 	c #3B0000",
"c 	c #780700",
"d 	c #700B00",
"e 	c #550800",
"f 	c #030000",
"g 	c #6E0E00",
"h 	c #791100",
"i 	c #7D1100",
"j 	c #AA1D00",
"k 	c #BA1E00",
"l 	c #B92100",
"m 	c #D74900",
"n 	c #F68A34",
"o 	c #FFD09E",
"p 	c #DEB281",
"q 	c #9B5800",
"r 	c #050505",
"s 	c #510600",
"t 	c #951700",
"u 	c #520700",
"v 	c #000001",
"w 	c #1B2627",
"x 	c #6E2F1A",
"y 	c #B91D00",
"z 	c #C72100",
"A 	c #BE2400",
"B 	c #B92200",
"C 	c #B41B00",
"D 	c #DA5300",
"E 	c #F59A40",
"F 	c #FAE2C1",
"G 	c #FFD1A0",
"H 	c #EC7E00",
"I 	c #6A0A00",
"J 	c #B4B3B4",
"K 	c #1B161C",
"L 	c #2C0300",
"M 	c #0F2227",
"N 	c #ACB2B3",
"O 	c #D4A397",
"P 	c #BD0F00",
"Q 	c #BB0C00",
"R 	c #BD2400",
"S 	c #B72000",
"T 	c #B82100",
"U 	c #BC2800",
"V 	c #D25909",
"W 	c #F59A3E",
"X 	c #EF8A33",
"Y 	c #CC4300",
"Z 	c #AE1600",
"` 	c #4B0400",
" .	c #F2F0F2",
"..	c #9E9C9D",
"+.	c #4A4E4F",
"@.	c #464A4B",
"#.	c #9B9D9E",
"$.	c #EEF2F4",
"%.	c #FCE2DB",
"&.	c #D48574",
"*.	c #BE432B",
"=.	c #B61900",
"-.	c #B71E00",
";.	c #B82200",
">.	c #B21500",
",.	c #BC2900",
"'.	c #DB5400",
").	c #D14900",
"!.	c #B71900",
"~.	c #CA2200",
"{.	c #9F1400",
"].	c #FDFDFE",
"^.	c #EFEFF0",
"/.	c #959494",
"(.	c #8F8E8E",
"_.	c #EDEDEE",
":.	c #FBFCFC",
"<.	c #FDFCFC",
"[.	c #F6E9E5",
"}.	c #D18372",
"|.	c #B40400",
"1.	c #B61A00",
"2.	c #B72100",
"3.	c #C52600",
"4.	c #020000",
"5.	c #E5E7E7",
"6.	c #909596",
"7.	c #624949",
"8.	c #710B00",
"9.	c #634746",
"0.	c #888C8C",
"a.	c #DBDDDD",
"b.	c #FFFFFF",
"c.	c #FDFCFA",
"d.	c #D69384",
"e.	c #B40000",
"f.	c #B51B00",
"g.	c #B61D00",
"h.	c #AD1B00",
"i.	c #850F00",
"j.	c #A6A5AA",
"k.	c #DAE0E3",
"l.	c #4F5F67",
"m.	c #5E0205",
"n.	c #AF1A00",
"o.	c #660406",
"p.	c #384E57",
"q.	c #CFD5D9",
"r.	c #FBF4F4",
"s.	c #ECD0CB",
"t.	c #CC7261",
"u.	c #B50A00",
"v.	c #B71B00",
"w.	c #BF2400",
"x.	c #C62700",
"y.	c #9B9CA1",
"z.	c #F3F9FB",
"A.	c #D8E0E5",
"B.	c #C08F8A",
"C.	c #B80700",
"D.	c #C08A84",
"E.	c #D5DDE1",
"F.	c #F2F9FC",
"G.	c #E6C2BE",
"H.	c #C24D3A",
"I.	c #B82107",
"J.	c #B81F00",
"K.	c #C42600",
"L.	c #9D7B62",
"M.	c #FFDCAB",
"N.	c #FFE8B8",
"O.	c #F9AE78",
"P.	c #E25900",
"Q.	c #F8AA72",
"R.	c #FFE7B8",
"S.	c #FFDDAE",
"T.	c #F09F66",
"U.	c #CE3900",
"V.	c #BB1400",
"W.	c #B31900",
"X.	c #B41900",
"Y.	c #C02500",
"Z.	c #C72700",
"`.	c #7D4000",
" +	c #ED8D00",
".+	c #ED8E00",
"++	c #EC8500",
"@+	c #EC7F00",
"#+	c #EA8A00",
"$+	c #EA8800",
"%+	c #F48D00",
"&+	c #F68900",
"*+	c #D55500",
"=+	c #B81B00",
"-+	c #B92000",
";+	c #B92300",
">+	c #BC2300",
",+	c #BA2200",
"'+	c #733400",
")+	c #6A2800",
"!+	c #653100",
"~+	c #683B00",
"{+	c #663300",
"]+	c #631F00",
"^+	c #601800",
"/+	c #A67F5B",
"(+	c #FBD9A8",
"_+	c #FCAC61",
":+	c #EE6800",
"<+	c #E56700",
"[+	c #CE4C00",
"}+	c #B41700",
"|+	c #A41800",
"1+	c #610600",
"2+	c #0F0600",
"3+	c #291100",
"4+	c #0B0500",
"5+	c #0F0700",
"6+	c #646B70",
"7+	c #C1C9C9",
"8+	c #D1A774",
"9+	c #D87300",
"0+	c #F58800",
"a+	c #E97200",
"b+	c #C53C00",
"c+	c #BA2300",
"d+	c #C92800",
"e+	c #9A1300",
"f+	c #AA5A00",
"g+	c #DB7B00",
"h+	c #CF7300",
"i+	c #CC7000",
"j+	c #D07400",
"k+	c #D17700",
"l+	c #915619",
"m+	c #0A323E",
"n+	c #00171A",
"o+	c #4F2900",
"p+	c #D57700",
"q+	c #FD8F00",
"r+	c #ED7800",
"s+	c #CA4500",
"t+	c #B21200",
"u+	c #CA2900",
"v+	c #9C1200",
"w+	c #8F4F04",
"x+	c #D57000",
"y+	c #FF9500",
"z+	c #FF9C00",
"A+	c #FF9900",
"B+	c #FF9700",
"C+	c #CA6C00",
"D+	c #6B3100",
"E+	c #613100",
"F+	c #7D4500",
"G+	c #DB7900",
"H+	c #FC8F00",
"I+	c #E46C00",
"J+	c #CD4700",
"K+	c #C32D00",
"L+	c #C42200",
"M+	c #BF2200",
"N+	c #910C00",
"O+	c #672B03",
"P+	c #DE7C00",
"Q+	c #EE8A00",
"R+	c #ED8400",
"S+	c #F78800",
"T+	c #F68700",
"U+	c #EE8200",
"V+	c #EC8100",
"W+	c #EF8300",
"X+	c #F78600",
"Y+	c #F98700",
"Z+	c #F98900",
"`+	c #FC8D00",
" @	c #EA7600",
".@	c #BC3600",
"+@	c #B51600",
"@@	c #AA1800",
"#@	c #DA7800",
"$@	c #FF8B00",
"%@	c #FF7D00",
"&@	c #FF7A00",
"*@	c #FF7B00",
"=@	c #FB7900",
"-@	c #F77700",
";@	c #F97A00",
">@	c #FF9000",
",@	c #DB7800",
"'@	c #650D00",
")@	c #320000",
"!@	c #FF8C00",
"~@	c #FA9200",
"{@	c #F89400",
"]@	c #F89000",
"^@	c #F88700",
"/@	c #F88400",
"(@	c #FA8500",
"_@	c #733D01",
":@	c #020201",
"<@	c #B0630B",
"[@	c #FE9A00",
"}@	c #F9E000",
"|@	c #F8EC00",
"1@	c #F8DD00",
"2@	c #F8BD00",
"3@	c #F8B400",
"4@	c #F9B200",
"5@	c #FE8B00",
"6@	c #FDBD83",
"7@	c #FFCF61",
"8@	c #FFF201",
"9@	c #FFF900",
"0@	c #FFEF00",
"a@	c #FFD700",
"b@	c #FFD100",
"c@	c #FFCC00",
"d@	c #FF9400",
"e@	c #EF8F3C",
"f@	c #EAD2C3",
"g@	c #E8DEA8",
"h@	c #E8BC00",
"i@	c #E8B700",
"j@	c #E8B900",
"k@	c #E8BA00",
"l@	c #E9B400",
"m@	c #EB8400",
"n@	c #6A1700",
"o@	c #655B61",
"p@	c #636054",
"q@	c #644100",
"r@	c #643B00",
"s@	c #643F00",
"t@	c #644300",
"u@	c #644700",
"v@	c #601F00",
"w@	c #010403",
"x@	c #010301",
"y@	c #010302",
"z@	c #010202",
"A@	c #000201",
"B@	c #000101",
"C@	c #000202",
"                                                                                                    ",
"                                                                                                    ",
"                                                                                                    ",
"                                                                                                    ",
"                                                                                                    ",
"                                                                                                    ",
"                                                                                                    ",
"                                                                                                    ",
"                                                                                                    ",
"                                                                                                    ",
"                                                                                                    ",
"                                                                                                    ",
"                                                                                                    ",
"                                                                                                    ",
"                                                                                                    ",
"                                                                                                    ",
"                                                                                                    ",
"                                                                                                    ",
"                                                                                                    ",
"                                                                                                    ",
"                                                                                                    ",
"                                                                                                    ",
"                                                . + @ #                                             ",
"                                          $ % & * = - ; > , '                                       ",
"                                        ) ! ~ { ] ^ / ( _ : < [                                     ",
"                                      } | 1 2 2 2 3 4 5 6 7 8 9 0 a                                 ",
"                                  b c d e f . g h i j k l m n o p q                                 ",
"                              r 2 s t u v w x y z A B C l D E F G H I                               ",
"                              J K 2 L 2 M N O P Q R B S T U V W X Y Z `                             ",
"                               ...+.2 @.#.$.%.&.*.=.-.;.S >.,.'.).!.~.{.                            ",
"                              ].^./.2 (._.:.<.[.}.|.1.;.T 2.T l T l 3.& 4.                          ",
"                              5.6.7.8.9.0.a.b.c.d.e.=.;.;.;.S f.g.B R h.i.                          ",
"                            j.k.l.m.n.o.p.q.r.s.t.u.v.;.;.;.;.;.;.;.2.w.x.                          ",
"                            y.z.A.B.C.D.E.F.G.H.I.J.T ;.;.;.;.;.;.;.2.w.K.                          ",
"                            L.M.N.O.P.Q.R.S.T.U.V.W.X.g.T ;.;.;.;.;.2.Y.Z.                          ",
"                            `. +.+++@+++#+$+%+&+*+=+-+;+S T ;.;.;.;.;.>+,+                          ",
"                              '+)+!+~+{+]+^+/+(+_+:+<+[+}+X.;.;.T B w.|+1+                          ",
"                              2 2+3+2+4+5+4+6+7+8+9+0+a+b+T g.S ;.c+d+e+2                           ",
"                              # f+g+h+i+j+k+l+m+n+o+p+q+r+s+t+g.;.c+u+v+                            ",
"                                w+x+y+z+A+B+C+D+E+F+G+y+H+I+J+K+L+M+N+                              ",
"                                  O+P+Q+R+S+T+U+V+W+X+Y+Z+`+ @.@+@@@                                ",
"                                          #@$@%@&@*@=@-@;@>@,@'@)@                                  ",
"                                            !@~@{@]@^@/@(@$@_@:@                                    ",
"                                          <@[@}@|@1@2@3@4@5@                                        ",
"                                          6@7@8@9@0@a@b@c@d@                                        ",
"                                        e@f@g@h@i@j@i@k@l@m@                                        ",
"                                        n@o@p@q@r@s@t@u@t@v@                                        ",
"                                        w@x@y@z@A@B@B@C@C@                                          ",
"                                                                                                    ",
"                                                                                                    "};
