/* XPM */
static char * CHK[] = {
"50 50 432 2",
"  	c #FF000000",
". 	c #AD1B00",
"+ 	c #AC1A00",
"@ 	c #A51800",
"# 	c #A71900",
"$ 	c #AE1B00",
"% 	c #700700",
"& 	c #B21C00",
"* 	c #BF2400",
"= 	c #941700",
"- 	c #7D1100",
"; 	c #821200",
"> 	c #851300",
", 	c #7B1000",
"' 	c #440400",
") 	c #000001",
"! 	c #B51E00",
"~ 	c #BB2200",
"{ 	c #971700",
"] 	c #440600",
"^ 	c #260200",
"/ 	c #2C0300",
"( 	c #2A0300",
"_ 	c #110100",
": 	c #000000",
"< 	c #924B00",
"[ 	c #4E0500",
"} 	c #8D1400",
"| 	c #BD2400",
"1 	c #8F1500",
"2 	c #490600",
"3 	c #0A0000",
"4 	c #540900",
"5 	c #7B2B00",
"6 	c #965A11",
"7 	c #D3A166",
"8 	c #FAC694",
"9 	c #BC854E",
"0 	c #430400",
"a 	c #941600",
"b 	c #991800",
"c 	c #500600",
"d 	c #510400",
"e 	c #A51B00",
"f 	c #D74B00",
"g 	c #EC8224",
"h 	c #F8C88F",
"i 	c #FDEBD0",
"j 	c #F5B872",
"k 	c #CE6600",
"l 	c #858181",
"m 	c #364346",
"n 	c #4B0600",
"o 	c #4F0700",
"p 	c #0B0000",
"q 	c #28383B",
"r 	c #7C7C7C",
"s 	c #967C76",
"t 	c #760800",
"u 	c #860000",
"v 	c #BB1E00",
"w 	c #D83E00",
"x 	c #E66711",
"y 	c #F5A663",
"z 	c #FCC792",
"A 	c #F49A4F",
"B 	c #D45100",
"C 	c #8B0A00",
"D 	c #BF4516",
"E 	c #ECC4B9",
"F 	c #D8D8D7",
"G 	c #818A8D",
"H 	c #000304",
"I 	c #737C7E",
"J 	c #CFD2D2",
"K 	c #EACDC6",
"L 	c #C95C3D",
"M 	c #B40200",
"N 	c #B91F01",
"O 	c #B81B00",
"P 	c #BF3000",
"Q 	c #DD6403",
"R 	c #F08005",
"S 	c #D65803",
"T 	c #BC1D00",
"U 	c #BF1E00",
"V 	c #921000",
"W 	c #E3B0A6",
"X 	c #FFEFE8",
"Y 	c #FBFCFC",
"Z 	c #DADDDE",
"` 	c #989A9A",
" .	c #373C3D",
"..	c #101D1F",
"+.	c #8C8D8E",
"@.	c #D4D6D6",
"#.	c #F8FAFA",
"$.	c #FFF3EF",
"%.	c #EFBDB2",
"&.	c #D3796A",
"*.	c #BA2100",
"=.	c #B00A00",
"-.	c #B41700",
";.	c #C53600",
">.	c #D14400",
",.	c #C02E00",
"'.	c #B81700",
").	c #CC2600",
"!.	c #9C1400",
"~.	c #9A9494",
"{.	c #F0E9E7",
"].	c #FFFDFC",
"^.	c #F9FAFA",
"/.	c #E8E9E9",
"(.	c #B2B0B0",
"_.	c #524949",
":.	c #3B2C2B",
"<.	c #A5A3A3",
"[.	c #E3E4E4",
"}.	c #F7F8F8",
"|.	c #FEFDFD",
"1.	c #FBF1EE",
"2.	c #E2B6AC",
"3.	c #BC2400",
"4.	c #B20300",
"5.	c #B71F00",
"6.	c #B71B00",
"7.	c #C42600",
"8.	c #9C1500",
"9.	c #CAAAA3",
"0.	c #F8F6F5",
"a.	c #FFFFFF",
"b.	c #E3E5E5",
"c.	c #A0A2A2",
"d.	c #676564",
"e.	c #6F281F",
"f.	c #71150D",
"g.	c #665D5C",
"h.	c #979A9A",
"i.	c #DADCDC",
"j.	c #FEFBFA",
"k.	c #E5C2B9",
"l.	c #BD2500",
"m.	c #B20000",
"n.	c #B72000",
"o.	c #B61E00",
"p.	c #B51A00",
"q.	c #B92200",
"r.	c #BC2300",
"s.	c #AF1D00",
"t.	c #941300",
"u.	c #B40D00",
"v.	c #DF8E7E",
"w.	c #F0D2CC",
"x.	c #FBF4F4",
"y.	c #DCE0E4",
"z.	c #78858E",
"A.	c #341B32",
"B.	c #951205",
"C.	c #9C1102",
"D.	c #4A1427",
"E.	c #687781",
"F.	c #D0D6DB",
"G.	c #FBF6F7",
"H.	c #EFD6D3",
"I.	c #D7998E",
"J.	c #BB2300",
"K.	c #B40B00",
"L.	c #B82000",
"M.	c #B82200",
"N.	c #B82100",
"O.	c #B72100",
"P.	c #BE2400",
"Q.	c #C72800",
"R.	c #8E0E00",
"S.	c #B81E00",
"T.	c #CD432C",
"U.	c #D07565",
"V.	c #EACDC7",
"W.	c #EDF0F1",
"X.	c #CDDADE",
"Y.	c #B39F9E",
"Z.	c #B64A40",
"`.	c #B73621",
" +	c #B29592",
".+	c #C8D4D7",
"++	c #EAEFF2",
"@+	c #EDD6D3",
"#+	c #CE7C71",
"$+	c #BD4134",
"%+	c #B71C00",
"&+	c #CC2A00",
"*+	c #900F00",
"=+	c #B51C00",
"-+	c #BD0000",
";+	c #B80000",
">+	c #DA967E",
",+	c #F9DDC4",
"'+	c #FFF4DA",
")+	c #F8CFAF",
"!+	c #E0764C",
"~+	c #DD642F",
"{+	c #F5C4A4",
"]+	c #FFE9CE",
"^+	c #EDB090",
"/+	c #CB3600",
"(+	c #B70000",
"_+	c #B51800",
":+	c #B41C00",
"<+	c #CA2900",
"[+	c #8F0F00",
"}+	c #BD1000",
"|+	c #B90D01",
"1+	c #DC6A00",
"2+	c #F99F2B",
"3+	c #FBB654",
"4+	c #F9A94D",
"5+	c #F58517",
"6+	c #F5800A",
"7+	c #F9A448",
"8+	c #F7B65C",
"9+	c #F7AC4C",
"0+	c #F8951B",
"a+	c #EC7200",
"b+	c #D34B00",
"c+	c #B91B00",
"d+	c #B11100",
"e+	c #B71E00",
"f+	c #C92800",
"g+	c #AB1900",
"h+	c #CD4F01",
"i+	c #EF944C",
"j+	c #F5A356",
"k+	c #D57A1E",
"l+	c #BB5B00",
"m+	c #BD6700",
"n+	c #BF6A00",
"o+	c #BC5E00",
"p+	c #B95400",
"q+	c #BA5800",
"r+	c #D48231",
"s+	c #F8AF62",
"t+	c #F39F57",
"u+	c #DA5801",
"v+	c #CF4400",
"w+	c #CA4600",
"x+	c #BF3300",
"y+	c #B41900",
"z+	c #B41A00",
"A+	c #B61D00",
"B+	c #B91E00",
"C+	c #AE1900",
"D+	c #981400",
"E+	c #922C00",
"F+	c #E78300",
"G+	c #FDD29A",
"H+	c #DFCEB3",
"I+	c #81776E",
"J+	c #000100",
"K+	c #7C756A",
"L+	c #DDD1B7",
"M+	c #F8D3A0",
"N+	c #F58500",
"O+	c #F27300",
"P+	c #EC7600",
"Q+	c #D04F00",
"R+	c #B51600",
"S+	c #B31500",
"T+	c #B91D00",
"U+	c #C12000",
"V+	c #991000",
"W+	c #1B0000",
"X+	c #F19500",
"Y+	c #DBBB94",
"Z+	c #99A7AC",
"`+	c #62626A",
" @	c #5B2F00",
".@	c #623300",
"+@	c #5F3200",
"@@	c #623400",
"#@	c #5D3100",
"$@	c #686264",
"%@	c #99A4AB",
"&@	c #B5A895",
"*@	c #B67000",
"=@	c #D47500",
"-@	c #F78B00",
";@	c #E87200",
">@	c #CE4B00",
",@	c #CC3F00",
"'@	c #D13C00",
")@	c #D84000",
"!@	c #B73700",
"~@	c #741600",
"{@	c #DC7C01",
"]@	c #8B5008",
"^@	c #00000B",
"/@	c #9C5705",
"(@	c #D67C00",
"_@	c #DD7E00",
":@	c #D97800",
"<@	c #DC7D00",
"[@	c #D77C00",
"}@	c #A55C05",
"|@	c #07060B",
"1@	c #000009",
"2@	c #8B4D00",
"3@	c #EE8500",
"4@	c #FD8C00",
"5@	c #F27C00",
"6@	c #F17400",
"7@	c #F26F00",
"8@	c #F36F00",
"9@	c #EE6B00",
"0@	c #E16200",
"a@	c #7F3100",
"b@	c #8B4300",
"c@	c #6E3000",
"d@	c #833E00",
"e@	c #DA7900",
"f@	c #FF9900",
"g@	c #FF9200",
"h@	c #FF9700",
"i@	c #FE9400",
"j@	c #D67300",
"k@	c #7C3900",
"l@	c #632E00",
"m@	c #703B00",
"n@	c #A95500",
"o@	c #F07800",
"p@	c #FF8200",
"q@	c #FE8600",
"r@	c #FDA200",
"s@	c #FDB300",
"t@	c #FCA500",
"u@	c #FFAD28",
"v@	c #E18133",
"w@	c #81390B",
"x@	c #001301",
"y@	c #904F00",
"z@	c #DF7C00",
"A@	c #F48900",
"B@	c #F88A00",
"C@	c #FC8A00",
"D@	c #FC8B00",
"E@	c #F58700",
"F@	c #E98100",
"G@	c #E47F00",
"H@	c #E67F01",
"I@	c #EF7D0A",
"J@	c #F8791B",
"K@	c #F9720B",
"L@	c #F98500",
"M@	c #F9CA00",
"N@	c #F9F100",
"O@	c #FAD400",
"P@	c #FABE00",
"Q@	c #FBC200",
"R@	c #FBAB00",
"S@	c #FD8E08",
"T@	c #FBC48D",
"U@	c #CCAE5B",
"V@	c #87880B",
"W@	c #7E5F00",
"X@	c #955100",
"Y@	c #8D4A00",
"Z@	c #9A4F00",
"`@	c #DC7900",
" #	c #FE9200",
".#	c #FF9300",
"+#	c #FE8E00",
"@#	c #FE8F00",
"##	c #FF9100",
"$#	c #FF8A0B",
"%#	c #FF9D58",
"&#	c #F9B58B",
"*#	c #F7B75B",
"=#	c #F8BE00",
"-#	c #F7E900",
";#	c #F9FF00",
">#	c #FFE300",
",#	c #FFD000",
"'#	c #FFD800",
")#	c #E2A400",
"!#	c #F5F48F",
"~#	c #D6D61C",
"{#	c #777900",
"]#	c #010700",
"^#	c #040900",
"/#	c #3A1900",
"(#	c #B66500",
"_#	c #EE8800",
":#	c #F08900",
"<#	c #EC8300",
"[#	c #EB8200",
"}#	c #EB8300",
"|#	c #EC8200",
"1#	c #F27800",
"2#	c #FA7B1B",
"3#	c #FBB78A",
"4#	c #FAF2D8",
"5#	c #FAFA8F",
"6#	c #FAF700",
"7#	c #FAFC00",
"8#	c #F0CC00",
"9#	c #EEBA00",
"0#	c #F1C300",
"a#	c #897300",
"b#	c #9E8300",
"c#	c #A58A00",
"d#	c #927300",
"e#	c #AE4700",
"f#	c #F47C09",
"g#	c #FFC952",
"h#	c #FFFF82",
"i#	c #FFFF55",
"j#	c #FFFF00",
"k#	c #FEFD00",
"l#	c #9A7603",
"m#	c #E0B600",
"n#	c #F0C300",
"o#	c #C19800",
"p#	c #CF6900",
"q#	c #E8AD00",
"r#	c #E2DE00",
"s#	c #E1E600",
"t#	c #E3DF00",
"u#	c #725600",
"v#	c #5D2E03",
"w#	c #5F3B00",
"x#	c #5C5600",
"y#	c #5B5C00",
"                                                                                                    ",
"                                                                                                    ",
"                                                                                                    ",
"                                                                                                    ",
"                                                                                                    ",
"                                                                                                    ",
"                                                                                                    ",
"                                                                                                    ",
"                                                                                                    ",
"                                                                                                    ",
"                                                                                                    ",
"                                                                                                    ",
"                                                                                                    ",
"                                                                                                    ",
"                                                                                                    ",
"                                                                                                    ",
"                                                                                                    ",
"                                                                                                    ",
"                                                                                                    ",
"                                                                                                    ",
"                                                                                                    ",
"                                              . + @ # $                                             ",
"                                          % & * = - ; > , ' )                                       ",
"                                        & ! ~ { ] ^ / ( _ : : <                                     ",
"                                  : [ } | * 1 2 : : : 3 4 5 6 7 8 9                                 ",
"                                  : : 0 a b c : : : : d e f g h i j k                               ",
"                                  l m : n o p q r s t u v w x y z A B C                             ",
"                              D E F G H : : : I J K L M N O P Q R S T U V                           ",
"                              W X Y Z `  ...+.@.#.$.%.&.*.=.-.;.>.,.'.).!.                          ",
"                            ~.{.].^./.(._.:.<.[.}.|.1.2.3.4.5.5.6.5.~ 7.8.                          ",
"                            9.0.a.b.c.d.e.f.g.h.i.a.j.k.l.m.n.o.p.o.q.r.s.t.                        ",
"                          u.v.w.x.y.z.A.B.C.D.E.F.G.H.I.J.K.L.M.N.N.M.O.P.Q.R.                      ",
"                          S.T.U.V.W.X.Y.Z.`. +.+++@+#+$+N.%+N.M.M.M.M.O.* &+*+                      ",
"                          =+-+;+>+,+'+)+!+~+{+'+]+^+/+(+_+:+=+5.M.M.M.O.P.<+[+                      ",
"                            }+|+1+2+3+4+5+6+7+8+9+0+a+b+c+d+_+e+N.N.N.O.P.f+R.                      ",
"                            g+h+i+j+k+l+m+n+o+p+q+r+s+t+u+v+w+x+y+z+A+B+C+D+                        ",
"                            E+F+G+H+I+: : J+: : : K+L+M+N+O+P+Q+R+S+T+U+V+W+                        ",
"                              X+Y+Z+`+ @.@+@+@@@#@$@%@&@*@=@-@;@>@,@'@)@!@~@                        ",
"                              {@]@^@/@(@_@:@:@<@[@}@|@1@) 2@3@4@5@6@7@8@9@0@                        ",
"                            a@b@c@d@e@f@f@g@g@h@i@j@k@l@m@n@o@p@q@r@s@t@f@f@u@                      ",
"                          v@w@x@y@z@A@A@B@C@C@D@D@E@F@G@H@I@J@K@L@M@N@O@P@Q@R@S@                    ",
"                          T@U@V@W@X@Y@Z@`@ #.#+#@#.#h@##$#%#&#*#=#-#;#>#,#'#)#                      ",
"                            !#~#{#]#^#/#(#_#:#<#[#}#|#1#2#3#4#5#6#7#N@8#9#0#                        ",
"                                a#b#c#d#              e#f#g#h#i#j#k#                                ",
"                                l#m#n#o#                p#q#r#s#t#                                  ",
"                                    u#                  v#w#x#y#                                    ",
"                                                                                                    ",
"                                                                                                    ",
"                                                                                                    ",
"                                                                                                    "};
