/* XPM */
static char * D:\Downloads\Downloads\mario12_xpm[] = {
"50 50 403 2",
"  	c #FF000000",
". 	c #8F0F00",
"+ 	c #9D1400",
"@ 	c #B21B00",
"# 	c #BE2300",
"$ 	c #AC1C00",
"% 	c #A71900",
"& 	c #9C1400",
"* 	c #800A00",
"= 	c #C72700",
"- 	c #B82100",
"; 	c #B21F00",
"> 	c #941700",
", 	c #781000",
"' 	c #7B1100",
") 	c #931600",
"! 	c #A91B00",
"~ 	c #A81D00",
"{ 	c #901400",
"] 	c #610A00",
"^ 	c #440500",
"/ 	c #000100",
"( 	c #280300",
"_ 	c #550800",
": 	c #730E00",
"< 	c #760E00",
"[ 	c #4A0600",
"} 	c #640800",
"| 	c #380000",
"1 	c #010000",
"2 	c #000000",
"3 	c #0D0100",
"4 	c #090000",
"5 	c #220300",
"6 	c #00181D",
"7 	c #4B5355",
"8 	c #605957",
"9 	c #331715",
"0 	c #460200",
"a 	c #640D00",
"b 	c #652201",
"c 	c #5E390A",
"d 	c #894B0B",
"e 	c #111F20",
"f 	c #696B6C",
"g 	c #7A8182",
"h 	c #B4BABB",
"i 	c #C4B1AC",
"j 	c #925A52",
"k 	c #690000",
"l 	c #8D0B00",
"m 	c #BE3000",
"n 	c #D05800",
"o 	c #C58547",
"p 	c #DEAD73",
"q 	c #E8A770",
"r 	c #615C5C",
"s 	c #B3B3B3",
"t 	c #E0E2E2",
"u 	c #F2F4F4",
"v 	c #F6DFD9",
"w 	c #CF7059",
"x 	c #A80000",
"y 	c #B31800",
"z 	c #D23700",
"A 	c #E86205",
"B 	c #F8AC67",
"C 	c #FBE3C0",
"D 	c #F8CE9F",
"E 	c #080000",
"F 	c #C80000",
"G 	c #68504F",
"H 	c #B2B2B2",
"I 	c #EFF0F1",
"J 	c #FDFEFE",
"K 	c #FFF1ED",
"L 	c #E8AA9E",
"M 	c #C54D3D",
"N 	c #B81800",
"O 	c #BA2000",
"P 	c #D24D04",
"Q 	c #F19955",
"R 	c #FDCC98",
"S 	c #F9BB83",
"T 	c #DF7D22",
"U 	c #191F20",
"V 	c #260200",
"W 	c #C00101",
"X 	c #440D1F",
"Y 	c #7A8184",
"Z 	c #D2D5D5",
"` 	c #FEFCFB",
" .	c #ECCCC5",
"..	c #C86151",
"+.	c #B30100",
"@.	c #B00E00",
"#.	c #BF3300",
"$.	c #E26800",
"%.	c #EF8A38",
"&.	c #E27629",
"*.	c #CB4700",
"=.	c #BBB2B0",
"-.	c #636B6D",
";.	c #040E10",
">.	c #C90000",
",.	c #B8645C",
"'.	c #9B989D",
").	c #9DABB3",
"!.	c #DDE1E5",
"~.	c #FEFAFA",
"{.	c #F9F2F0",
"].	c #E4BFB6",
"^.	c #C04235",
"/.	c #B30000",
"(.	c #B51900",
"_.	c #BB2400",
":.	c #CD3D00",
"<.	c #CF4700",
"[.	c #C02500",
"}.	c #BE1500",
"|.	c #A41100",
"1.	c #E4B0A5",
"2.	c #FBE5DD",
"3.	c #EDEDEC",
"4.	c #9BA2A4",
"5.	c #060C0E",
"6.	c #BE0101",
"7.	c #AB5040",
"8.	c #EFE6D4",
"9.	c #EAEFED",
"0.	c #EEE7E8",
"a.	c #EACDCA",
"b.	c #E1B5AE",
"c.	c #CE8074",
"d.	c #B70000",
"e.	c #B30600",
"f.	c #B72000",
"g.	c #B61D00",
"h.	c #B71A00",
"i.	c #BB1F00",
"j.	c #B81700",
"k.	c #CC2400",
"l.	c #BFB9B8",
"m.	c #F8F0EE",
"n.	c #FFFDFB",
"o.	c #FBFDFD",
"p.	c #D7D9DA",
"q.	c #A30202",
"r.	c #AC0202",
"s.	c #B50101",
"t.	c #EEBAA2",
"u.	c #D07064",
"v.	c #BD3D2A",
"w.	c #BC3A1F",
"x.	c #B80A00",
"y.	c #B61700",
"z.	c #BA2300",
"A.	c #B91F00",
"B.	c #B81D00",
"C.	c #BC786E",
"D.	c #E9DBD7",
"E.	c #FFFFFF",
"F.	c #F8F9F9",
"G.	c #E4E5E5",
"H.	c #D0D0D1",
"I.	c #B80101",
"J.	c #C70000",
"K.	c #AA0202",
"L.	c #AF1100",
"M.	c #D86E5C",
"N.	c #ECC3BA",
"O.	c #FDF5F4",
"P.	c #E8EAED",
"Q.	c #A5A9AC",
"R.	c #6E6E6E",
"S.	c #C50000",
"T.	c #B00202",
"U.	c #970303",
"V.	c #C10101",
"W.	c #B91D00",
"X.	c #C83415",
"Y.	c #D07566",
"Z.	c #EED6D3",
"`.	c #E6EBEF",
" +	c #98A6AE",
".+	c #413642",
"++	c #A60202",
"@+	c #B60101",
"#+	c #B20202",
"$+	c #B10202",
"%+	c #BD1900",
"&+	c #B90000",
"*+	c #BF4335",
"=+	c #DBA998",
"-+	c #F7F1E6",
";+	c #DFE2DD",
">+	c #C20101",
",+	c #A70D01",
"'+	c #AB0A02",
")+	c #B43301",
"!+	c #A9513B",
"~+	c #BB2300",
"{+	c #B41F00",
"]+	c #921200",
"^+	c #AD0202",
"/+	c #BF0101",
"(+	c #C60201",
"_+	c #C40100",
":+	c #C60000",
"<+	c #B82200",
"[+	c #C12500",
"}+	c #BF2300",
"|+	c #B81C00",
"1+	c #BC2200",
"2+	c #B92200",
"3+	c #B72100",
"4+	c #C72800",
"5+	c #BE2200",
"6+	c #770900",
"7+	c #B30504",
"8+	c #740A0C",
"9+	c #C83000",
"0+	c #BA2600",
"a+	c #BC2300",
"b+	c #CA2900",
"c+	c #AE1A00",
"d+	c #D96E1B",
"e+	c #CE7002",
"f+	c #C44000",
"g+	c #B95400",
"h+	c #BA5800",
"i+	c #D48231",
"j+	c #F8AF62",
"k+	c #F39F57",
"l+	c #C91300",
"m+	c #B41700",
"n+	c #B41A00",
"o+	c #B61E00",
"p+	c #B71F00",
"q+	c #BA2200",
"r+	c #9D1300",
"s+	c #CA3D1A",
"t+	c #823E0F",
"u+	c #4F2300",
"v+	c #910000",
"w+	c #7C756A",
"x+	c #DDD1B7",
"y+	c #F8D3A0",
"z+	c #F58500",
"A+	c #E76200",
"B+	c #C50600",
"C+	c #B31500",
"D+	c #B91A00",
"E+	c #B81A00",
"F+	c #A51500",
"G+	c #CD4134",
"H+	c #989A93",
"I+	c #1D353D",
"J+	c #350700",
"K+	c #6D2E00",
"L+	c #6D2F00",
"M+	c #623400",
"N+	c #5D3100",
"O+	c #686264",
"P+	c #99A4AB",
"Q+	c #B5A895",
"R+	c #B67000",
"S+	c #D47500",
"T+	c #F78B00",
"U+	c #CC3200",
"V+	c #CD3200",
"W+	c #BF2700",
"X+	c #7D0A00",
"Y+	c #CA0700",
"Z+	c #D86235",
"`+	c #C3B8A5",
" @	c #6F7F8A",
".@	c #8B5633",
"+@	c #CA7300",
"@@	c #CA0000",
"#@	c #D97800",
"$@	c #DC7D00",
"%@	c #D77C00",
"&@	c #A55C05",
"*@	c #07060B",
"=@	c #000009",
"-@	c #000001",
";@	c #8B4D00",
">@	c #EE8500",
",@	c #FD8C00",
"'@	c #F36600",
")@	c #DF5600",
"!@	c #A33600",
"~@	c #7C480E",
"{@	c #430700",
"]@	c #FF9200",
"^@	c #FF9700",
"/@	c #FE9400",
"(@	c #D67300",
"_@	c #7C3900",
":@	c #632E00",
"<@	c #703B00",
"[@	c #A95500",
"}@	c #F07800",
"|@	c #FF8200",
"1@	c #FE8600",
"2@	c #F39000",
"3@	c #DE7E30",
"4@	c #80390B",
"5@	c #572D01",
"6@	c #AE6000",
"7@	c #E07E00",
"8@	c #F48900",
"9@	c #F88A00",
"0@	c #FC8A00",
"a@	c #FC8B00",
"b@	c #F58700",
"c@	c #E98100",
"d@	c #E47F00",
"e@	c #E67F01",
"f@	c #EF7D0A",
"g@	c #F8791B",
"h@	c #F9720B",
"i@	c #F98500",
"j@	c #F9CA00",
"k@	c #F9F100",
"l@	c #FAD400",
"m@	c #FABE00",
"n@	c #FCC300",
"o@	c #FBAC00",
"p@	c #FE9107",
"q@	c #FBC48D",
"r@	c #CCAE5B",
"s@	c #87880B",
"t@	c #7E5F00",
"u@	c #955100",
"v@	c #8D4A00",
"w@	c #9A4F00",
"x@	c #DC7900",
"y@	c #FE9200",
"z@	c #FF9300",
"A@	c #FE8E00",
"B@	c #FE8F00",
"C@	c #FF9100",
"D@	c #FF8A0B",
"E@	c #FF9D58",
"F@	c #F9B58B",
"G@	c #F7B75B",
"H@	c #F8BE00",
"I@	c #F7E900",
"J@	c #F9FF00",
"K@	c #FFE300",
"L@	c #FFD000",
"M@	c #FFD800",
"N@	c #E2A400",
"O@	c #F5F48F",
"P@	c #D6D61C",
"Q@	c #777900",
"R@	c #010700",
"S@	c #040900",
"T@	c #3A1900",
"U@	c #B66500",
"V@	c #EE8800",
"W@	c #F08900",
"X@	c #EC8300",
"Y@	c #EB8200",
"Z@	c #EB8300",
"`@	c #EC8200",
" #	c #F27800",
".#	c #FA7B1B",
"+#	c #FBB78A",
"@#	c #FAF2D8",
"##	c #FAFA8F",
"$#	c #FAF700",
"%#	c #FAFC00",
"&#	c #F0CC00",
"*#	c #EEBA00",
"=#	c #F1C300",
"-#	c #897300",
";#	c #9E8300",
">#	c #A58A00",
",#	c #927300",
"'#	c #AE4700",
")#	c #F47C09",
"!#	c #FFC952",
"~#	c #FFFF82",
"{#	c #FFFF55",
"]#	c #FFFF00",
"^#	c #FEFD00",
"/#	c #9A7603",
"(#	c #E0B600",
"_#	c #F0C300",
":#	c #C19800",
"<#	c #CF6900",
"[#	c #E8AD00",
"}#	c #E2DE00",
"|#	c #E1E600",
"1#	c #E3DF00",
"2#	c #725600",
"3#	c #5D2E03",
"4#	c #5F3B00",
"5#	c #5C5600",
"6#	c #5B5C00",
"                                                                                                    ",
"                                                                                                    ",
"                                                                                                    ",
"                                                                                                    ",
"                                                                                                    ",
"                                                                                                    ",
"                                                                                                    ",
"                                                                                                    ",
"                                                                                                    ",
"                                                                                                    ",
"                                                                                                    ",
"                                                                                                    ",
"                                                                                                    ",
"                                                                                                    ",
"                                                                                                    ",
"                                                                                                    ",
"                                                        .                                           ",
"                                                  + @ # $ % & *                                     ",
"                                                = - ; > , ' ) !                                     ",
"                                                ~ { ] ^ / ( _ : <                                   ",
"                                              [ } | 1 2 2 2 2 3 4 2 5                               ",
"                                              2 2 6 7 8 9 2 0 a b c d                               ",
"                                              e f g h i j k l m n o p q                             ",
"                                              r s t u v w x y z A B C D                             ",
"                            E   F             G H I J K L M N O P Q R S T                           ",
"                            U V   W           X Y Z J `  ...+.@.#.$.%.&.*.                          ",
"                          =.-.;.  >.        ,.'.).!.~.{.].^./.(._.:.<.[.}.|.                        ",
"                      1.2.3.4.5.  6.        7.8.9.0.a.b.c.d.e.f.g.h.i.j.k.                          ",
"                    l.m.n.o.p.    q.r.      s.    t.u.v.w.x.y.z.A.B.                                ",
"                  C.D.E.F.G.H.      I.        J.            -         K.                            ",
"                L.M.N.O.P.Q.R.    S.            F T.U.U.U.      U.V.F                               ",
"                W.X.Y.Z.`. +.+  ++>.                @+#+U.U.S.$+                                    ",
"                %+&+*+=+-+;+  U.>+                                                                  ",
"                ,+'+)+U.!+    >+                                            ~+{+]+                  ",
"              U.^+/+  (+_+:+T.                                            ~+<+[+}+                  ",
"                                                                  |+1+<+2+3+2+4+5+6+                ",
"                                          7+              8+    9+0+f.- <+3+a+b+c+                  ",
"                              d+e+        f+g+h+i+j+k+            l+m+n+o+p+q+b+r+                  ",
"                            s+t+u+        v+2 2 w+x+y+z+A+          B+C+D+E+F+                      ",
"                          G+H+I+J+K+      L+M+N+O+P+Q+R+S+T+          U+V+W+X+                      ",
"                      Y+Z+`+ @.@+@    @@  #@$@%@&@*@=@-@;@>@,@          '@)@!@                      ",
"                          ~@{@          ]@]@^@/@(@_@:@<@[@}@|@1@2@                                  ",
"                        3@4@5@6@7@8@8@9@0@0@a@a@b@c@d@e@f@g@h@i@j@k@l@m@n@o@p@                      ",
"                        q@r@s@t@u@v@w@x@y@z@A@B@z@^@C@D@E@F@G@H@I@J@K@L@M@N@                        ",
"                          O@P@Q@R@S@T@U@V@W@X@Y@Z@`@ #.#+#@###$#%#k@&#*#=#                          ",
"                              -#;#>#,#              '#)#!#~#{#]#^#                                  ",
"                              /#(#_#:#                <#[#}#|#1#                                    ",
"                                  2#                  3#4#5#6#                                      ",
"                                                                                                    ",
"                                                                                                    "};
