/* XPM */
static char * D:\Downloads\Downloads\mario13_xpm[] = {
"50 50 327 2",
"  	c #FF000000",
". 	c #C30100",
"+ 	c #490100",
"@ 	c #BE2300",
"# 	c #A31500",
"$ 	c #040000",
"% 	c #560000",
"& 	c #8B0F00",
"* 	c #A61B00",
"= 	c #B21D00",
"- 	c #B01E00",
"; 	c #780F13",
"> 	c #929292",
", 	c #7E8182",
"' 	c #3E4A4C",
") 	c #000000",
"! 	c #3C0103",
"~ 	c #670900",
"{ 	c #9B1800",
"] 	c #AF1E00",
"^ 	c #A11600",
"/ 	c #AD7B71",
"( 	c #B79C98",
"_ 	c #6A6168",
": 	c #949393",
"< 	c #CDCECE",
"[ 	c #CED2D3",
"} 	c #93999A",
"| 	c #616868",
"1 	c #021A1A",
"2 	c #1B0100",
"3 	c #550800",
"4 	c #8B1400",
"5 	c #A31800",
"6 	c #B99A8B",
"7 	c #D7D9D6",
"8 	c #A2B0B8",
"9 	c #C1C5C7",
"0 	c #F0F1F1",
"a 	c #F7F8F8",
"b 	c #DBD7D5",
"c 	c #9E928F",
"d 	c #413B3A",
"e 	c #090100",
"f 	c #6A0D00",
"g 	c #9C1700",
"h 	c #ECE4DF",
"i 	c #E1E3E6",
"j 	c #EAECED",
"k 	c #FCFCFC",
"l 	c #FFF9F6",
"m 	c #EFCEC6",
"n 	c #B3867F",
"o 	c #512921",
"p 	c #090000",
"q 	c #5D0A00",
"r 	c #9D1800",
"s 	c #D9B0A4",
"t 	c #EFD7D5",
"u 	c #FDF5F4",
"v 	c #FEFBF9",
"w 	c #F7E0DA",
"x 	c #E09E92",
"y 	c #B04637",
"z 	c #690404",
"A 	c #3D0000",
"B 	c #060000",
"C 	c #4C0600",
"D 	c #921500",
"E 	c #C78C87",
"F 	c #E8C8C3",
"G 	c #EED2CC",
"H 	c #E3B5AC",
"I 	c #CE695B",
"J 	c #B30000",
"K 	c #A40C00",
"L 	c #901300",
"M 	c #4E0300",
"N 	c #1A0000",
"O 	c #BE7F77",
"P 	c #C5594E",
"Q 	c #B8311D",
"R 	c #B60600",
"S 	c #C22E01",
"T 	c #CA3E01",
"U 	c #9B4A0C",
"V 	c #320801",
"W 	c #3D0501",
"X 	c #970000",
"Y 	c #5B0807",
"Z 	c #7B0A0B",
"` 	c #6E0100",
" .	c #180000",
"..	c #5A0000",
"+.	c #545A5B",
"@.	c #001518",
"#.	c #E8AC76",
"$.	c #D6C4BF",
"%.	c #ACB1B2",
"&.	c #4A5C5F",
"*.	c #740A0C",
"=.	c #B81B00",
"-.	c #C73200",
";.	c #E97A21",
">.	c #E8874A",
",.	c #EFBFB5",
"'.	c #FEF3EE",
").	c #E8ECEC",
"!.	c #7E1313",
"~.	c #BB2000",
"{.	c #B71A00",
"].	c #C53300",
"^.	c #C32A00",
"/.	c #C83800",
"(.	c #A91C00",
"_.	c #B4A3A1",
":.	c #F7EBE8",
"<.	c #FFFEFC",
"[.	c #F5F7F7",
"}.	c #7C0F10",
"|.	c #7D1111",
"1.	c #BF1B00",
"2.	c #CEC2BF",
"3.	c #FCFBFA",
"4.	c #FBFCFC",
"5.	c #DCDEDE",
"6.	c #A0A2A2",
"7.	c #8C1D1B",
"8.	c #8C1F1D",
"9.	c #E1B2AA",
"0.	c #F9E9E5",
"a.	c #F8F6F7",
"b.	c #CDD3D7",
"c.	c #73818A",
"d.	c #8B0809",
"e.	c #BF3413",
"f.	c #D97566",
"g.	c #DFA59B",
"h.	c #EFDDDB",
"i.	c #E6EAEB",
"j.	c #C8D1D0",
"k.	c #870708",
"l.	c #861918",
"m.	c #B81C00",
"n.	c #C31300",
"o.	c #C34C3E",
"p.	c #D89F8F",
"q.	c #EAD9CC",
"r.	c #821313",
"s.	c #8C201D",
"t.	c #B11700",
"u.	c #B60000",
"v.	c #B31600",
"w.	c #A8361C",
"x.	c #A00000",
"y.	c #8E1209",
"z.	c #770A0C",
"A.	c #A9100F",
"B.	c #AA0802",
"C.	c #B90F00",
"D.	c #C60200",
"E.	c #8E0303",
"F.	c #940101",
"G.	c #990403",
"H.	c #B20102",
"I.	c #C70000",
"J.	c #861A18",
"K.	c #A70306",
"L.	c #780A0C",
"M.	c #720A0C",
"N.	c #860A0A",
"O.	c #B92200",
"P.	c #BD2500",
"Q.	c #B61F00",
"R.	c #C93701",
"S.	c #CD2D00",
"T.	c #730A0C",
"U.	c #AB1C03",
"V.	c #C42700",
"W.	c #C42600",
"X.	c #E3650C",
"Y.	c #C33D05",
"Z.	c #AB1F01",
"`.	c #974100",
" +	c #9F4B00",
".+	c #C57933",
"++	c #F3AD62",
"@+	c #C62101",
"#+	c #BF2900",
"$+	c #750B0C",
"%+	c #A71A06",
"&+	c #B51E00",
"*+	c #D64E0E",
"=+	c #C56E0F",
"-+	c #862608",
";+	c #760A0C",
">+	c #86060A",
",+	c #740400",
"'+	c #676A65",
")+	c #D6CCB5",
"!+	c #F9D5A2",
"~+	c #E45500",
"{+	c #750A0C",
"]+	c #C51001",
"^+	c #B71700",
"/+	c #BA4426",
"(+	c #522B11",
"_+	c #B36200",
":+	c #A35B00",
"<+	c #864B01",
"[+	c #6E6160",
"}+	c #97A2AA",
"|+	c #BCAC97",
"1+	c #C87805",
"2+	c #DF7400",
"3+	c #A90805",
"4+	c #B21300",
"5+	c #9E1305",
"6+	c #8E9791",
"7+	c #343235",
"8+	c #791E0A",
"9+	c #FF9200",
"0+	c #A25800",
"a+	c #000001",
"b+	c #1E1E21",
"c+	c #4E2A00",
"d+	c #AE6200",
"e+	c #F88D00",
"f+	c #B61E03",
"g+	c #C52200",
"h+	c #8A0E09",
"i+	c #D00000",
"j+	c #D84F22",
"k+	c #C9B09E",
"l+	c #758089",
"m+	c #7B2B16",
"n+	c #D77701",
"o+	c #F48900",
"p+	c #F88A00",
"q+	c #FC8A00",
"r+	c #FC8B00",
"s+	c #6F3200",
"t+	c #582500",
"u+	c #6D3800",
"v+	c #B85E00",
"w+	c #FD8500",
"x+	c #FF8B00",
"y+	c #E46500",
"z+	c #BD4006",
"A+	c #C93F00",
"B+	c #996C47",
"C+	c #6F0A0B",
"D+	c #75190C",
"E+	c #7C5203",
"F+	c #955100",
"G+	c #8D4A00",
"H+	c #9A4F00",
"I+	c #DC7900",
"J+	c #FE9200",
"K+	c #FF9300",
"L+	c #FE8E00",
"M+	c #FE8F00",
"N+	c #FF9700",
"O+	c #FF9100",
"P+	c #FF8A0B",
"Q+	c #FF9C54",
"R+	c #F19F66",
"S+	c #E48F30",
"T+	c #E19402",
"U+	c #E8B404",
"V+	c #F9C702",
"W+	c #FFB400",
"X+	c #FFAF00",
"Y+	c #FCC000",
"Z+	c #F1AD00",
"`+	c #E96C04",
" @	c #AD4F00",
".@	c #7C3C39",
"+@	c #8C5F37",
"@@	c #CCC81A",
"#@	c #777900",
"$@	c #010700",
"%@	c #040900",
"&@	c #3A1900",
"*@	c #B66500",
"=@	c #EE8800",
"-@	c #F08900",
";@	c #EC8300",
">@	c #EB8200",
",@	c #EB8300",
"'@	c #EC8200",
")@	c #F27800",
"!@	c #FA7B1B",
"~@	c #FBB78A",
"{@	c #FAF2D8",
"]@	c #F9F68C",
"^@	c #FAF000",
"/@	c #FAF602",
"(@	c #F9F102",
"_@	c #F0CC00",
":@	c #EEBA00",
"<@	c #F1C300",
"[@	c #897300",
"}@	c #9E8300",
"|@	c #A58A00",
"1@	c #927300",
"2@	c #AE4700",
"3@	c #F47C09",
"4@	c #FFC952",
"5@	c #FFFF82",
"6@	c #FFFF55",
"7@	c #FFFF00",
"8@	c #FEFD00",
"9@	c #9A7603",
"0@	c #E0B600",
"a@	c #F0C300",
"b@	c #C19800",
"c@	c #CF6900",
"d@	c #E8AD00",
"e@	c #E2DE00",
"f@	c #E1E600",
"g@	c #E3DF00",
"h@	c #725600",
"i@	c #5D2E03",
"j@	c #5F3B00",
"k@	c #5C5600",
"l@	c #5B5C00",
"                                                                                                    ",
"                                                                                                    ",
"                                                                                                    ",
"                                                                                                    ",
"                                                                                                    ",
"                                                                                                    ",
"                                                                                                    ",
"                                                                                                    ",
"                                                                                                    ",
"                                                                                                    ",
"                        .                                       +     @ #                           ",
"                                                                $ % & * = -                         ",
"                                                        ;   > , ' ) ! ~ { ] ^                       ",
"                                                    / ( _ : < [ } | 1 2 3 4 5                       ",
"                                                    6 7 8 9 0 a b c d ) e f g                       ",
"                                                      h i j k l m n o ) p q r                       ",
"                                                      s t u v w x y z A B C D                       ",
"                                                        E F G H I J K L M N                         ",
"                                                            O P Q R S T U V W                       ",
"                                                                X           Y                       ",
"                      Z                                                                             ",
"                    `                                                                               ",
"                     ...                                                                            ",
"                    +.@.                                                                #.          ",
"                  $.%.&.                                                *.  =.  -.  ;.>.            ",
"                ,.'.).                                                  !.    ~.{.].^./.(.          ",
"              _.:.<.[.      }.|.                                                    1.              ",
"              2.3.4.5.6.    7.8.                                                                    ",
"              9.0.a.b.c.    d.                                                                      ",
"            e.f.g.h.i.j.  k.l.                                                    *.                ",
"            m.n.o.p.q.    r.s.                                                                      ",
"            t.u.v.w.x.y.z.    A.                                                                    ",
"              B.C.D.  E.F.                                                                          ",
"            G.H.I.  J.                                                                              ",
"                                                                                K.                  ",
"                                                              *.*.                                  ",
"                                                  L.          *.M.    N.            O.P.Q.          ",
"                                                  R.S.          T.                  U.V.W.          ",
"                      X.Y.                      Z.`. +.+++            @+#+    *.    $+%+&+          ",
"              *.    *+=+-+*.      ;+          >+,+) ) '+)+!+  ~+  {+    ]+^+                        ",
"                    /+(+                        _+:+<+[+}+|+1+2+      *.z.3+4+5+                    ",
"                    6+7+8+  *.        9+              0+a+b+c+d+e+        *.f+g+h+                  ",
"              i+j+k+l+m+      n+o+o+p+q+q+r+r+          s+t+u+v+w+x+y+        z+A+                  ",
"                  B+C+    D+E+F+G+H+I+J+K+L+M+K+N+O+P+Q+R+S+T+U+V+W+X+Y+Z+      `+                  ",
"                   @  .@+@@@#@$@%@&@*@=@-@;@>@,@'@)@!@~@{@]@^@/@(@_@:@<@                            ",
"                            [@}@|@1@              2@3@4@5@6@7@8@                                    ",
"                            9@0@a@b@                c@d@e@f@g@                                      ",
"                                h@                  i@j@k@l@                                        ",
"                                                                                                    ",
"                                                                                                    "};
