/* XPM */
static char * D:\Downloads\Downloads\mario15_xpm[] = {
"50 50 178 2",
"  	c #FF000000",
". 	c #740A0C",
"+ 	c #C10303",
"@ 	c #B60303",
"# 	c #BE0201",
"$ 	c #AF0403",
"% 	c #C30101",
"& 	c #7B0000",
"* 	c #A90404",
"= 	c #950606",
"- 	c #D44906",
"; 	c #C30301",
"> 	c #C31A05",
", 	c #C40F05",
"' 	c #C30501",
") 	c #B40100",
"! 	c #670000",
"~ 	c #6F0400",
"{ 	c #660200",
"] 	c #920706",
"^ 	c #981007",
"/ 	c #C31101",
"( 	c #C10201",
"_ 	c #C20101",
": 	c #86060A",
"< 	c #BB0100",
"[ 	c #C20100",
"} 	c #BF0100",
"| 	c #B9110F",
"1 	c #A00100",
"2 	c #A90201",
"3 	c #BA0301",
"4 	c #8C0100",
"5 	c #750A0C",
"6 	c #C51001",
"7 	c #B71700",
"8 	c #9E0B07",
"9 	c #B90603",
"0 	c #AA0403",
"a 	c #9B0605",
"b 	c #940706",
"c 	c #BF2D00",
"d 	c #C20700",
"e 	c #960201",
"f 	c #680101",
"g 	c #660101",
"h 	c #630100",
"i 	c #6A0100",
"j 	c #8F0706",
"k 	c #7D090A",
"l 	c #770A0C",
"m 	c #A40805",
"n 	c #990A05",
"o 	c #950B06",
"p 	c #94918B",
"q 	c #9B0606",
"r 	c #860505",
"s 	c #930706",
"t 	c #900706",
"u 	c #7E0403",
"v 	c #640101",
"w 	c #5F0000",
"x 	c #630200",
"y 	c #5F0100",
"z 	c #5E0000",
"A 	c #650101",
"B 	c #6E0101",
"C 	c #610000",
"D 	c #6B0100",
"E 	c #AA2803",
"F 	c #8C0606",
"G 	c #690101",
"H 	c #750302",
"I 	c #8C0807",
"J 	c #890808",
"K 	c #9B0D06",
"L 	c #8C0804",
"M 	c #7D0404",
"N 	c #D00000",
"O 	c #D84F22",
"P 	c #C9B09E",
"Q 	c #758089",
"R 	c #7C160C",
"S 	c #600000",
"T 	c #6E0201",
"U 	c #600200",
"V 	c #A94A00",
"W 	c #D35C00",
"X 	c #E27801",
"Y 	c #E17900",
"Z 	c #E97E00",
"` 	c #FC8B00",
" .	c #700202",
"..	c #880604",
"+.	c #7D0302",
"@.	c #9B0403",
"#.	c #660500",
"$.	c #833001",
"%.	c #800803",
"&.	c #620100",
"*.	c #610201",
"=.	c #670300",
"-.	c #996C47",
";.	c #6F0A0B",
">.	c #630502",
",.	c #660701",
"'.	c #780F02",
").	c #874400",
"!.	c #9A4F00",
"~.	c #DC7900",
"{.	c #FE9200",
"].	c #FF9300",
"^.	c #FE8E00",
"/.	c #FE8F00",
"(.	c #FF9700",
"_.	c #FF9100",
":.	c #F07708",
"<.	c #B72D0E",
"[.	c #AC0B06",
"}.	c #910706",
"|.	c #B23503",
"1.	c #C79801",
"2.	c #FFB400",
"3.	c #FFAF00",
"4.	c #FCC000",
"5.	c #C08300",
"6.	c #E96C04",
"7.	c #AD4F00",
"8.	c #7C3C39",
"9.	c #8C5F37",
"0.	c #CCC81A",
"a.	c #777900",
"b.	c #010700",
"c.	c #040900",
"d.	c #3A1900",
"e.	c #B66500",
"f.	c #EE8800",
"g.	c #F08900",
"h.	c #EC8300",
"i.	c #EB8200",
"j.	c #EB8300",
"k.	c #EC8200",
"l.	c #F27800",
"m.	c #FA7B1B",
"n.	c #FBB78A",
"o.	c #FAF2D8",
"p.	c #DCC670",
"q.	c #D7AC02",
"r.	c #FAF602",
"s.	c #F9F102",
"t.	c #F0CC00",
"u.	c #EEBA00",
"v.	c #F1C300",
"w.	c #897300",
"x.	c #9E8300",
"y.	c #A58A00",
"z.	c #927300",
"A.	c #AE4700",
"B.	c #F47C09",
"C.	c #FFC952",
"D.	c #FFFF82",
"E.	c #FFFF55",
"F.	c #FFFF00",
"G.	c #FEFD00",
"H.	c #9A7603",
"I.	c #E0B600",
"J.	c #F0C300",
"K.	c #C19800",
"L.	c #CF6900",
"M.	c #E8AD00",
"N.	c #E2DE00",
"O.	c #E1E600",
"P.	c #E3DF00",
"Q.	c #725600",
"R.	c #5D2E03",
"S.	c #5F3B00",
"T.	c #5C5600",
"U.	c #5B5C00",
"                                                                                                    ",
"                                                                                                    ",
"                                                                                                    ",
"                                                                                                    ",
"                                                                                                    ",
"                                                                                                    ",
"                                                                                                    ",
"                                                                                                    ",
"                                                                                                    ",
"                                                                                                    ",
"                                                                                                    ",
"                                                                                                    ",
"                                                                                                    ",
"                                                                                                    ",
"                                                                                                    ",
"                                                                                                    ",
"                                                                                                    ",
"                                                                                                    ",
"                                                                                                    ",
"                                                                                                    ",
"                                                                                                    ",
"                                                                                                    ",
"                                                                                                    ",
"                                                                                                    ",
"                                                                                                    ",
"                                                                                                    ",
"                                                                                                    ",
"                                                                                                    ",
"                                                                                                    ",
"                                                                                                    ",
"                                                                                                    ",
"                                                                                                    ",
"                                                                                                    ",
"                                                                                                    ",
"                                                                                                    ",
"                                                                    . .                             ",
"                        +                                           @                               ",
"                      # $ %                                         &                               ",
"                    * = = - ;                             > , ' % ) !     ~ {                       ",
"                  . ]   ^ / ( _                   : < [ } | 1 2 3 4   5     6 7                     ",
"                        8 9 0 a b                   c d % e f g h i j     k l m n o                 ",
"                        p q r s t s u v w w x y   z   A B f C ! D E F G h H I J K L M               ",
"                  N O P Q R S   H T U V W X Y Z `        .w ..+.@.j #.$.%.&.h A *.#.=.              ",
"                      -.;.    >.,.'.).!.~.{.].^./.].(._.:.<.[.] }.|.1.2.3.4.5.      6.              ",
"                      7.  8.9.0.a.b.c.d.e.f.g.h.i.j.k.l.m.n.o.p.q.r.s.t.u.v.                        ",
"                                w.x.y.z.              A.B.C.D.E.F.G.                                ",
"                                H.I.J.K.                L.M.N.O.P.                                  ",
"                                    Q.                  R.S.T.U.                                    ",
"                                                                                                    ",
"                                                                                                    "};
