/* XPM */
static char * CHK[] = {
"50 50 238 2",
"  	c #FF000000",
". 	c #AD8477",
"+ 	c #BFA6A1",
"@ 	c #82676A",
"# 	c #755C5D",
"$ 	c #C30200",
"% 	c #D6DAD8",
"& 	c #99A4AB",
"* 	c #A3A6A7",
"= 	c #00080A",
"- 	c #550100",
"; 	c #951400",
"> 	c #EBE8E7",
", 	c #D3DADD",
"' 	c #DBDFDF",
") 	c #F4F5F5",
"! 	c #E4E8E8",
"~ 	c #9CA0A0",
"{ 	c #50595A",
"] 	c #100606",
"^ 	c #5F0800",
"/ 	c #BB887D",
"( 	c #EED4D1",
"_ 	c #F7F3F4",
": 	c #FAFBFB",
"< 	c #FFFFFD",
"[ 	c #F6EBE8",
"} 	c #C5BBB8",
"| 	c #6F6967",
"1 	c #000C0C",
"2 	c #310100",
"3 	c #7E1100",
"4 	c #AB1C00",
"5 	c #D6A6A1",
"6 	c #F8E6E3",
"7 	c #FCF6F3",
"8 	c #F8E3DE",
"9 	c #ECC2BA",
"0 	c #BD9189",
"a 	c #644B47",
"b 	c #040303",
"c 	c #010000",
"d 	c #5D0A00",
"e 	c #9A1700",
"f 	c #D8AEA8",
"g 	c #E8C4BD",
"h 	c #E2ABA1",
"i 	c #D07669",
"j 	c #A13725",
"k 	c #500D0B",
"l 	c #020000",
"m 	c #170100",
"n 	c #610B00",
"o 	c #C46258",
"p 	c #C65C51",
"q 	c #BC1505",
"r 	c #A70000",
"s 	c #790200",
"t 	c #2D0000",
"u 	c #200200",
"v 	c #740E00",
"w 	c #90100E",
"x 	c #C52C00",
"y 	c #B43301",
"z 	c #610A00",
"A 	c #1C0000",
"B 	c #780D00",
"C 	c #9C1600",
"D 	c #8A430A",
"E 	c #0F0000",
"F 	c #4E0E05",
"G 	c #932623",
"H 	c #B64C4B",
"I 	c #B90606",
"J 	c #A20407",
"K 	c #C20101",
"L 	c #C00403",
"M 	c #780A0C",
"N 	c #AB100E",
"O 	c #881C1A",
"P 	c #750A0C",
"Q 	c #BD2500",
"R 	c #B61F00",
"S 	c #C93701",
"T 	c #CD2D00",
"U 	c #730A0C",
"V 	c #AB1C03",
"W 	c #C42700",
"X 	c #C42600",
"Y 	c #E3650C",
"Z 	c #C33D05",
"` 	c #AB1F01",
" .	c #974100",
"..	c #9F4B00",
"+.	c #C57933",
"@.	c #F3AD62",
"#.	c #C62101",
"$.	c #BF2900",
"%.	c #740A0C",
"&.	c #750B0C",
"*.	c #A71A06",
"=.	c #B51E00",
"-.	c #D64E0E",
";.	c #C56E0F",
">.	c #862608",
",.	c #760A0C",
"'.	c #86060A",
").	c #740400",
"!.	c #000000",
"~.	c #676A65",
"{.	c #D6CCB5",
"].	c #F9D5A2",
"^.	c #E45500",
"/.	c #C51001",
"(.	c #B71700",
"_.	c #BA4426",
":.	c #522B11",
"<.	c #B36200",
"[.	c #A35B00",
"}.	c #864B01",
"|.	c #6E6160",
"1.	c #97A2AA",
"2.	c #BCAC97",
"3.	c #C87805",
"4.	c #DF7400",
"5.	c #770A0C",
"6.	c #A90805",
"7.	c #B21300",
"8.	c #9E1305",
"9.	c #8E9791",
"0.	c #343235",
"a.	c #791E0A",
"b.	c #FF9200",
"c.	c #A25800",
"d.	c #000001",
"e.	c #1E1E21",
"f.	c #4E2A00",
"g.	c #AE6200",
"h.	c #F88D00",
"i.	c #B61E03",
"j.	c #C52200",
"k.	c #8A0E09",
"l.	c #D00000",
"m.	c #D84F22",
"n.	c #C9B09E",
"o.	c #758089",
"p.	c #7B2B16",
"q.	c #D77701",
"r.	c #F48900",
"s.	c #F88A00",
"t.	c #FC8A00",
"u.	c #FC8B00",
"v.	c #6F3200",
"w.	c #582500",
"x.	c #6D3800",
"y.	c #B85E00",
"z.	c #FD8500",
"A.	c #FF8B00",
"B.	c #E46500",
"C.	c #BD4006",
"D.	c #C93F00",
"E.	c #996C47",
"F.	c #6F0A0B",
"G.	c #75190C",
"H.	c #7C5203",
"I.	c #955100",
"J.	c #8D4A00",
"K.	c #9A4F00",
"L.	c #DC7900",
"M.	c #FE9200",
"N.	c #FF9300",
"O.	c #FE8E00",
"P.	c #FE8F00",
"Q.	c #FF9700",
"R.	c #FF9100",
"S.	c #FF8A0B",
"T.	c #FF9C54",
"U.	c #F19F66",
"V.	c #E48F30",
"W.	c #E19402",
"X.	c #E8B404",
"Y.	c #F9C702",
"Z.	c #FFB400",
"`.	c #FFAF00",
" +	c #FCC000",
".+	c #F1AD00",
"++	c #E96C04",
"@+	c #AD4F00",
"#+	c #7C3C39",
"$+	c #8C5F37",
"%+	c #CCC81A",
"&+	c #777900",
"*+	c #010700",
"=+	c #040900",
"-+	c #3A1900",
";+	c #B66500",
">+	c #EE8800",
",+	c #F08900",
"'+	c #EC8300",
")+	c #EB8200",
"!+	c #EB8300",
"~+	c #EC8200",
"{+	c #F27800",
"]+	c #FA7B1B",
"^+	c #FBB78A",
"/+	c #FAF2D8",
"(+	c #F9F68C",
"_+	c #FAF000",
":+	c #FAF602",
"<+	c #F9F102",
"[+	c #F0CC00",
"}+	c #EEBA00",
"|+	c #F1C300",
"1+	c #897300",
"2+	c #9E8300",
"3+	c #A58A00",
"4+	c #927300",
"5+	c #AE4700",
"6+	c #F47C09",
"7+	c #FFC952",
"8+	c #FFFF82",
"9+	c #FFFF55",
"0+	c #FFFF00",
"a+	c #FEFD00",
"b+	c #9A7603",
"c+	c #E0B600",
"d+	c #F0C300",
"e+	c #C19800",
"f+	c #CF6900",
"g+	c #E8AD00",
"h+	c #E2DE00",
"i+	c #E1E600",
"j+	c #E3DF00",
"k+	c #725600",
"l+	c #5D2E03",
"m+	c #5F3B00",
"n+	c #5C5600",
"o+	c #5B5C00",
"                                                                                                    ",
"                                                                                                    ",
"                                                                                                    ",
"                                                                                                    ",
"                                                                                                    ",
"                                                                                                    ",
"                                                                                                    ",
"                                                                                                    ",
"                                                                                                    ",
"                                                                                                    ",
"                                                                                                    ",
"                                                                                                    ",
"                                                                                                    ",
"                                                                                                    ",
"                                                                                                    ",
"                                                                                                    ",
"                                                                                                    ",
"                                                                                                    ",
"                                                                                                    ",
"                                                                                                    ",
"                                                                                                    ",
"                                                            . + @ #             $                   ",
"                                                              % & *       = - ;                     ",
"                                                              > , ' ) ! ~ { ] ^                     ",
"                                                            / ( _ : < [ } | 1 2 3 4                 ",
"                                                              5 6 7 8 9 0 a b c d e                 ",
"                                                                f g h i j k l m n                   ",
"                                                                  o p q r s t u v                   ",
"                                                                  w     x y z A B C                 ",
"                                                                            D E                     ",
"                                                                              F                     ",
"                                                                                                    ",
"                                                                                                    ",
"              G H                                                                                   ",
"                    I                                                             J                 ",
"                                                            K                                       ",
"                      L                             M     K N   O       P               Q R         ",
"                                                    S T           U                   V W X         ",
"                        Y Z                       `  ...+.@.            #.$.    %.    &.*.=.        ",
"                %.    -.;.>.%.      ,.          '.).!.!.~.{.].  ^.  P     /.(.                      ",
"                      _.:.                        <.[.}.|.1.2.3.4.      %.5.6.7.8.                  ",
"                      9.0.a.  %.        b.              c.d.e.f.g.h.        %.i.j.k.                ",
"                l.m.n.o.p.      q.r.r.s.t.t.u.u.          v.w.x.y.z.A.B.        C.D.                ",
"                    E.F.    G.H.I.J.K.L.M.N.O.P.N.Q.R.S.T.U.V.W.X.Y.Z.`. +.+      ++                ",
"                    @+  #+$+%+&+*+=+-+;+>+,+'+)+!+~+{+]+^+/+(+_+:+<+[+}+|+                          ",
"                              1+2+3+4+              5+6+7+8+9+0+a+                                  ",
"                              b+c+d+e+                f+g+h+i+j+                                    ",
"                                  k+                  l+m+n+o+                                      ",
"                                                                                                    ",
"                                                                                                    "};
