/* XPM */
static char * mario5_xpm[] = {
"50 50 755 2",
"  	c #FF000000",
". 	c #A13736",
"+ 	c #A33B39",
"@ 	c #CC4A47",
"# 	c #F76C6C",
"$ 	c #FE6D6D",
"% 	c #FE5F5E",
"& 	c #FA6564",
"* 	c #E45959",
"= 	c #CC524D",
"- 	c #FFB6B3",
"; 	c #FFE6E5",
"> 	c #FFE4E4",
", 	c #FFB1B1",
"' 	c #FF6563",
") 	c #FF6868",
"! 	c #FD6463",
"~ 	c #C5403E",
"{ 	c #FAA09D",
"] 	c #EFB7B4",
"^ 	c #EDB9B6",
"/ 	c #EAB0AD",
"( 	c #FDF3F3",
"_ 	c #FF9796",
": 	c #FF605E",
"< 	c #FF6867",
"[ 	c #FF5D5B",
"} 	c #C02E2C",
"| 	c #FC8B88",
"1 	c #E3908B",
"2 	c #EDB1AE",
"3 	c #E38680",
"4 	c #F6DCDA",
"5 	c #FFAEAD",
"6 	c #FF5350",
"7 	c #FF605D",
"8 	c #FF5956",
"9 	c #FA4240",
"0 	c #D23B39",
"a 	c #F75C59",
"b 	c #FBB4B2",
"c 	c #F4C4C2",
"d 	c #F4CDCC",
"e 	c #FA7675",
"f 	c #FF3D39",
"g 	c #FE4C4A",
"h 	c #FC4D4A",
"i 	c #FB3F3E",
"j 	c #D3181C",
"k 	c #B53D3B",
"l 	c #9B2426",
"m 	c #821318",
"n 	c #81161A",
"o 	c #9E2F2F",
"p 	c #DE4F4D",
"q 	c #FC6362",
"r 	c #FF8B8B",
"s 	c #F17E7E",
"t 	c #DE0000",
"u 	c #F0221F",
"v 	c #F63230",
"w 	c #F53534",
"x 	c #F02F2F",
"y 	c #D7131A",
"z 	c #B33535",
"A 	c #530007",
"B 	c #570109",
"C 	c #450006",
"D 	c #200003",
"E 	c #480000",
"F 	c #971718",
"G 	c #E13838",
"H 	c #FC4C4A",
"I 	c #EE4143",
"J 	c #C60A12",
"K 	c #CD0F15",
"L 	c #D8151A",
"M 	c #D8151B",
"N 	c #C90E16",
"O 	c #A0060F",
"P 	c #8A1216",
"Q 	c #200106",
"R 	c #220306",
"S 	c #1F0306",
"T 	c #2D0306",
"U 	c #2E0307",
"V 	c #110003",
"W 	c #510001",
"X 	c #9C0C10",
"Y 	c #DA282D",
"Z 	c #CC161E",
"` 	c #9F0610",
" .	c #B80912",
"..	c #C20B13",
"+.	c #BC0A13",
"@.	c #A10713",
"#.	c #70050E",
"$.	c #490406",
"%.	c #050305",
"&.	c #0A0305",
"*.	c #170306",
"=.	c #330305",
"-.	c #4B0308",
";.	c #57040C",
">.	c #490208",
",.	c #000001",
"'.	c #470002",
").	c #91070A",
"!.	c #91060D",
"~.	c #920511",
"{.	c #A80712",
"].	c #AF0712",
"^.	c #A20715",
"/.	c #860614",
"(.	c #72030F",
"_.	c #62070D",
":.	c #370508",
"<.	c #160205",
"[.	c #060205",
"}.	c #0F0205",
"|.	c #1F0205",
"1.	c #280104",
"2.	c #2A0103",
"3.	c #140002",
"4.	c #530706",
"5.	c #6D080D",
"6.	c #870613",
"7.	c #990714",
"8.	c #9B0715",
"9.	c #8C0714",
"0.	c #790612",
"a.	c #6B040E",
"b.	c #59080C",
"c.	c #0A0205",
"d.	c #030305",
"e.	c #020206",
"f.	c #380406",
"g.	c #4C0504",
"h.	c #590A05",
"i.	c #76170A",
"j.	c #921E08",
"k.	c #B84932",
"l.	c #AD422A",
"m.	c #57070F",
"n.	c #3B090B",
"o.	c #64080C",
"p.	c #79020E",
"q.	c #7B0005",
"r.	c #760007",
"s.	c #71000C",
"t.	c #6D0510",
"u.	c #5E020A",
"v.	c #090204",
"w.	c #180204",
"x.	c #000007",
"y.	c #570913",
"z.	c #A72D18",
"A.	c #BF4735",
"B.	c #CB5D49",
"C.	c #EA927E",
"D.	c #DD8471",
"E.	c #75364D",
"F.	c #080135",
"G.	c #6E1B1B",
"H.	c #86190B",
"I.	c #6E221D",
"J.	c #B15F55",
"K.	c #B26156",
"L.	c #7A3333",
"M.	c #60010A",
"N.	c #62030D",
"O.	c #570F12",
"P.	c #150001",
"Q.	c #2E0B0D",
"R.	c #320911",
"S.	c #24010C",
"T.	c #52181A",
"U.	c #A74E42",
"V.	c #CE6F5E",
"W.	c #C58776",
"X.	c #4F3237",
"Y.	c #00001A",
"Z.	c #541828",
"`.	c #A63B25",
" +	c #BC320C",
".+	c #C96B5C",
"++	c #CC7562",
"@+	c #BE644A",
"#+	c #BC573E",
"$+	c #650E11",
"%+	c #5A020A",
"&+	c #B17365",
"*+	c #780100",
"=+	c #6B5054",
"-+	c #A599A0",
";+	c #924D54",
">+	c #755655",
",+	c #987567",
"'+	c #C98D84",
")+	c #835151",
"!+	c #91444C",
"~+	c #83606A",
"{+	c #BAB0B3",
"]+	c #A65348",
"^+	c #D54517",
"/+	c #CB5A40",
"(+	c #944F2E",
"_+	c #B14B18",
":+	c #CA5D34",
"<+	c #903A24",
"[+	c #4A0206",
"}+	c #B15E45",
"|+	c #B44F43",
"1+	c #B95645",
"2+	c #9E675F",
"3+	c #C5A8A0",
"4+	c #ECD5CC",
"5+	c #FFEAE2",
"6+	c #FEDED6",
"7+	c #CA8176",
"8+	c #975557",
"9+	c #A57F83",
"0+	c #B9756E",
"a+	c #CD644D",
"b+	c #D15F4D",
"c+	c #B55636",
"d+	c #8B3F10",
"e+	c #A94416",
"f+	c #CC5C35",
"g+	c #924320",
"h+	c #7E3515",
"i+	c #A2483D",
"j+	c #C26F52",
"k+	c #F7BFAD",
"l+	c #FFEEE8",
"m+	c #FEF5F2",
"n+	c #FEECE8",
"o+	c #F2D3C8",
"p+	c #FCC7B7",
"q+	c #E8A89B",
"r+	c #DD9486",
"s+	c #ECAB9D",
"t+	c #E8A293",
"u+	c #D47466",
"v+	c #B05636",
"w+	c #A44515",
"x+	c #C75729",
"y+	c #D36439",
"z+	c #750300",
"A+	c #B45F41",
"B+	c #FFB69F",
"C+	c #FFCBBC",
"D+	c #FFD0C4",
"E+	c #F8B3A2",
"F+	c #C77F6C",
"G+	c #E5AFA6",
"H+	c #E9B6AF",
"I+	c #E8B1AA",
"J+	c #E5B5AE",
"K+	c #CF9897",
"L+	c #C35F5C",
"M+	c #C65432",
"N+	c #B65930",
"O+	c #D76539",
"P+	c #C75F32",
"Q+	c #2F050C",
"R+	c #270112",
"S+	c #8C4731",
"T+	c #B96346",
"U+	c #B55839",
"V+	c #944237",
"W+	c #59356F",
"X+	c #493073",
"Y+	c #472B6F",
"Z+	c #482D72",
"`+	c #472C73",
" @	c #35186A",
".@	c #9F4343",
"+@	c #CA5A27",
"@@	c #CB5D33",
"#@	c #C75E2E",
"$@	c #8D4510",
"%@	c #0A0613",
"&@	c #00002D",
"*@	c #000020",
"=@	c #000005",
"-@	c #000133",
";@	c #202568",
">@	c #020F5B",
",@	c #020E52",
"'@	c #3A3376",
")@	c #3E3273",
"!@	c #4E1B40",
"~@	c #A2511F",
"{@	c #754012",
"]@	c #844511",
"^@	c #783E0C",
"/@	c #4D0E01",
"(@	c #180409",
"_@	c #40040D",
":@	c #8E2312",
"<@	c #B53D27",
"[@	c #C45C49",
"}@	c #C75F48",
"|@	c #933E32",
"1@	c #5D1534",
"2@	c #541325",
"3@	c #6A352A",
"4@	c #69363D",
"5@	c #3E1015",
"6@	c #401106",
"7@	c #500F02",
"8@	c #A52801",
"9@	c #DB5E45",
"0@	c #F8AB9D",
"a@	c #FEDAD4",
"b@	c #FEC8BD",
"c@	c #E97D64",
"d@	c #C44938",
"e@	c #711760",
"f@	c #970F3C",
"g@	c #B50715",
"h@	c #AF0C15",
"i@	c #800610",
"j@	c #520707",
"k@	c #854D70",
"l@	c #C8615F",
"m@	c #E59183",
"n@	c #E8AFA7",
"o@	c #E19A90",
"p@	c #CF7274",
"q@	c #8C5398",
"r@	c #B21E68",
"s@	c #D51216",
"t@	c #CE1D37",
"u@	c #B81739",
"v@	c #C0121C",
"w@	c #830610",
"x@	c #6781CB",
"y@	c #D4455C",
"z@	c #E93F2A",
"A@	c #A95C8B",
"B@	c #7E7EC7",
"C@	c #5E87D7",
"D@	c #7C62AE",
"E@	c #F02F24",
"F@	c #CC1637",
"G@	c #D21F42",
"H@	c #CF1221",
"I@	c #D21018",
"J@	c #B60D16",
"K@	c #6F060D",
"L@	c #5687CA",
"M@	c #B86097",
"N@	c #FE3E06",
"O@	c #EB586D",
"P@	c #7191D7",
"Q@	c #639CDF",
"R@	c #4790E7",
"S@	c #C05984",
"T@	c #EC240E",
"U@	c #B51117",
"V@	c #D61924",
"W@	c #E82B2A",
"X@	c #F84747",
"Y@	c #F03234",
"Z@	c #AC0A15",
"`@	c #B8A92A",
" #	c #718A9F",
".#	c #9B6BAC",
"+#	c #D06A92",
"@#	c #A683AE",
"##	c #CDD57B",
"$#	c #EAE446",
"%#	c #7E9EB2",
"&#	c #AF428A",
"*#	c #DB1602",
"=#	c #840502",
"-#	c #A60B14",
";#	c #DD2831",
">#	c #FC5253",
",#	c #FF5555",
"'#	c #CF242C",
")#	c #770B13",
"!#	c #707074",
"~#	c #484763",
"{#	c #525D88",
"]#	c #5089DA",
"^#	c #7E9DBA",
"/#	c #EEE43B",
"(#	c #F0E841",
"_#	c #929974",
":#	c #3458CB",
"<#	c #7950A1",
"[#	c #6A174D",
"}#	c #710409",
"|#	c #C1242D",
"1#	c #FE5758",
"2#	c #FF6161",
"3#	c #E03235",
"4#	c #87050E",
"5#	c #606886",
"6#	c #666887",
"7#	c #777FA5",
"8#	c #6D75A1",
"9#	c #6B739D",
"0#	c #7B7F95",
"a#	c #7E849F",
"b#	c #7782AB",
"c#	c #5070CB",
"d#	c #1C60D3",
"e#	c #183CA6",
"f#	c #2F0650",
"g#	c #A71013",
"h#	c #FE4849",
"i#	c #FE5D5D",
"j#	c #E32426",
"k#	c #920708",
"l#	c #644647",
"m#	c #9BBAD6",
"n#	c #8999C6",
"o#	c #8897C4",
"p#	c #8696C3",
"q#	c #8494C0",
"r#	c #8191BD",
"s#	c #8394C1",
"t#	c #8797C5",
"u#	c #8A99C8",
"v#	c #8B98C8",
"w#	c #8A98C7",
"x#	c #808CBA",
"y#	c #4C4C6B",
"z#	c #414163",
"A#	c #575271",
"B#	c #4B4B67",
"C#	c #42405B",
"D#	c #43425D",
"E#	c #525375",
"F#	c #64678F",
"G#	c #767FA9",
"H#	c #737FB0",
"I#	c #3353C3",
"J#	c #142F9F",
"K#	c #463D72",
"L#	c #AD454E",
"M#	c #F86969",
"N#	c #FF6363",
"O#	c #E14144",
"P#	c #900000",
"Q#	c #5A3A3B",
"R#	c #545E7F",
"S#	c #443F5C",
"T#	c #423D5A",
"U#	c #4D394A",
"V#	c #583A46",
"W#	c #5B3F49",
"X#	c #5B414B",
"Y#	c #47394F",
"Z#	c #3B3958",
"`#	c #423B59",
" $	c #423C58",
".$	c #4C506E",
"+$	c #484E77",
"@$	c #4A4766",
"#$	c #4E526B",
"$$	c #4A4A61",
"%$	c #443B55",
"&$	c #48435E",
"*$	c #545173",
"=$	c #5C5B80",
"-$	c #676B89",
";$	c #68486B",
">$	c #4B3988",
",$	c #473B7D",
"'$	c #B89499",
")$	c #EDC3C2",
"!$	c #F7E0E0",
"~$	c #EFD5D5",
"{$	c #C1A2A4",
"]$	c #74595A",
"^$	c #34374C",
"/$	c #252039",
"($	c #593C3D",
"_$	c #774639",
":$	c #7A4733",
"<$	c #754B3E",
"[$	c #6C4131",
"}$	c #683F35",
"|$	c #391F2E",
"1$	c #2D283C",
"2$	c #525772",
"3$	c #4C5684",
"4$	c #3E3A57",
"5$	c #4F5370",
"6$	c #505370",
"7$	c #453F59",
"8$	c #45405A",
"9$	c #46405D",
"0$	c #554B6A",
"a$	c #4F4862",
"b$	c #653B29",
"c$	c #72464A",
"d$	c #4C4581",
"e$	c #BDC0C1",
"f$	c #D6DFDE",
"g$	c #D8DBDB",
"h$	c #DBDCDC",
"i$	c #D4D2D2",
"j$	c #897778",
"k$	c #6F5151",
"l$	c #653828",
"m$	c #66382C",
"n$	c #633832",
"o$	c #673C30",
"p$	c #794A37",
"q$	c #555974",
"r$	c #596891",
"s$	c #494762",
"t$	c #45425D",
"u$	c #42405A",
"v$	c #4A4361",
"w$	c #4C4763",
"x$	c #4C4460",
"y$	c #52445F",
"z$	c #4D3F55",
"A$	c #55293F",
"B$	c #42236E",
"C$	c #8E8DA9",
"D$	c #E0E0DF",
"E$	c #FDFCFC",
"F$	c #FDFDFD",
"G$	c #F3F4F4",
"H$	c #D2D4D3",
"I$	c #7A6E6E",
"J$	c #704C49",
"K$	c #633827",
"L$	c #673C31",
"M$	c #673B2F",
"N$	c #603628",
"O$	c #744535",
"P$	c #543534",
"Q$	c #697CA2",
"R$	c #4B4F68",
"S$	c #4C425D",
"T$	c #4D435E",
"U$	c #4D415C",
"V$	c #534963",
"W$	c #4A3E52",
"X$	c #371765",
"Y$	c #7472A2",
"Z$	c #D6D5DE",
"`$	c #FFFFFF",
" %	c #EDECEC",
".%	c #9B9090",
"+%	c #571C11",
"@%	c #4F2712",
"#%	c #726D92",
"$%	c #302A5F",
"%%	c #353363",
"&%	c #343165",
"*%	c #332D4A",
"=%	c #4B4C59",
"-%	c #464555",
";%	c #403E51",
">%	c #100871",
",%	c #BEBDCE",
"'%	c #F2F2F3",
")%	c #FEFEFE",
"!%	c #FBFCFC",
"~%	c #B7AEAE",
"{%	c #561E1E",
"]%	c #3D2127",
"^%	c #4A3B56",
"/%	c #1D1660",
"(%	c #1C1756",
"_%	c #333460",
":%	c #5F6773",
"<%	c #616974",
"[%	c #51546F",
"}%	c #3D397F",
"|%	c #BCBCC3",
"1%	c #C4C4C3",
"2%	c #EEEEEE",
"3%	c #F6F7F7",
"4%	c #B4ACAC",
"5%	c #653D3B",
"6%	c #3B1619",
"7%	c #4A415C",
"8%	c #21169D",
"9%	c #1E1381",
"0%	c #232259",
"a%	c #525879",
"b%	c #5E6682",
"c%	c #545B8E",
"d%	c #414A9A",
"e%	c #848488",
"f%	c #898984",
"g%	c #CACACA",
"h%	c #E6E6E6",
"i%	c #EAEAEA",
"j%	c #E5E5E5",
"k%	c #D6D6D6",
"l%	c #A19898",
"m%	c #602F28",
"n%	c #4D4765",
"o%	c #1D19B8",
"p%	c #2013A2",
"q%	c #1B1372",
"r%	c #21244A",
"s%	c #3C4EA4",
"t%	c #4468D4",
"u%	c #235DE0",
"v%	c #363987",
"w%	c #9797A0",
"x%	c #B6B6B7",
"y%	c #AEAEAE",
"z%	c #B6B6B6",
"A%	c #B8B9B9",
"B%	c #A6A4A4",
"C%	c #827272",
"D%	c #5C241A",
"E%	c #4B4765",
"F%	c #4E4C6D",
"G%	c #441954",
"H%	c #1B22C1",
"I%	c #2317AF",
"J%	c #241982",
"K%	c #0B083E",
"L%	c #102385",
"M%	c #2053D4",
"N%	c #1E5DE6",
"O%	c #1428A6",
"P%	c #A3A3B3",
"Q%	c #AEAEAC",
"R%	c #ADADAC",
"S%	c #AEAFAF",
"T%	c #999999",
"U%	c #837A7A",
"V%	c #6A4B4A",
"W%	c #512A2E",
"X%	c #4E4C6C",
"Y%	c #671F09",
"Z%	c #4B1D54",
"`%	c #2031AF",
" &	c #2A21AB",
".&	c #1A1A81",
"+&	c #020446",
"@&	c #241769",
"#&	c #1C51C1",
"$&	c #006BE5",
"%&	c #184EBF",
"&&	c #7B7A9C",
"*&	c #7A787E",
"=&	c #9C9B9B",
"-&	c #827D7D",
";&	c #736667",
">&	c #56577B",
",&	c #8A4404",
"'&	c #B0640D",
")&	c #A15106",
"!&	c #803802",
"~&	c #562A45",
"{&	c #362174",
"]&	c #704967",
"^&	c #B4753B",
"/&	c #C78E4E",
"(&	c #C0865B",
"_&	c #976A7C",
":&	c #5460AF",
"<&	c #154BBE",
"[&	c #321071",
"}&	c #4F333D",
"|&	c #513F5C",
"1&	c #3A2D3A",
"2&	c #5B5C82",
"3&	c #9E4F05",
"4&	c #B3600B",
"5&	c #9C4703",
"6&	c #883801",
"7&	c #6F2802",
"8&	c #642803",
"9&	c #B5610B",
"0&	c #E1973F",
"a&	c #E9B463",
"b&	c #E7A447",
"c&	c #DB8003",
"d&	c #BF5F02",
"e&	c #814E6F",
"f&	c #3A47A9",
"g&	c #1D34A4",
"h&	c #2B2387",
"i&	c #3C3A51",
"j&	c #5F5E82",
"k&	c #5E5F85",
"l&	c #4B0803",
"m&	c #7C2F00",
"n&	c #833200",
"o&	c #712100",
"p&	c #641900",
"q&	c #591100",
"r&	c #662201",
"s&	c #A74D02",
"t&	c #CE7718",
"u&	c #DE8F34",
"v&	c #DB8623",
"w&	c #D47A14",
"x&	c #CC6B06",
"y&	c #B25001",
"z&	c #85390D",
"A&	c #5C2D5A",
"B&	c #511D57",
"C&	c #524F6F",
"D&	c #683418",
"E&	c #6F421A",
"F&	c #5F2C09",
"G&	c #562308",
"H&	c #54260A",
"I&	c #593310",
"J&	c #663913",
"K&	c #812E00",
"L&	c #9C4101",
"M&	c #B05102",
"N&	c #B35603",
"O&	c #AB4F02",
"P&	c #9E4502",
"Q&	c #883501",
"R&	c #6C1700",
"S&	c #590100",
"T&	c #5B0400",
"U&	c #95623A",
"V&	c #956139",
"W&	c #9A673D",
"X&	c #9E6C41",
"Y&	c #98653C",
"Z&	c #925E35",
"`&	c #956321",
" *	c #75410C",
".*	c #733204",
"+*	c #712D05",
"@*	c #713305",
"#*	c #6F3808",
"$*	c #6C3C0B",
"%*	c #7A5015",
"&*	c #946D27",
"**	c #90621F",
"=*	c #976828",
"-*	c #A3732C",
";*	c #9C6B26",
">*	c #9E6F28",
",*	c #A3742D",
"'*	c #A6762F",
")*	c #A2722C",
"!*	c #A4752F",
"~*	c #A1742F",
"{*	c #815228",
"                                                                                                    ",
"                                                                                                    ",
"                                              . +                                                   ",
"                                          @ # $ % & *                                               ",
"                                        = - ; > , ' ) ! ~                                           ",
"                                        { ] ^ / ( _ : < [ }                                         ",
"                                        | 1 2 3 4 5 6 7 8 9                                         ",
"                                      0 a b > c d e f g h i j                                       ",
"                                k l m n o p q r s t u v w x y                                       ",
"                                z A B C D E F G H I J K L M N O                                     ",
"                                P Q R S T U V W X Y Z `  ...+.@.#.                                  ",
"                                $.%.&.*.=.-.;.>.,.'.).!.~.{.].^./.(._.                              ",
"                                :.<.[.}.|.1.2.3.      4.5.6.7.8.9.0.a.b.                            ",
"                                  c.d.e.f.g.h.i.j.k.l.m.n.o.p.q.r.s.t.u.                            ",
"                                  v.w.x.y.z.A.B.C.D.E.F.G.H.I.J.K.L.M.N.O.                          ",
"                                  P.Q.R.S.T.U.V.W.X.Y.Z.`. +.+++@+#+$+%+                            ",
"                                &+*+=+-+;+>+,+'+)+!+~+{+]+^+/+(+_+:+<+[+                            ",
"                                }+|+1+2+3+4+5+6+7+8+9+0+a+b+c+d+e+f+g+                              ",
"                                h+i+j+k+l+m+n+o+p+q+r+s+t+u+v+w+x+y+                                ",
"                                  z+A+B+C+D+E+F+G+H+I+J+K+L+M+N+O+P+                                ",
"                                  Q+R+S+T+U+V+W+X+Y+Z+`+ @.@+@@@#@$@                                ",
"                                    %@&@*@=@-@;@>@,@'@)@!@~@{@]@^@/@                                ",
"                                      (@_@:@<@[@}@|@1@2@3@4@5@6@7@                                  ",
"                                        8@9@0@a@b@c@d@e@f@g@h@i@j@                                  ",
"                                        k@l@m@n@o@p@q@r@s@t@u@v@w@                                  ",
"                                        x@y@z@A@B@C@D@E@F@G@H@I@J@K@                                ",
"                                      L@M@N@O@P@Q@R@S@T@U@V@W@X@Y@Z@                                ",
"                                    `@ #.#+#@###$#%#&#*#=#-#;#>#,#'#)#                              ",
"                                    !#~#{#]#^#/#(#_#:#<#[#}#|#1#2#3#4#                              ",
"                                    5#6#7#8#9#0#a#b#c#d#e#f#g#h#i#j#k#l#                            ",
"      m#    n#o#p#q#r#s#t#u#v#w#x#y#z#A#B#C#D#E#F#G#H#I#J#K#L#M#N#O#P#Q#                            ",
"      R#    S#S#T#U#V#W#X#Y#Z#`# $.$+$@$#$$$%$&$*$=$-$;$>$,$'$)$!$~${$]$                            ",
"        ^$/$      ($_$:$<$[$}$|$1$2$3$4$5$6$7$8$9$0$a$b$c$d$e$f$g$h$i$j$k$                          ",
"                    l$m$n$o$p$    q$r$s$t$u$v$w$x$y$z$A$B$C$D$E$F$G$H$I$J$                          ",
"                    K$L$M$N$O$P$    Q$R$S$T$x$U$U$V$W$X$Y$Z$`$`$`$`$ %.%+%@%  #%                    ",
"                                        $%%%&%*%=%-%;%>%,%'%)%`$`$`$!%~%{%]%  ^%                    ",
"                                          /%(%_%:%<%[%}%|%1%2%)%`$`$3%4%5%6%  7%                    ",
"                                          8%9%0%a%b%c%d%e%f%g%h%i%j%k%l%m%    n%                    ",
"                                          o%p%q%r%s%t%u%v%w%x%y%z%A%B%C%D%  E%F%                    ",
"                                        G%H%I%J%K%L%M%N%O%P%Q%R%S%T%U%V%W%  X%                      ",
"                                      Y%Z%`% &.&+&@&#&$&%&&&*&=&-&;&        >&                      ",
"                                  ,&'&)&!&~&{&]&^&/&(&_&:&<&[&}&|&      1&  2&                      ",
"                                  3&4&5&6&7&8&9&0&a&b&c&d&e&f&g&h&      i&j&k&                      ",
"                                l&m&n&o&p&q&r&s&t&u&v&w&x&y&z&A&B&        C&                        ",
"                                D&E&F&G&H&I&J&K&L&M&N&O&P&Q&R&S&T&                                  ",
"                                  U&V&W&X&Y&Z&`& *.*+*@*#*$*%*&***                                  ",
"                                              =*-*;*>*,*'*)*!*~*{*                                  ",
"                                                                                                    ",
"                                                                                                    ",
"                                                                                                    "};
