/* XPM */
static char * D:\Downloads\Downloads\mario16_xpm[] = {
"50 50 763 2",
"  	c #FF000000",
". 	c #A33B39",
"+ 	c #A13736",
"@ 	c #E45959",
"# 	c #FA6564",
"$ 	c #FE5F5E",
"% 	c #FE6D6D",
"& 	c #F76C6C",
"* 	c #CC4A47",
"= 	c #C5403E",
"- 	c #FD6463",
"; 	c #FF6868",
"> 	c #FF6563",
", 	c #FFB1B1",
"' 	c #FFE4E4",
") 	c #FFE6E5",
"! 	c #FFB6B3",
"~ 	c #CC524D",
"{ 	c #C02E2C",
"] 	c #FF5D5B",
"^ 	c #FF6867",
"/ 	c #FF605E",
"( 	c #FF9796",
"_ 	c #FDF3F3",
": 	c #EAB0AD",
"< 	c #EDB9B6",
"[ 	c #EFB7B4",
"} 	c #FAA09D",
"| 	c #FA4240",
"1 	c #FF5956",
"2 	c #FF605D",
"3 	c #FF5350",
"4 	c #FFAEAD",
"5 	c #F6DCDA",
"6 	c #E38680",
"7 	c #EDB1AE",
"8 	c #E3908B",
"9 	c #FC8B88",
"0 	c #D3181C",
"a 	c #FB3F3E",
"b 	c #FC4D4A",
"c 	c #FE4C4A",
"d 	c #FF3D39",
"e 	c #FA7675",
"f 	c #F4CDCC",
"g 	c #F4C4C2",
"h 	c #FBB4B2",
"i 	c #F75D5B",
"j 	c #DD6B6A",
"k 	c #D7131A",
"l 	c #F02F2F",
"m 	c #F53534",
"n 	c #F63230",
"o 	c #F0221F",
"p 	c #DE0000",
"q 	c #F17E7E",
"r 	c #FF8B8B",
"s 	c #FC6561",
"t 	c #DF534B",
"u 	c #A33934",
"v 	c #A75C5E",
"w 	c #CC9FA0",
"x 	c #DAAEAB",
"y 	c #E2B1AD",
"z 	c #A0060F",
"A 	c #C90E16",
"B 	c #D8151B",
"C 	c #D8151A",
"D 	c #CD0F15",
"E 	c #C60A12",
"F 	c #EE4143",
"G 	c #FC4C4A",
"H 	c #E23938",
"I 	c #9D2117",
"J 	c #753A26",
"K 	c #7D6758",
"L 	c #8D615D",
"M 	c #C4A295",
"N 	c #D9C2AE",
"O 	c #EBC6BB",
"P 	c #70050E",
"Q 	c #A10713",
"R 	c #BC0A13",
"S 	c #C20B13",
"T 	c #B80912",
"U 	c #9F0610",
"V 	c #CC161E",
"W 	c #DA282D",
"X 	c #9C0C10",
"Y 	c #520201",
"Z 	c #423227",
"` 	c #876850",
" .	c #A2896E",
"..	c #836E5B",
"+.	c #B9A889",
"@.	c #B19D78",
"#.	c #D4A492",
"$.	c #62070D",
"%.	c #72030F",
"&.	c #860614",
"*.	c #A20715",
"=.	c #AF0712",
"-.	c #A80712",
";.	c #920511",
">.	c #91060D",
",.	c #91070A",
"'.	c #470002",
").	c #000001",
"!.	c #490208",
"~.	c #773330",
"{.	c #8E5B44",
"].	c #987A5E",
"^.	c #A4967E",
"/.	c #AFA68A",
"(.	c #7B7354",
"_.	c #9D7361",
":.	c #59080C",
"<.	c #6B040E",
"[.	c #790612",
"}.	c #8C0714",
"|.	c #9B0715",
"1.	c #990714",
"2.	c #870613",
"3.	c #6D080D",
"4.	c #530706",
"5.	c #000000",
"6.	c #140002",
"7.	c #2C0303",
"8.	c #583629",
"9.	c #583E2B",
"0.	c #988E7E",
"a.	c #888377",
"b.	c #5C4C42",
"c.	c #886965",
"d.	c #5E020A",
"e.	c #6D0510",
"f.	c #71000C",
"g.	c #760007",
"h.	c #7B0005",
"i.	c #79020E",
"j.	c #64080C",
"k.	c #3B090B",
"l.	c #57070F",
"m.	c #AD422A",
"n.	c #B84932",
"o.	c #921E08",
"p.	c #76170A",
"q.	c #590A05",
"r.	c #520B05",
"s.	c #714B42",
"t.	c #54534F",
"u.	c #494848",
"v.	c #110A0B",
"w.	c #570F12",
"x.	c #62030D",
"y.	c #60010A",
"z.	c #7A3333",
"A.	c #B26156",
"B.	c #B15F55",
"C.	c #6E221D",
"D.	c #86190B",
"E.	c #6E1B1B",
"F.	c #080135",
"G.	c #75364D",
"H.	c #DD8471",
"I.	c #EA927E",
"J.	c #CB5D49",
"K.	c #BF4835",
"L.	c #AE3C24",
"M.	c #8A5253",
"N.	c #4A4A4C",
"O.	c #534344",
"P.	c #090204",
"Q.	c #5A020A",
"R.	c #650E11",
"S.	c #BC573E",
"T.	c #BE644A",
"U.	c #CC7562",
"V.	c #C96B5C",
"W.	c #BC320C",
"X.	c #A63B25",
"Y.	c #541828",
"Z.	c #00001A",
"`.	c #6A2A2F",
" +	c #C58776",
".+	c #CE6F5E",
"++	c #A95140",
"@+	c #5F2618",
"#+	c #5F3930",
"$+	c #6A4A47",
"%+	c #48292A",
"&+	c #493836",
"*+	c #4A0206",
"=+	c #903A24",
"-+	c #CA5D34",
";+	c #B14B18",
">+	c #944F2E",
",+	c #CB5A40",
"'+	c #D54517",
")+	c #A65348",
"!+	c #BAB0B3",
"~+	c #83606A",
"{+	c #E41115",
"]+	c #A13D3E",
"^+	c #C98D84",
"/+	c #9C7863",
"(+	c #905644",
"_+	c #E11C1A",
":+	c #AA9B97",
"<+	c #7A6264",
"[+	c #AD6153",
"}+	c #EDDAC4",
"|+	c #924320",
"1+	c #CC5C35",
"2+	c #A94416",
"3+	c #8B3F10",
"4+	c #B55636",
"5+	c #D15F4D",
"6+	c #CD644D",
"7+	c #B9756E",
"8+	c #A57F83",
"9+	c #975557",
"0+	c #CA8176",
"a+	c #FEDED6",
"b+	c #FFEADF",
"c+	c #EDD5C1",
"d+	c #CD9B8A",
"e+	c #A0695D",
"f+	c #C77763",
"g+	c #D5966D",
"h+	c #F1DBB9",
"i+	c #D36439",
"j+	c #C75729",
"k+	c #A44515",
"l+	c #B05636",
"m+	c #D47466",
"n+	c #E8A293",
"o+	c #ECAB9D",
"p+	c #DD9486",
"q+	c #E8A89B",
"r+	c #FCC7B7",
"s+	c #F2D3C8",
"t+	c #FEECE8",
"u+	c #FEF5F0",
"v+	c #FFEEE6",
"w+	c #F9CCBE",
"x+	c #E3B999",
"y+	c #D29D6D",
"z+	c #D7B98D",
"A+	c #C75F32",
"B+	c #D76539",
"C+	c #B65930",
"D+	c #C65432",
"E+	c #C35F5C",
"F+	c #CF9897",
"G+	c #E5B5AE",
"H+	c #E8B1AA",
"I+	c #E9B6AF",
"J+	c #E5AFA6",
"K+	c #C77F6C",
"L+	c #F8B3A2",
"M+	c #FFD0C3",
"N+	c #FFCDB9",
"O+	c #FFDDCB",
"P+	c #EFD8BE",
"Q+	c #C58E66",
"R+	c #8D4510",
"S+	c #C75E2E",
"T+	c #CB5D33",
"U+	c #CA5A27",
"V+	c #9F4343",
"W+	c #35186A",
"X+	c #472C73",
"Y+	c #482D72",
"Z+	c #472B6F",
"`+	c #493073",
" @	c #59356F",
".@	c #A9675D",
"+@	c #E2BBA8",
"@@	c #E9C9AD",
"#@	c #E6D2B9",
"$@	c #BAAAA1",
"%@	c #9D8677",
"&@	c #4D0E01",
"*@	c #783E0C",
"=@	c #844511",
"-@	c #754012",
";@	c #A2511F",
">@	c #4E1B40",
",@	c #3E3273",
"'@	c #3A3376",
")@	c #020E52",
"!@	c #020F5B",
"~@	c #202568",
"{@	c #34345B",
"]@	c #7C7972",
"^@	c #8F8A84",
"/@	c #6A656B",
"(@	c #5B5654",
"_@	c #500F02",
":@	c #401106",
"<@	c #3E1015",
"[@	c #69363D",
"}@	c #6A352A",
"|@	c #541325",
"1@	c #5D1534",
"2@	c #933E32",
"3@	c #C86247",
"4@	c #C76146",
"5@	c #BB4924",
"6@	c #993411",
"7@	c #967060",
"8@	c #48352C",
"9@	c #520707",
"0@	c #800610",
"a@	c #AF0C15",
"b@	c #B50715",
"c@	c #970F3C",
"d@	c #711760",
"e@	c #C44938",
"f@	c #E97E63",
"g@	c #FEC9B1",
"h@	c #FED9BB",
"i@	c #FAB27E",
"j@	c #E78951",
"k@	c #D7996E",
"l@	c #830610",
"m@	c #C0121C",
"n@	c #B81739",
"o@	c #CE1D37",
"p@	c #D51216",
"q@	c #B21E68",
"r@	c #8C5398",
"s@	c #CF7373",
"t@	c #E39D86",
"u@	c #EBB391",
"v@	c #EA9F67",
"w@	c #EABA8A",
"x@	c #CDB09F",
"y@	c #6F060D",
"z@	c #B60D16",
"A@	c #D21018",
"B@	c #CF1221",
"C@	c #D42749",
"D@	c #D33753",
"E@	c #F1382D",
"F@	c #7C62AE",
"G@	c #5E88D7",
"H@	c #8181C2",
"I@	c #B06581",
"J@	c #EC5624",
"K@	c #E37E64",
"L@	c #D6D5C1",
"M@	c #AC0A15",
"N@	c #F03234",
"O@	c #F84747",
"P@	c #EB4847",
"Q@	c #EC959A",
"R@	c #E4A7A9",
"S@	c #F26C5D",
"T@	c #C05984",
"U@	c #4790E7",
"V@	c #639CDF",
"W@	c #7391D4",
"X@	c #ED6165",
"Y@	c #FE5605",
"Z@	c #CC847D",
"`@	c #D1D7C8",
" #	c #D63100",
".#	c #770B13",
"+#	c #CF242C",
"@#	c #FF5555",
"##	c #FD6566",
"$#	c #F09EA3",
"%#	c #E1ACAF",
"&#	c #A03D3B",
"*#	c #DD210E",
"=#	c #AF428A",
"-#	c #7E9EB2",
";#	c #EAE446",
">#	c #CDD57B",
",#	c #A885A9",
"'#	c #D47384",
")#	c #AC7C90",
"!#	c #8C9988",
"~#	c #E2D893",
"{#	c #87050E",
"]#	c #E03235",
"^#	c #FF6161",
"/#	c #FE8C8C",
"(#	c #EEC4C6",
"_#	c #A35C5F",
":#	c #702055",
"<#	c #7950A1",
"[#	c #3458CB",
"}#	c #929974",
"|#	c #F0E841",
"1#	c #EEE43B",
"2#	c #7E9DBA",
"3#	c #5289D8",
"4#	c #586183",
"5#	c #514E5E",
"6#	c #7B7A79",
"7#	c #644647",
"8#	c #920708",
"9#	c #E32426",
"0#	c #FE6E6E",
"a#	c #FE9495",
"b#	c #E1AEAE",
"c#	c #522F6D",
"d#	c #183CA6",
"e#	c #1C60D3",
"f#	c #5070CB",
"g#	c #7782AB",
"h#	c #7E849F",
"i#	c #7B7F95",
"j#	c #6B739D",
"k#	c #6D75A1",
"l#	c #777FA5",
"m#	c #666887",
"n#	c #606886",
"o#	c #5A3A3B",
"p#	c #900000",
"q#	c #E14144",
"r#	c #FF6565",
"s#	c #FA9292",
"t#	c #D1979C",
"u#	c #554C7D",
"v#	c #142F9F",
"w#	c #3353C3",
"x#	c #737FB0",
"y#	c #767FA9",
"z#	c #64678F",
"A#	c #525375",
"B#	c #43425D",
"C#	c #42405B",
"D#	c #4B4B67",
"E#	c #575271",
"F#	c #414163",
"G#	c #4C4C6B",
"H#	c #808CBA",
"I#	c #8A98C7",
"J#	c #8B98C8",
"K#	c #8A99C8",
"L#	c #8797C5",
"M#	c #8394C1",
"N#	c #8191BD",
"O#	c #8494C0",
"P#	c #8696C3",
"Q#	c #8897C4",
"R#	c #8999C6",
"S#	c #C2CFD8",
"T#	c #ECC8B2",
"U#	c #74595A",
"V#	c #C1A2A4",
"W#	c #EFD5D5",
"X#	c #F7E0E0",
"Y#	c #EEC5C5",
"Z#	c #B9959A",
"`#	c #473B7D",
" $	c #4B3988",
".$	c #68486B",
"+$	c #676B89",
"@$	c #5C5B80",
"#$	c #545173",
"$$	c #48435E",
"%$	c #443B55",
"&$	c #4A4A61",
"*$	c #4E526B",
"=$	c #4A4766",
"-$	c #484E77",
";$	c #4C506E",
">$	c #423C58",
",$	c #423B59",
"'$	c #3B3958",
")$	c #47394F",
"!$	c #5B414B",
"~$	c #5B3F49",
"{$	c #583A46",
"]$	c #4D394A",
"^$	c #423D5A",
"/$	c #443F5C",
"($	c #B0B1B6",
"_$	c #6F5151",
":$	c #897778",
"<$	c #D4D2D2",
"[$	c #DBDCDC",
"}$	c #D8DBDB",
"|$	c #D6DFDE",
"1$	c #BDC0C1",
"2$	c #4C4581",
"3$	c #72464A",
"4$	c #653B29",
"5$	c #4F4862",
"6$	c #554B6A",
"7$	c #46405D",
"8$	c #45405A",
"9$	c #453F59",
"0$	c #505370",
"a$	c #4F5370",
"b$	c #3E3A57",
"c$	c #4C5684",
"d$	c #525772",
"e$	c #2D283C",
"f$	c #391F2E",
"g$	c #683F35",
"h$	c #6C4131",
"i$	c #754B3E",
"j$	c #7A4733",
"k$	c #774639",
"l$	c #593C3D",
"m$	c #252039",
"n$	c #34374C",
"o$	c #704C49",
"p$	c #7A6E6E",
"q$	c #D2D4D3",
"r$	c #F3F4F4",
"s$	c #FDFDFD",
"t$	c #F4F3F2",
"u$	c #DDDEDD",
"v$	c #A4A3B9",
"w$	c #6F5791",
"x$	c #7F5E6E",
"y$	c #706677",
"z$	c #605570",
"A$	c #4A3E62",
"B$	c #4C4763",
"C$	c #4A4361",
"D$	c #42405A",
"E$	c #45425D",
"F$	c #494762",
"G$	c #596891",
"H$	c #555974",
"I$	c #794A37",
"J$	c #673C30",
"K$	c #633832",
"L$	c #66382C",
"M$	c #653828",
"N$	c #726D92",
"O$	c #4F2712",
"P$	c #571C11",
"Q$	c #9B9090",
"R$	c #EDECEC",
"S$	c #FFFFFF",
"T$	c #DDD1CF",
"U$	c #D6D5DE",
"V$	c #7472A2",
"W$	c #371765",
"X$	c #4A3E52",
"Y$	c #534963",
"Z$	c #4D415C",
"`$	c #48375E",
" %	c #4C4460",
".%	c #4D435E",
"+%	c #4C425D",
"@%	c #4B4F68",
"#%	c #697CA2",
"$%	c #543534",
"%%	c #744535",
"&%	c #603628",
"*%	c #673B2F",
"=%	c #673C31",
"-%	c #633827",
";%	c #4A3B56",
">%	c #3D2127",
",%	c #561E1E",
"'%	c #B7AEAE",
")%	c #FBFCFC",
"!%	c #F1EDED",
"~%	c #FEFEFE",
"{%	c #F2F2F3",
"]%	c #BEBDCE",
"^%	c #100871",
"/%	c #403E51",
"(%	c #464555",
"_%	c #4B4C59",
":%	c #2A2454",
"<%	c #343165",
"[%	c #353363",
"}%	c #302A5F",
"|%	c #4A415C",
"1%	c #3B1619",
"2%	c #653D3B",
"3%	c #B4ACAC",
"4%	c #F6F7F7",
"5%	c #F5F2F2",
"6%	c #EEEEEE",
"7%	c #C4C4C3",
"8%	c #BCBCC3",
"9%	c #3D397F",
"0%	c #51546F",
"a%	c #616974",
"b%	c #5F6773",
"c%	c #363567",
"d%	c #1C1756",
"e%	c #1D1660",
"f%	c #4D4765",
"g%	c #602F28",
"h%	c #A19898",
"i%	c #D6D6D6",
"j%	c #E5E5E5",
"k%	c #E4E2E2",
"l%	c #E6E6E6",
"m%	c #CACACA",
"n%	c #898984",
"o%	c #848488",
"p%	c #414A9A",
"q%	c #545B8E",
"r%	c #5E6682",
"s%	c #5B607B",
"t%	c #292A66",
"u%	c #1E1381",
"v%	c #281DA0",
"w%	c #4E4C6D",
"x%	c #4B4765",
"y%	c #5C241A",
"z%	c #827272",
"A%	c #A6A4A4",
"B%	c #B8B9B9",
"C%	c #B4B2B2",
"D%	c #AEAEAE",
"E%	c #B6B6B7",
"F%	c #9797A0",
"G%	c #363987",
"H%	c #235DE0",
"I%	c #4468D4",
"J%	c #3C4EA4",
"K%	c #23254F",
"L%	c #1B1372",
"M%	c #2013A2",
"N%	c #2925BC",
"O%	c #4E4C6C",
"P%	c #512A2E",
"Q%	c #6A4B4A",
"R%	c #837A7A",
"S%	c #999999",
"T%	c #9C9596",
"U%	c #ADADAC",
"V%	c #AEAEAC",
"W%	c #A3A3B3",
"X%	c #1428A6",
"Y%	c #1E5DE6",
"Z%	c #2053D4",
"`%	c #122586",
" &	c #0B083F",
".&	c #241982",
"+&	c #2317AF",
"@&	c #292FC5",
"#&	c #9C86A5",
"$&	c #56577B",
"%&	c #736667",
"&&	c #7B7170",
"*&	c #9B9A9A",
"=&	c #7A787E",
"-&	c #7B7A9C",
";&	c #184EBF",
">&	c #006BE5",
",&	c #2555BA",
"'&	c #382E75",
")&	c #020446",
"!&	c #1A1A81",
"~&	c #2A21AB",
"{&	c #2233B0",
"]&	c #76537D",
"^&	c #B08A7E",
"/&	c #5B5C82",
"(&	c #3A2D3A",
"_&	c #513F5C",
":&	c #4F333D",
"<&	c #321170",
"[&	c #1749B8",
"}&	c #545EA9",
"|&	c #926678",
"1&	c #C0865B",
"2&	c #C78E4E",
"3&	c #B4753B",
"4&	c #704967",
"5&	c #362174",
"6&	c #562A45",
"7&	c #853E0B",
"8&	c #B5773C",
"9&	c #D7B083",
"0&	c #D9C2AC",
"a&	c #5E5F85",
"b&	c #5F5E82",
"c&	c #3C3A51",
"d&	c #2B2387",
"e&	c #1D34A4",
"f&	c #3A47A9",
"g&	c #814E6F",
"h&	c #BF5F02",
"i&	c #DB8003",
"j&	c #E7A447",
"k&	c #E9B463",
"l&	c #E1973F",
"m&	c #B5610B",
"n&	c #642803",
"o&	c #6F2802",
"p&	c #883801",
"q&	c #A04F0F",
"r&	c #CF9A60",
"s&	c #D8B587",
"t&	c #524F6F",
"u&	c #511D57",
"v&	c #5C2D5A",
"w&	c #85390D",
"x&	c #B25001",
"y&	c #CC6B06",
"z&	c #D47A14",
"A&	c #DB8623",
"B&	c #DE8F34",
"C&	c #CE7718",
"D&	c #A74D02",
"E&	c #662201",
"F&	c #591100",
"G&	c #641900",
"H&	c #712100",
"I&	c #944C18",
"J&	c #CBA572",
"K&	c #CBAE84",
"L&	c #5B0400",
"M&	c #590100",
"N&	c #6C1700",
"O&	c #883501",
"P&	c #9E4502",
"Q&	c #AB4F02",
"R&	c #B35603",
"S&	c #B05102",
"T&	c #9C4101",
"U&	c #812E00",
"V&	c #663913",
"W&	c #593310",
"X&	c #54260A",
"Y&	c #562308",
"Z&	c #643109",
"`&	c #AF9161",
" *	c #BEA172",
".*	c #90621F",
"+*	c #946D27",
"@*	c #7A5015",
"#*	c #6C3C0B",
"$*	c #6F3808",
"%*	c #713305",
"&*	c #712D05",
"**	c #733204",
"=*	c #75410C",
"-*	c #956321",
";*	c #925E35",
">*	c #98653C",
",*	c #9E6C41",
"'*	c #9A673D",
")*	c #956139",
"!*	c #A4774C",
"~*	c #815228",
"{*	c #A1742F",
"]*	c #A4752F",
"^*	c #A2722C",
"/*	c #A6762F",
"(*	c #A3742D",
"_*	c #9E6F28",
":*	c #9C6B26",
"<*	c #A3732C",
"[*	c #976828",
"                                                                                                    ",
"                                                                                                    ",
"                                              . +                                                   ",
"                                          @ # $ % & *                                               ",
"                                      = - ; > , ' ) ! ~                                             ",
"                                    { ] ^ / ( _ : < [ }                                             ",
"                                    | 1 2 3 4 5 6 7 8 9                                             ",
"                                  0 a b c d e f g ' h i j                                           ",
"                                  k l m n o p q r s t u v w x y                                     ",
"                                z A B C D E F G H I J K L M N O                                     ",
"                              P Q R S T U V W X Y Z `  ...+.@.#.                                    ",
"                          $.%.&.*.=.-.;.>.,.'.).!.~.{.].^./.(._.                                    ",
"                        :.<.[.}.|.1.2.3.4.5.5.5.6.7.8.9.0.a.b.c.                                    ",
"                        d.e.f.g.h.i.j.k.l.m.n.o.p.q.r.s.t.u.v.                                      ",
"                      w.x.y.z.A.B.C.D.E.F.G.H.I.J.K.L.M.N.O.P.                                      ",
"                        Q.R.S.T.U.V.W.X.Y.Z.`. +.+++@+#+$+%+&+                                      ",
"                        *+=+-+;+>+,+'+)+!+~+{+]+^+/+(+_+:+<+[+}+                                    ",
"                          |+1+2+3+4+5+6+7+8+9+0+a+b+c+d+e+f+g+h+                                    ",
"                            i+j+k+l+m+n+o+p+q+r+s+t+u+v+w+x+y+z+                                    ",
"                            A+B+C+D+E+F+G+H+I+J+K+L+M+N+O+P+Q+                                      ",
"                            R+S+T+U+V+W+X+Y+Z+`+ @.@+@@@#@$@%@                                      ",
"                            &@*@=@-@;@>@,@'@)@!@~@{@]@^@/@(@                                        ",
"                              _@:@<@[@}@|@1@2@3@4@5@6@7@8@                                          ",
"                              9@0@a@b@c@d@e@f@g@h@i@j@k@                                            ",
"                              l@m@n@o@p@q@r@s@t@u@v@w@x@                                            ",
"                            y@z@A@B@C@D@E@F@G@H@I@J@K@L@                                            ",
"                            M@N@O@P@Q@R@S@T@U@V@W@X@Y@Z@`@                                 #        ",
"                          .#+#@###$#%#&#*#=#-#;#>#,#'#)#!#~#                                        ",
"                          {#]#^#/#(#_#:#<#[#}#|#1#2#3#4#5#6#                                        ",
"                        7#8#9#0#a#b#c#d#e#f#g#h#i#j#k#l#m#n#                                        ",
"                        o#p#q#r#s#t#u#v#w#x#y#z#A#B#C#D#E#F#G#H#I#J#K#L#M#N#O#P#Q#R#    S#T#        ",
"                        U#V#W#X#Y#Z#`# $.$+$@$#$$$%$&$*$=$-$;$>$,$'$)$!$~${$]$^$/$/$    ($          ",
"                      _$:$<$[$}$|$1$2$3$4$5$6$7$8$9$0$a$b$c$d$e$f$g$h$i$j$k$l$      m$n$            ",
"                      o$p$q$r$s$t$u$v$w$x$y$z$A$B$C$D$E$F$G$H$    I$J$K$L$M$                        ",
"                N$  O$P$Q$R$S$T$S$S$U$V$W$X$Y$Z$`$ %.%+%@%#%    $%%%&%*%=%-%                        ",
"                ;%  >%,%'%)%S$!%S$~%{%]%^%/%(%_%:%<%[%}%                                            ",
"                |%  1%2%3%4%S$5%~%6%7%8%9%0%a%b%c%d%e%                                              ",
"                f%    g%h%i%j%k%l%m%n%o%p%q%r%s%t%u%v%                                              ",
"                w%x%  y%z%A%B%C%D%E%F%G%H%I%J%K%L%M%N%                                              ",
"                  O%  P%Q%R%S%T%U%V%W%X%Y%Z%`% &.&+&@&#&                                            ",
"                  $&        %&&&*&=&-&;&>&,&'&)&!&~&{&]&^&                                          ",
"                  /&  (&      _&:&<&[&}&|&1&2&3&4&5&6&7&8&9&0&                                      ",
"                  a&b&c&      d&e&f&g&h&i&j&k&l&m&n&o&p&q&r&s&                                      ",
"                    t&        u&v&w&x&y&z&A&B&C&D&E&F&G&H&I&J&K&                                    ",
"                              L&M&N&O&P&Q&R&S&T&U&V&W&X&Y&Z&`& *                                    ",
"                              .*+*@*#*$*%*&***=*-*;*>*,*'*)*!*                                      ",
"                              ~*{*]*^*/*(*_*:*<*[*                                                  ",
"                                                                                                    ",
"                                                                                                    ",
"                                                                                                    "};
