/* XPM */
static char * D:\Downloads\Downloads\mario1_xpm[] = {
"50 50 756 2",
"  	c #FF000000",
". 	c #A33B39",
"+ 	c #A13736",
"@ 	c #E45959",
"# 	c #FA6564",
"$ 	c #FE5F5E",
"% 	c #FE6D6D",
"& 	c #F76C6C",
"* 	c #CC4A47",
"= 	c #C5403E",
"- 	c #FD6463",
"; 	c #FF6868",
"> 	c #FF6563",
", 	c #FFB1B1",
"' 	c #FFE4E4",
") 	c #FFE6E5",
"! 	c #FFB6B3",
"~ 	c #CC524D",
"{ 	c #C02E2C",
"] 	c #FF5D5B",
"^ 	c #FF6867",
"/ 	c #FF605E",
"( 	c #FF9796",
"_ 	c #FDF3F3",
": 	c #EAB0AD",
"< 	c #EDB9B6",
"[ 	c #EFB7B4",
"} 	c #FAA09D",
"| 	c #FA4240",
"1 	c #FF5956",
"2 	c #FF605D",
"3 	c #FF5350",
"4 	c #FFAEAD",
"5 	c #F6DCDA",
"6 	c #E38680",
"7 	c #EDB1AE",
"8 	c #E3908B",
"9 	c #FC8B88",
"0 	c #D3181C",
"a 	c #FB3F3E",
"b 	c #FC4D4A",
"c 	c #FE4C4A",
"d 	c #FF3D39",
"e 	c #FA7675",
"f 	c #F4CDCC",
"g 	c #F4C4C2",
"h 	c #FBB4B2",
"i 	c #F75C59",
"j 	c #D23B39",
"k 	c #D7131A",
"l 	c #F02F2F",
"m 	c #F53534",
"n 	c #F63230",
"o 	c #F0221F",
"p 	c #DE0000",
"q 	c #F17E7E",
"r 	c #FF8B8B",
"s 	c #FC6362",
"t 	c #DE4F4D",
"u 	c #9E2F2F",
"v 	c #81161A",
"w 	c #821318",
"x 	c #9B2426",
"y 	c #B53D3B",
"z 	c #A0060F",
"A 	c #C90E16",
"B 	c #D8151B",
"C 	c #D8151A",
"D 	c #CD0F15",
"E 	c #C60A12",
"F 	c #EE4143",
"G 	c #FC4C4A",
"H 	c #E13838",
"I 	c #971718",
"J 	c #480000",
"K 	c #200003",
"L 	c #450006",
"M 	c #570109",
"N 	c #530007",
"O 	c #B33535",
"P 	c #70050E",
"Q 	c #A10713",
"R 	c #BC0A13",
"S 	c #C20B13",
"T 	c #B80912",
"U 	c #9F0610",
"V 	c #CC161E",
"W 	c #DA282D",
"X 	c #9C0C10",
"Y 	c #510001",
"Z 	c #110003",
"` 	c #2E0307",
" .	c #2D0306",
"..	c #1F0306",
"+.	c #220306",
"@.	c #200106",
"#.	c #8A1216",
"$.	c #62070D",
"%.	c #72030F",
"&.	c #860614",
"*.	c #A20715",
"=.	c #AF0712",
"-.	c #A80712",
";.	c #920511",
">.	c #91060D",
",.	c #91070A",
"'.	c #470002",
").	c #000001",
"!.	c #490208",
"~.	c #57040C",
"{.	c #4B0308",
"].	c #330305",
"^.	c #170306",
"/.	c #0A0305",
"(.	c #050305",
"_.	c #490406",
":.	c #59080C",
"<.	c #6B040E",
"[.	c #790612",
"}.	c #8C0714",
"|.	c #9B0715",
"1.	c #990714",
"2.	c #870613",
"3.	c #6D080D",
"4.	c #530706",
"5.	c #000000",
"6.	c #140002",
"7.	c #2A0103",
"8.	c #280104",
"9.	c #1F0205",
"0.	c #0F0205",
"a.	c #060205",
"b.	c #160205",
"c.	c #370508",
"d.	c #5E020A",
"e.	c #6D0510",
"f.	c #71000C",
"g.	c #760007",
"h.	c #7B0005",
"i.	c #79020E",
"j.	c #64080C",
"k.	c #3B090B",
"l.	c #57070F",
"m.	c #AD422A",
"n.	c #B84932",
"o.	c #921E08",
"p.	c #76170A",
"q.	c #590A05",
"r.	c #4C0504",
"s.	c #380406",
"t.	c #020206",
"u.	c #030305",
"v.	c #0A0205",
"w.	c #570F12",
"x.	c #62030D",
"y.	c #60010A",
"z.	c #7A3333",
"A.	c #B26156",
"B.	c #B15F55",
"C.	c #6E221D",
"D.	c #86190B",
"E.	c #6E1B1B",
"F.	c #080135",
"G.	c #75364D",
"H.	c #DD8471",
"I.	c #EA927E",
"J.	c #CB5D49",
"K.	c #BF4735",
"L.	c #A72D18",
"M.	c #570913",
"N.	c #000007",
"O.	c #180204",
"P.	c #090204",
"Q.	c #5A020A",
"R.	c #650E11",
"S.	c #BC573E",
"T.	c #BE644A",
"U.	c #CC7562",
"V.	c #C96B5C",
"W.	c #BC320C",
"X.	c #A63B25",
"Y.	c #541828",
"Z.	c #00001A",
"`.	c #4F3237",
" +	c #C58776",
".+	c #CE6F5E",
"++	c #A74E42",
"@+	c #52181A",
"#+	c #24010C",
"$+	c #320911",
"%+	c #2E0B0D",
"&+	c #150001",
"*+	c #4A0206",
"=+	c #903A24",
"-+	c #CA5D34",
";+	c #B14B18",
">+	c #944F2E",
",+	c #CB5A40",
"'+	c #D54517",
")+	c #A65348",
"!+	c #BAB0B3",
"~+	c #83606A",
"{+	c #91444C",
"]+	c #835151",
"^+	c #C98D84",
"/+	c #987567",
"(+	c #755655",
"_+	c #924D54",
":+	c #A599A0",
"<+	c #6B5054",
"[+	c #780100",
"}+	c #B17365",
"|+	c #924320",
"1+	c #CC5C35",
"2+	c #A94416",
"3+	c #8B3F10",
"4+	c #B55636",
"5+	c #D15F4D",
"6+	c #CD644D",
"7+	c #B9756E",
"8+	c #A57F83",
"9+	c #975557",
"0+	c #CA8176",
"a+	c #FEDED6",
"b+	c #FFEAE2",
"c+	c #ECD5CC",
"d+	c #C5A8A0",
"e+	c #9E675F",
"f+	c #B95645",
"g+	c #B44F43",
"h+	c #B15E45",
"i+	c #D36439",
"j+	c #C75729",
"k+	c #A44515",
"l+	c #B05636",
"m+	c #D47466",
"n+	c #E8A293",
"o+	c #ECAB9D",
"p+	c #DD9486",
"q+	c #E8A89B",
"r+	c #FCC7B7",
"s+	c #F2D3C8",
"t+	c #FEECE8",
"u+	c #FEF5F2",
"v+	c #FFEEE8",
"w+	c #F7BFAD",
"x+	c #C26F52",
"y+	c #A2483D",
"z+	c #7E3515",
"A+	c #C75F32",
"B+	c #D76539",
"C+	c #B65930",
"D+	c #C65432",
"E+	c #C35F5C",
"F+	c #CF9897",
"G+	c #E5B5AE",
"H+	c #E8B1AA",
"I+	c #E9B6AF",
"J+	c #E5AFA6",
"K+	c #C77F6C",
"L+	c #F8B3A2",
"M+	c #FFD0C4",
"N+	c #FFCBBC",
"O+	c #FFB69F",
"P+	c #B45F41",
"Q+	c #750300",
"R+	c #8D4510",
"S+	c #C75E2E",
"T+	c #CB5D33",
"U+	c #CA5A27",
"V+	c #9F4343",
"W+	c #35186A",
"X+	c #472C73",
"Y+	c #482D72",
"Z+	c #472B6F",
"`+	c #493073",
" @	c #59356F",
".@	c #944237",
"+@	c #B55839",
"@@	c #B96346",
"#@	c #8C4731",
"$@	c #270112",
"%@	c #2F050C",
"&@	c #4D0E01",
"*@	c #783E0C",
"=@	c #844511",
"-@	c #754012",
";@	c #A2511F",
">@	c #4E1B40",
",@	c #3E3273",
"'@	c #3A3376",
")@	c #020E52",
"!@	c #020F5B",
"~@	c #202568",
"{@	c #000133",
"]@	c #000005",
"^@	c #000020",
"/@	c #00002D",
"(@	c #0A0613",
"_@	c #500F02",
":@	c #401106",
"<@	c #3E1015",
"[@	c #69363D",
"}@	c #6A352A",
"|@	c #541325",
"1@	c #5D1534",
"2@	c #933E32",
"3@	c #C75F48",
"4@	c #C45C49",
"5@	c #B53D27",
"6@	c #8E2312",
"7@	c #40040D",
"8@	c #180409",
"9@	c #520707",
"0@	c #800610",
"a@	c #AF0C15",
"b@	c #B50715",
"c@	c #970F3C",
"d@	c #711760",
"e@	c #C44938",
"f@	c #E97D64",
"g@	c #FEC8BD",
"h@	c #FEDAD4",
"i@	c #F8AB9D",
"j@	c #DB5E45",
"k@	c #A52801",
"l@	c #830610",
"m@	c #C0121C",
"n@	c #B81739",
"o@	c #CE1D37",
"p@	c #D51216",
"q@	c #B21E68",
"r@	c #8C5398",
"s@	c #CF7274",
"t@	c #E19A90",
"u@	c #E8AFA7",
"v@	c #E59183",
"w@	c #C8615F",
"x@	c #854D70",
"y@	c #6F060D",
"z@	c #B60D16",
"A@	c #D21018",
"B@	c #CF1221",
"C@	c #D21F42",
"D@	c #CC1637",
"E@	c #F02F24",
"F@	c #7C62AE",
"G@	c #5E87D7",
"H@	c #7E7EC7",
"I@	c #A95C8B",
"J@	c #E93F2A",
"K@	c #D4455C",
"L@	c #6781CB",
"M@	c #AC0A15",
"N@	c #F03234",
"O@	c #F84747",
"P@	c #E82B2A",
"Q@	c #D61924",
"R@	c #B51117",
"S@	c #EC240E",
"T@	c #C05984",
"U@	c #4790E7",
"V@	c #639CDF",
"W@	c #7191D7",
"X@	c #EB586D",
"Y@	c #FE3E06",
"Z@	c #B86097",
"`@	c #5687CA",
" #	c #770B13",
".#	c #CF242C",
"+#	c #FF5555",
"@#	c #FC5253",
"##	c #DD2831",
"$#	c #A60B14",
"%#	c #840502",
"&#	c #DB1602",
"*#	c #AF428A",
"=#	c #7E9EB2",
"-#	c #EAE446",
";#	c #CDD57B",
">#	c #A683AE",
",#	c #D06A92",
"'#	c #9B6BAC",
")#	c #718A9F",
"!#	c #B8A92A",
"~#	c #87050E",
"{#	c #E03235",
"]#	c #FF6161",
"^#	c #FE5758",
"/#	c #C1242D",
"(#	c #710409",
"_#	c #6A174D",
":#	c #7950A1",
"<#	c #3458CB",
"[#	c #929974",
"}#	c #F0E841",
"|#	c #EEE43B",
"1#	c #7E9DBA",
"2#	c #5089DA",
"3#	c #525D88",
"4#	c #484763",
"5#	c #707074",
"6#	c #644647",
"7#	c #920708",
"8#	c #E32426",
"9#	c #FE5D5D",
"0#	c #FE4849",
"a#	c #A71013",
"b#	c #2F0650",
"c#	c #183CA6",
"d#	c #1C60D3",
"e#	c #5070CB",
"f#	c #7782AB",
"g#	c #7E849F",
"h#	c #7B7F95",
"i#	c #6B739D",
"j#	c #6D75A1",
"k#	c #777FA5",
"l#	c #666887",
"m#	c #606886",
"n#	c #5A3A3B",
"o#	c #900000",
"p#	c #E14144",
"q#	c #FF6363",
"r#	c #F86969",
"s#	c #AD454E",
"t#	c #463D72",
"u#	c #142F9F",
"v#	c #3353C3",
"w#	c #737FB0",
"x#	c #767FA9",
"y#	c #64678F",
"z#	c #525375",
"A#	c #43425D",
"B#	c #42405B",
"C#	c #4B4B67",
"D#	c #575271",
"E#	c #414163",
"F#	c #4C4C6B",
"G#	c #808CBA",
"H#	c #8A98C7",
"I#	c #8B98C8",
"J#	c #8A99C8",
"K#	c #8797C5",
"L#	c #8394C1",
"M#	c #8191BD",
"N#	c #8494C0",
"O#	c #8696C3",
"P#	c #8897C4",
"Q#	c #8999C6",
"R#	c #9BBAD6",
"S#	c #74595A",
"T#	c #C1A2A4",
"U#	c #EFD5D5",
"V#	c #F7E0E0",
"W#	c #EDC3C2",
"X#	c #B89499",
"Y#	c #473B7D",
"Z#	c #4B3988",
"`#	c #68486B",
" $	c #676B89",
".$	c #5C5B80",
"+$	c #545173",
"@$	c #48435E",
"#$	c #443B55",
"$$	c #4A4A61",
"%$	c #4E526B",
"&$	c #4A4766",
"*$	c #484E77",
"=$	c #4C506E",
"-$	c #423C58",
";$	c #423B59",
">$	c #3B3958",
",$	c #47394F",
"'$	c #5B414B",
")$	c #5B3F49",
"!$	c #583A46",
"~$	c #4D394A",
"{$	c #423D5A",
"]$	c #443F5C",
"^$	c #545E7F",
"/$	c #6F5151",
"($	c #897778",
"_$	c #D4D2D2",
":$	c #DBDCDC",
"<$	c #D8DBDB",
"[$	c #D6DFDE",
"}$	c #BDC0C1",
"|$	c #4C4581",
"1$	c #72464A",
"2$	c #653B29",
"3$	c #4F4862",
"4$	c #554B6A",
"5$	c #46405D",
"6$	c #45405A",
"7$	c #453F59",
"8$	c #505370",
"9$	c #4F5370",
"0$	c #3E3A57",
"a$	c #4C5684",
"b$	c #525772",
"c$	c #2D283C",
"d$	c #391F2E",
"e$	c #683F35",
"f$	c #6C4131",
"g$	c #754B3E",
"h$	c #7A4733",
"i$	c #774639",
"j$	c #593C3D",
"k$	c #252039",
"l$	c #34374C",
"m$	c #704C49",
"n$	c #7A6E6E",
"o$	c #D2D4D3",
"p$	c #F3F4F4",
"q$	c #FDFDFD",
"r$	c #FDFCFC",
"s$	c #E0E0DF",
"t$	c #8E8DA9",
"u$	c #42236E",
"v$	c #55293F",
"w$	c #4D3F55",
"x$	c #52445F",
"y$	c #4C4460",
"z$	c #4C4763",
"A$	c #4A4361",
"B$	c #42405A",
"C$	c #45425D",
"D$	c #494762",
"E$	c #596891",
"F$	c #555974",
"G$	c #794A37",
"H$	c #673C30",
"I$	c #633832",
"J$	c #66382C",
"K$	c #653828",
"L$	c #726D92",
"M$	c #4F2712",
"N$	c #571C11",
"O$	c #9B9090",
"P$	c #EDECEC",
"Q$	c #FFFFFF",
"R$	c #D6D5DE",
"S$	c #7472A2",
"T$	c #371765",
"U$	c #4A3E52",
"V$	c #534963",
"W$	c #4D415C",
"X$	c #4D435E",
"Y$	c #4C425D",
"Z$	c #4B4F68",
"`$	c #697CA2",
" %	c #543534",
".%	c #744535",
"+%	c #603628",
"@%	c #673B2F",
"#%	c #673C31",
"$%	c #633827",
"%%	c #4A3B56",
"&%	c #3D2127",
"*%	c #561E1E",
"=%	c #B7AEAE",
"-%	c #FBFCFC",
";%	c #FEFEFE",
">%	c #F2F2F3",
",%	c #BEBDCE",
"'%	c #100871",
")%	c #403E51",
"!%	c #464555",
"~%	c #4B4C59",
"{%	c #332D4A",
"]%	c #343165",
"^%	c #353363",
"/%	c #302A5F",
"(%	c #4A415C",
"_%	c #3B1619",
":%	c #653D3B",
"<%	c #B4ACAC",
"[%	c #F6F7F7",
"}%	c #EEEEEE",
"|%	c #C4C4C3",
"1%	c #BCBCC3",
"2%	c #3D397F",
"3%	c #51546F",
"4%	c #616974",
"5%	c #5F6773",
"6%	c #333460",
"7%	c #1C1756",
"8%	c #1D1660",
"9%	c #4D4765",
"0%	c #602F28",
"a%	c #A19898",
"b%	c #D6D6D6",
"c%	c #E5E5E5",
"d%	c #EAEAEA",
"e%	c #E6E6E6",
"f%	c #CACACA",
"g%	c #898984",
"h%	c #848488",
"i%	c #414A9A",
"j%	c #545B8E",
"k%	c #5E6682",
"l%	c #525879",
"m%	c #232259",
"n%	c #1E1381",
"o%	c #21169D",
"p%	c #4E4C6D",
"q%	c #4B4765",
"r%	c #5C241A",
"s%	c #827272",
"t%	c #A6A4A4",
"u%	c #B8B9B9",
"v%	c #B6B6B6",
"w%	c #AEAEAE",
"x%	c #B6B6B7",
"y%	c #9797A0",
"z%	c #363987",
"A%	c #235DE0",
"B%	c #4468D4",
"C%	c #3C4EA4",
"D%	c #21244A",
"E%	c #1B1372",
"F%	c #2013A2",
"G%	c #1D19B8",
"H%	c #4E4C6C",
"I%	c #512A2E",
"J%	c #6A4B4A",
"K%	c #837A7A",
"L%	c #999999",
"M%	c #AEAFAF",
"N%	c #ADADAC",
"O%	c #AEAEAC",
"P%	c #A3A3B3",
"Q%	c #1428A6",
"R%	c #1E5DE6",
"S%	c #2053D4",
"T%	c #102385",
"U%	c #0B083E",
"V%	c #241982",
"W%	c #2317AF",
"X%	c #1B22C1",
"Y%	c #441954",
"Z%	c #56577B",
"`%	c #736667",
" &	c #827D7D",
".&	c #9C9B9B",
"+&	c #7A787E",
"@&	c #7B7A9C",
"#&	c #184EBF",
"$&	c #006BE5",
"%&	c #1C51C1",
"&&	c #241769",
"*&	c #020446",
"=&	c #1A1A81",
"-&	c #2A21AB",
";&	c #2031AF",
">&	c #4B1D54",
",&	c #671F09",
"'&	c #5B5C82",
")&	c #3A2D3A",
"!&	c #513F5C",
"~&	c #4F333D",
"{&	c #321071",
"]&	c #154BBE",
"^&	c #5460AF",
"/&	c #976A7C",
"(&	c #C0865B",
"_&	c #C78E4E",
":&	c #B4753B",
"<&	c #704967",
"[&	c #362174",
"}&	c #562A45",
"|&	c #803802",
"1&	c #A15106",
"2&	c #B0640D",
"3&	c #8A4404",
"4&	c #5E5F85",
"5&	c #5F5E82",
"6&	c #3C3A51",
"7&	c #2B2387",
"8&	c #1D34A4",
"9&	c #3A47A9",
"0&	c #814E6F",
"a&	c #BF5F02",
"b&	c #DB8003",
"c&	c #E7A447",
"d&	c #E9B463",
"e&	c #E1973F",
"f&	c #B5610B",
"g&	c #642803",
"h&	c #6F2802",
"i&	c #883801",
"j&	c #9C4703",
"k&	c #B3600B",
"l&	c #9E4F05",
"m&	c #524F6F",
"n&	c #511D57",
"o&	c #5C2D5A",
"p&	c #85390D",
"q&	c #B25001",
"r&	c #CC6B06",
"s&	c #D47A14",
"t&	c #DB8623",
"u&	c #DE8F34",
"v&	c #CE7718",
"w&	c #A74D02",
"x&	c #662201",
"y&	c #591100",
"z&	c #641900",
"A&	c #712100",
"B&	c #833200",
"C&	c #7C2F00",
"D&	c #4B0803",
"E&	c #5B0400",
"F&	c #590100",
"G&	c #6C1700",
"H&	c #883501",
"I&	c #9E4502",
"J&	c #AB4F02",
"K&	c #B35603",
"L&	c #B05102",
"M&	c #9C4101",
"N&	c #812E00",
"O&	c #663913",
"P&	c #593310",
"Q&	c #54260A",
"R&	c #562308",
"S&	c #5F2C09",
"T&	c #6F421A",
"U&	c #683418",
"V&	c #90621F",
"W&	c #946D27",
"X&	c #7A5015",
"Y&	c #6C3C0B",
"Z&	c #6F3808",
"`&	c #713305",
" *	c #712D05",
".*	c #733204",
"+*	c #75410C",
"@*	c #956321",
"#*	c #925E35",
"$*	c #98653C",
"%*	c #9E6C41",
"&*	c #9A673D",
"**	c #956139",
"=*	c #95623A",
"-*	c #815228",
";*	c #A1742F",
">*	c #A4752F",
",*	c #A2722C",
"'*	c #A6762F",
")*	c #A3742D",
"!*	c #9E6F28",
"~*	c #9C6B26",
"{*	c #A3732C",
"]*	c #976828",
"                                                                                                    ",
"                                                                                                    ",
"                                                  . +                                               ",
"                                              @ # $ % & *                                           ",
"                                          = - ; > , ' ) ! ~                                         ",
"                                        { ] ^ / ( _ : < [ }                                         ",
"                                        | 1 2 3 4 5 6 7 8 9                                         ",
"                                      0 a b c d e f g ' h i j                                       ",
"                                      k l m n o p q r s t u v w x y                                 ",
"                                    z A B C D E F G H I J K L M N O                                 ",
"                                  P Q R S T U V W X Y Z `  ...+.@.#.                                ",
"                              $.%.&.*.=.-.;.>.,.'.).!.~.{.].^./.(._.                                ",
"                            :.<.[.}.|.1.2.3.4.5.5.5.6.7.8.9.0.a.b.c.                                ",
"                            d.e.f.g.h.i.j.k.l.m.n.o.p.q.r.s.t.u.v.                                  ",
"                          w.x.y.z.A.B.C.D.E.F.G.H.I.J.K.L.M.N.O.P.                                  ",
"                            Q.R.S.T.U.V.W.X.Y.Z.`. +.+++@+#+$+%+&+                                  ",
"                            *+=+-+;+>+,+'+)+!+~+{+]+^+/+(+_+:+<+[+}+                                ",
"                              |+1+2+3+4+5+6+7+8+9+0+a+b+c+d+e+f+g+h+                                ",
"                                i+j+k+l+m+n+o+p+q+r+s+t+u+v+w+x+y+z+                                ",
"                                A+B+C+D+E+F+G+H+I+J+K+L+M+N+O+P+Q+                                  ",
"                                R+S+T+U+V+W+X+Y+Z+`+ @.@+@@@#@$@%@                                  ",
"                                &@*@=@-@;@>@,@'@)@!@~@{@]@^@/@(@                                    ",
"                                  _@:@<@[@}@|@1@2@3@4@5@6@7@8@                                      ",
"                                  9@0@a@b@c@d@e@f@g@h@i@j@k@                                        ",
"                                  l@m@n@o@p@q@r@s@t@u@v@w@x@                                        ",
"                                y@z@A@B@C@D@E@F@G@H@I@J@K@L@                                        ",
"                                M@N@O@P@Q@R@S@T@U@V@W@X@Y@Z@`@                                      ",
"                               #.#+#@###$#%#&#*#=#-#;#>#,#'#)#!#                                    ",
"                              ~#{#]#^#/#(#_#:#<#[#}#|#1#2#3#4#5#                                    ",
"                            6#7#8#9#0#a#b#c#d#e#f#g#h#i#j#k#l#m#                                    ",
"                            n#o#p#q#r#s#t#u#v#w#x#y#z#A#B#C#D#E#F#G#H#I#J#K#L#M#N#O#P#Q#    R#      ",
"                            S#T#U#V#W#X#Y#Z#`# $.$+$@$#$$$%$&$*$=$-$;$>$,$'$)$!$~${$]$]$    ^$      ",
"                          /$($_$:$<$[$}$|$1$2$3$4$5$6$7$8$9$0$a$b$c$d$e$f$g$h$i$j$      k$l$        ",
"                          m$n$o$p$q$r$s$t$u$v$w$x$y$z$A$B$C$D$E$F$    G$H$I$J$K$                    ",
"                    L$  M$N$O$P$Q$Q$Q$Q$R$S$T$U$V$W$W$y$X$Y$Z$`$     %.%+%@%#%$%                    ",
"                    %%  &%*%=%-%Q$Q$Q$;%>%,%'%)%!%~%{%]%^%/%                                        ",
"                    (%  _%:%<%[%Q$Q$;%}%|%1%2%3%4%5%6%7%8%                                          ",
"                    9%    0%a%b%c%d%e%f%g%h%i%j%k%l%m%n%o%                                          ",
"                    p%q%  r%s%t%u%v%w%x%y%z%A%B%C%D%E%F%G%                                          ",
"                      H%  I%J%K%L%M%N%O%P%Q%R%S%T%U%V%W%X%Y%                                        ",
"                      Z%        `% &.&+&@&#&$&%&&&*&=&-&;&>&,&                                      ",
"                      '&  )&      !&~&{&]&^&/&(&_&:&<&[&}&|&1&2&3&                                  ",
"                      4&5&6&      7&8&9&0&a&b&c&d&e&f&g&h&i&j&k&l&                                  ",
"                        m&        n&o&p&q&r&s&t&u&v&w&x&y&z&A&B&C&D&                                ",
"                                  E&F&G&H&I&J&K&L&M&N&O&P&Q&R&S&T&U&                                ",
"                                  V&W&X&Y&Z&`& *.*+*@*#*$*%*&***=*                                  ",
"                                  -*;*>*,*'*)*!*~*{*]*                                              ",
"                                                                                                    ",
"                                                                                                    ",
"                                                                                                    "};
