/* XPM */
static char * D:\Downloads\Downloads\mario4_xpm[] = {
"50 50 798 2",
"  	c #FF000000",
". 	c #A33B39",
"+ 	c #A13736",
"@ 	c #E45959",
"# 	c #FA6564",
"$ 	c #FE5F5E",
"% 	c #FE6D6D",
"& 	c #F76C6C",
"* 	c #CC4A47",
"= 	c #C5403E",
"- 	c #FD6463",
"; 	c #FF6868",
"> 	c #FF6563",
", 	c #FFB1B1",
"' 	c #FFE4E4",
") 	c #FFE6E5",
"! 	c #FFB6B3",
"~ 	c #CC524D",
"{ 	c #C02E2C",
"] 	c #FF5D5B",
"^ 	c #FF6867",
"/ 	c #FF605E",
"( 	c #FF9796",
"_ 	c #FDF3F3",
": 	c #EAB0AD",
"< 	c #EDB9B6",
"[ 	c #EFB7B4",
"} 	c #FAA09D",
"| 	c #FA4240",
"1 	c #FF5956",
"2 	c #FF605D",
"3 	c #FF5350",
"4 	c #FFAEAD",
"5 	c #F6DCDA",
"6 	c #E38680",
"7 	c #EDB1AE",
"8 	c #E3908B",
"9 	c #FC8B88",
"0 	c #D3181C",
"a 	c #FB3F3E",
"b 	c #FC4D4A",
"c 	c #FE4C4A",
"d 	c #FF3D39",
"e 	c #FA7675",
"f 	c #F4CDCC",
"g 	c #F4C4C2",
"h 	c #FBB4B2",
"i 	c #F75C59",
"j 	c #D23B39",
"k 	c #900D12",
"l 	c #D7131A",
"m 	c #F02F2F",
"n 	c #F53534",
"o 	c #F63230",
"p 	c #F0221F",
"q 	c #DE0000",
"r 	c #F17E7E",
"s 	c #FF8B8B",
"t 	c #FC6362",
"u 	c #DE4F4D",
"v 	c #9E2F2F",
"w 	c #81161A",
"x 	c #821318",
"y 	c #9B2426",
"z 	c #B53D3B",
"A 	c #A0060F",
"B 	c #C90E16",
"C 	c #D8151B",
"D 	c #D8151A",
"E 	c #CD0F15",
"F 	c #C60A12",
"G 	c #EE4143",
"H 	c #FC4C4A",
"I 	c #E13838",
"J 	c #971718",
"K 	c #480000",
"L 	c #200003",
"M 	c #450006",
"N 	c #570109",
"O 	c #530007",
"P 	c #B33535",
"Q 	c #70050E",
"R 	c #A10713",
"S 	c #BC0A13",
"T 	c #C20B13",
"U 	c #B80912",
"V 	c #9F0610",
"W 	c #CC161E",
"X 	c #DA282D",
"Y 	c #9C0C10",
"Z 	c #510001",
"` 	c #110003",
" .	c #2E0307",
"..	c #2D0306",
"+.	c #1F0306",
"@.	c #220306",
"#.	c #200106",
"$.	c #8A1216",
"%.	c #62070D",
"&.	c #72030F",
"*.	c #860614",
"=.	c #A20715",
"-.	c #AF0712",
";.	c #A80712",
">.	c #920511",
",.	c #91060D",
"'.	c #91070A",
").	c #470002",
"!.	c #000001",
"~.	c #490208",
"{.	c #57040C",
"].	c #4B0308",
"^.	c #330305",
"/.	c #170306",
"(.	c #0A0305",
"_.	c #050305",
":.	c #490406",
"<.	c #59080C",
"[.	c #6B040E",
"}.	c #790612",
"|.	c #8C0714",
"1.	c #9B0715",
"2.	c #990714",
"3.	c #870613",
"4.	c #6D080D",
"5.	c #530706",
"6.	c #000000",
"7.	c #140002",
"8.	c #2A0103",
"9.	c #280104",
"0.	c #1F0205",
"a.	c #0F0205",
"b.	c #060205",
"c.	c #160205",
"d.	c #380508",
"e.	c #5E020A",
"f.	c #6D0510",
"g.	c #71000C",
"h.	c #760007",
"i.	c #7B0005",
"j.	c #79020E",
"k.	c #64080C",
"l.	c #3B090B",
"m.	c #57070F",
"n.	c #AD422A",
"o.	c #B84932",
"p.	c #921E08",
"q.	c #76170A",
"r.	c #590A05",
"s.	c #4C0504",
"t.	c #380406",
"u.	c #020206",
"v.	c #030305",
"w.	c #0A0205",
"x.	c #570F12",
"y.	c #62030D",
"z.	c #60010A",
"A.	c #7A3333",
"B.	c #B26156",
"C.	c #B15F55",
"D.	c #6E221D",
"E.	c #86190B",
"F.	c #6E1B1B",
"G.	c #080135",
"H.	c #75364D",
"I.	c #DD8471",
"J.	c #EA927E",
"K.	c #CB5D49",
"L.	c #BF4735",
"M.	c #A72D18",
"N.	c #570913",
"O.	c #000007",
"P.	c #180204",
"Q.	c #090204",
"R.	c #591A1C",
"S.	c #5A010A",
"T.	c #650C0E",
"U.	c #BC573E",
"V.	c #BE6449",
"W.	c #CC7562",
"X.	c #C96B5C",
"Y.	c #BC320C",
"Z.	c #A63B25",
"`.	c #541828",
" +	c #00001A",
".+	c #4F3237",
"++	c #C58776",
"@+	c #CE6F5E",
"#+	c #A74E42",
"$+	c #52181A",
"%+	c #24010C",
"&+	c #320911",
"*+	c #2E0B0D",
"=+	c #150001",
"-+	c #582425",
";+	c #4A0004",
">+	c #903921",
",+	c #CB5C33",
"'+	c #B24A15",
")+	c #954E2C",
"!+	c #CB5A3F",
"~+	c #D64416",
"{+	c #A65348",
"]+	c #BAB0B3",
"^+	c #83606A",
"/+	c #91444C",
"(+	c #835151",
"_+	c #C98D84",
":+	c #987567",
"<+	c #755655",
"[+	c #924D54",
"}+	c #A599A0",
"|+	c #6B5054",
"1+	c #780100",
"2+	c #B17365",
"3+	c #562324",
"4+	c #480A11",
"5+	c #92431E",
"6+	c #CC5B34",
"7+	c #A94313",
"8+	c #8C3E0C",
"9+	c #B55536",
"0+	c #D15F4C",
"a+	c #CE644D",
"b+	c #BA756E",
"c+	c #A57F84",
"d+	c #975556",
"e+	c #CA8176",
"f+	c #FEDED6",
"g+	c #FFEAE2",
"h+	c #ECD5CC",
"i+	c #C5A8A0",
"j+	c #9E675F",
"k+	c #B95645",
"l+	c #B44F43",
"m+	c #B15E45",
"n+	c #51212A",
"o+	c #8A451C",
"p+	c #D46438",
"q+	c #C85627",
"r+	c #A54413",
"s+	c #B05635",
"t+	c #D47466",
"u+	c #E9A293",
"v+	c #EDAC9D",
"w+	c #DE9486",
"x+	c #E9A89B",
"y+	c #FDC7B8",
"z+	c #F3D3C9",
"A+	c #FFEDE8",
"B+	c #FFF6F2",
"C+	c #FFEFE9",
"D+	c #F8BFAD",
"E+	c #C26F52",
"F+	c #A2483D",
"G+	c #7E3515",
"H+	c #794229",
"I+	c #C85F31",
"J+	c #D86538",
"K+	c #B7582E",
"L+	c #C75431",
"M+	c #C35F5C",
"N+	c #D09897",
"O+	c #E6B5AE",
"P+	c #E9B2AA",
"Q+	c #EAB6AF",
"R+	c #E6AFA6",
"S+	c #C77F6C",
"T+	c #F9B3A2",
"U+	c #FFD0C4",
"V+	c #FFCBBC",
"W+	c #FFB69F",
"X+	c #B45F41",
"Y+	c #750300",
"Z+	c #481A16",
"`+	c #6E4034",
" @	c #8D4510",
".@	c #C75E2D",
"+@	c #CB5D33",
"@@	c #CA5A24",
"#@	c #A04242",
"$@	c #341669",
"%@	c #472A73",
"&@	c #482B72",
"*@	c #47296F",
"=@	c #482E73",
"-@	c #59346F",
";@	c #944136",
">@	c #B55839",
",@	c #B96346",
"'@	c #8C4731",
")@	c #270112",
"!@	c #2F050C",
"~@	c #4D0E01",
"{@	c #783E0C",
"]@	c #844510",
"^@	c #753F0F",
"/@	c #A3501D",
"(@	c #4E1A3F",
"_@	c #3D3073",
":@	c #393276",
"<@	c #000B51",
"[@	c #000D5B",
"}@	c #1E2268",
"|@	c #000033",
"1@	c #000005",
"2@	c #000020",
"3@	c #00002D",
"4@	c #0A0613",
"5@	c #3A2222",
"6@	c #5A2319",
"7@	c #500F02",
"8@	c #3F1105",
"9@	c #3E0E12",
"0@	c #69353C",
"a@	c #6A3428",
"b@	c #541123",
"c@	c #5D1233",
"d@	c #933D32",
"e@	c #C85F47",
"f@	c #C55B49",
"g@	c #B53D25",
"h@	c #8E2312",
"i@	c #40040D",
"j@	c #180409",
"k@	c #3D2726",
"l@	c #573532",
"m@	c #520707",
"n@	c #80060F",
"o@	c #AF0A13",
"p@	c #B50513",
"q@	c #980D3C",
"r@	c #711460",
"s@	c #C44837",
"t@	c #EA7D64",
"u@	c #FFC9BD",
"v@	c #FFDAD5",
"w@	c #F9AB9D",
"x@	c #DC5E44",
"y@	c #A52801",
"z@	c #6E392C",
"A@	c #85040E",
"B@	c #D61922",
"C@	c #F53232",
"D@	c #E31F22",
"E@	c #D6100E",
"F@	c #B31C68",
"G@	c #8C5298",
"H@	c #CF7274",
"I@	c #E29A90",
"J@	c #E9AFA7",
"K@	c #E69184",
"L@	c #C8615F",
"M@	c #854D70",
"N@	c #C61019",
"O@	c #FA4E4E",
"P@	c #FF5454",
"Q@	c #EB3234",
"R@	c #D11219",
"S@	c #F12E22",
"T@	c #7C62AE",
"U@	c #5E88D8",
"V@	c #7E7FC7",
"W@	c #AA5C8C",
"X@	c #E93E28",
"Y@	c #D5445C",
"Z@	c #6781CB",
"`@	c #B60D17",
" #	c #F73738",
".#	c #F53F40",
"+#	c #F04446",
"@#	c #D82D33",
"##	c #A40713",
"$#	c #ED220C",
"%#	c #C15984",
"&#	c #4691E7",
"*#	c #639CE0",
"=#	c #7191D8",
"-#	c #EC586D",
";#	c #FF3D03",
">#	c #B86097",
",#	c #CE222A",
"'#	c #FF5656",
")#	c #FD5354",
"!#	c #D62A32",
"~#	c #A40811",
"{#	c #E2383B",
"]#	c #F74547",
"^#	c #C63562",
"/#	c #908FA0",
"(#	c #DBD05B",
"_#	c #A6A793",
":#	c #A99EB6",
"<#	c #B8B0BC",
"[#	c #B7B1B6",
"}#	c #A19597",
"|#	c #7F0E15",
"1#	c #D5262E",
"2#	c #FD5D5D",
"3#	c #FF5B5C",
"4#	c #C93235",
"5#	c #880508",
"6#	c #C1141D",
"7#	c #E84348",
"8#	c #CB555D",
"9#	c #BDB3B6",
"0#	c #B4B7BF",
"a#	c #CCD2D9",
"b#	c #828390",
"c#	c #525167",
"d#	c #7E8093",
"e#	c #888897",
"f#	c #665F67",
"g#	c #583638",
"h#	c #864849",
"i#	c #CE0F11",
"j#	c #FB5152",
"k#	c #FE4C4C",
"l#	c #D0060B",
"m#	c #4D020F",
"n#	c #93495D",
"o#	c #8B7D9F",
"p#	c #7F7DA2",
"q#	c #8085A4",
"r#	c #8284A0",
"s#	c #8A8CA6",
"t#	c #8388A7",
"u#	c #666887",
"v#	c #747990",
"w#	c #8E96AE",
"x#	c #8E99B7",
"y#	c #9C9694",
"z#	c #6F080A",
"A#	c #C2060D",
"B#	c #F75757",
"C#	c #FC8383",
"D#	c #DF7272",
"E#	c #602E59",
"F#	c #6F6F94",
"G#	c #767FA9",
"H#	c #64678F",
"I#	c #525375",
"J#	c #43425D",
"K#	c #42405B",
"L#	c #4B4B67",
"M#	c #5B5572",
"N#	c #525064",
"O#	c #58576E",
"P#	c #808CBA",
"Q#	c #8A98C7",
"R#	c #8B98C8",
"S#	c #8A99C8",
"T#	c #8797C5",
"U#	c #8394C1",
"V#	c #8191BD",
"W#	c #8494C0",
"X#	c #8696C3",
"Y#	c #8897C4",
"Z#	c #8999C6",
"`#	c #9BBAD6",
" $	c #725857",
".$	c #B8B5B2",
"+$	c #6E3639",
"@$	c #D3A2A4",
"#$	c #F4DCDC",
"$$	c #F5DCDC",
"%$	c #D4BCBA",
"&$	c #9A97A6",
"*$	c #49477E",
"=$	c #5C5B80",
"-$	c #545173",
";$	c #48435E",
">$	c #443B55",
",$	c #4A4A61",
"'$	c #4E526B",
")$	c #504D67",
"!$	c #5D5F75",
"~$	c #505268",
"{$	c #423C58",
"]$	c #423B59",
"^$	c #3B3958",
"/$	c #47394F",
"($	c #5B414B",
"_$	c #5B3F49",
":$	c #583A46",
"<$	c #4D394A",
"[$	c #423D5A",
"}$	c #443F5C",
"|$	c #545E7F",
"1$	c #8D7775",
"2$	c #88746F",
"3$	c #A69798",
"4$	c #DFDCDD",
"5$	c #DBDDDD",
"6$	c #DADFDF",
"7$	c #E3E8E8",
"8$	c #B4B4B8",
"9$	c #5F5C8B",
"0$	c #413972",
"a$	c #443E60",
"b$	c #45405A",
"c$	c #453F59",
"d$	c #505370",
"e$	c #4F5370",
"f$	c #494459",
"g$	c #6B7187",
"h$	c #4F536B",
"i$	c #211B37",
"j$	c #391F2E",
"k$	c #683F35",
"l$	c #6C4131",
"m$	c #754B3E",
"n$	c #7A4733",
"o$	c #774639",
"p$	c #593C3D",
"q$	c #252039",
"r$	c #34374C",
"s$	c #744635",
"t$	c #673830",
"u$	c #837979",
"v$	c #CFD1D1",
"w$	c #F2F3F3",
"x$	c #FFFFFF",
"y$	c #FCFCFC",
"z$	c #F6F6F5",
"A$	c #B5B4C5",
"B$	c #656297",
"C$	c #332A71",
"D$	c #4C4763",
"E$	c #4A4361",
"F$	c #42405A",
"G$	c #45425D",
"H$	c #4E4C63",
"I$	c #687592",
"J$	c #51546E",
"K$	c #464760",
"L$	c #4A2E30",
"M$	c #794A37",
"N$	c #673C30",
"O$	c #633832",
"P$	c #66382C",
"Q$	c #653828",
"R$	c #726D92",
"S$	c #4F2712",
"T$	c #673D31",
"U$	c #613727",
"V$	c #5D3324",
"W$	c #571F19",
"X$	c #897C7C",
"Y$	c #E3E3E3",
"Z$	c #F2F2F4",
"`$	c #BAB9CC",
" %	c #31237F",
".%	c #4A3E5D",
"+%	c #4C4460",
"@%	c #4D435E",
"#%	c #4C425D",
"$%	c #4B4F68",
"%%	c #697CA2",
"&%	c #545C7A",
"*%	c #4E5471",
"=%	c #543534",
"-%	c #744535",
";%	c #603628",
">%	c #673B2F",
",%	c #673C31",
"'%	c #633827",
")%	c #4A3B56",
"!%	c #3E2329",
"~%	c #563737",
"{%	c #5E3222",
"]%	c #603328",
"^%	c #5B2A22",
"/%	c #948484",
"(%	c #F2F2F2",
"_%	c #FEFEFE",
":%	c #EFEFEE",
"<%	c #CBCBCF",
"[%	c #78759B",
"}%	c #211F61",
"|%	c #323172",
"1%	c #31317A",
"2%	c #35346D",
"3%	c #3D3E55",
"4%	c #3F456A",
"5%	c #383776",
"6%	c #4D171B",
"7%	c #683619",
"8%	c #703A18",
"9%	c #643316",
"0%	c #562F18",
"a%	c #704A2E",
"b%	c #643E27",
"c%	c #4A415C",
"d%	c #5F2D21",
"e%	c #6A352A",
"f%	c #6B392D",
"g%	c #683C35",
"h%	c #918181",
"i%	c #EDECEC",
"j%	c #FDFEFE",
"k%	c #EEEEEE",
"l%	c #B5B6B4",
"m%	c #979695",
"n%	c #72728E",
"o%	c #202887",
"p%	c #2A237B",
"q%	c #2A247E",
"r%	c #201D79",
"s%	c #100C5A",
"t%	c #2D3BA5",
"u%	c #3748B8",
"v%	c #4E1621",
"w%	c #7E3500",
"x%	c #763507",
"y%	c #65310C",
"z%	c #9E7342",
"A%	c #9A6D3D",
"B%	c #6F421C",
"C%	c #4D4765",
"D%	c #633322",
"E%	c #6C3C2E",
"F%	c #643524",
"G%	c #826D6C",
"H%	c #C8C5C5",
"I%	c #E6E7E7",
"J%	c #E5E5E5",
"K%	c #E2E2E2",
"L%	c #C8C8C8",
"M%	c #B1B1B2",
"N%	c #6D6C77",
"O%	c #4D5184",
"P%	c #363273",
"Q%	c #2E236E",
"R%	c #302469",
"S%	c #251C5F",
"T%	c #1B1762",
"U%	c #353BA3",
"V%	c #363A9E",
"W%	c #521605",
"X%	c #631D00",
"Y%	c #521002",
"Z%	c #9C6E3E",
"`%	c #A27745",
" &	c #845A31",
".&	c #4E4C6D",
"+&	c #4B4765",
"@&	c #5E3422",
"#&	c #6B3D32",
"$&	c #6D3C32",
"%&	c #572A1E",
"&&	c #674949",
"*&	c #999191",
"=&	c #B3B3B3",
"-&	c #B7B7B7",
";&	c #ACACAC",
">&	c #AAAAA9",
",&	c #BFBFBE",
"'&	c #8484A4",
")&	c #2339AE",
"!&	c #222174",
"~&	c #231F68",
"{&	c #221B5A",
"]&	c #161046",
"^&	c #262973",
"/&	c #2E3499",
"(&	c #371B60",
"_&	c #4A0F00",
":&	c #460300",
"<&	c #7A502B",
"[&	c #AC7C4A",
"}&	c #886133",
"|&	c #734B1D",
"1&	c #4E4C6C",
"2&	c #4D3034",
"3&	c #683E3D",
"4&	c #582C1E",
"5&	c #6C2808",
"6&	c #5F2833",
"7&	c #715C5E",
"8&	c #8D8787",
"9&	c #9A9999",
"0&	c #AFB0B0",
"a&	c #A5A6A5",
"b&	c #9B9B9A",
"c&	c #8B8EB2",
"d&	c #1C3AB5",
"e&	c #1B1A63",
"f&	c #15144B",
"g&	c #110E3D",
"h&	c #16134D",
"i&	c #272B71",
"j&	c #292E8C",
"k&	c #39134E",
"l&	c #430700",
"m&	c #5D2E0C",
"n&	c #A9794A",
"o&	c #92663A",
"p&	c #805A2C",
"q&	c #56577B",
"r&	c #4F2A23",
"s&	c #5B3323",
"t&	c #5A190C",
"u&	c #813300",
"v&	c #682933",
"w&	c #493466",
"x&	c #5F4249",
"y&	c #746768",
"z&	c #756D6E",
"A&	c #8A8686",
"B&	c #5C506C",
"C&	c #213AB0",
"D&	c #1F2687",
"E&	c #171248",
"F&	c #310C3A",
"G&	c #201351",
"H&	c #251B60",
"I&	c #2E2471",
"J&	c #30226C",
"K&	c #3C1131",
"L&	c #340000",
"M&	c #8D613A",
"N&	c #A67A4A",
"O&	c #886135",
"P&	c #643814",
"Q&	c #5B5C82",
"R&	c #3A2D3A",
"S&	c #593409",
"T&	c #681900",
"U&	c #9F4C01",
"V&	c #8F420D",
"W&	c #311F6F",
"X&	c #413278",
"Y&	c #3F1F65",
"Z&	c #483E75",
"`&	c #3E195B",
" *	c #32389C",
".*	c #2538AF",
"+*	c #1D1C7D",
"@*	c #3E0D21",
"#*	c #321557",
"$*	c #2E2376",
"%*	c #331E63",
"&*	c #3B0701",
"**	c #542A0C",
"=*	c #AC7D4F",
"-*	c #946B3E",
";*	c #693D17",
">*	c #5E5F85",
",*	c #5F5E82",
"'*	c #3C3A51",
")*	c #582F0E",
"!*	c #783002",
"~*	c #C06708",
"{*	c #C27010",
"]*	c #794739",
"^*	c #341357",
"/*	c #381766",
"(*	c #37216F",
"_*	c #34287D",
":*	c #34247C",
"<*	c #381B74",
"[*	c #40134A",
"}*	c #3B1350",
"|*	c #36103C",
"1*	c #310000",
"2*	c #855E35",
"3*	c #A57746",
"4*	c #764821",
"5*	c #524F6F",
"6*	c #593F36",
"7*	c #6B380B",
"8*	c #7A3202",
"9*	c #C26B0B",
"0*	c #DE8B21",
"a*	c #C67E23",
"b*	c #653211",
"c*	c #3B0203",
"d*	c #633C18",
"e*	c #A77B48",
"f*	c #845529",
"g*	c #805217",
"h*	c #7E4E10",
"i*	c #732F02",
"j*	c #B66710",
"k*	c #E9A03E",
"l*	c #DB963F",
"m*	c #7A380D",
"n*	c #6F3D1C",
"o*	c #7F4E29",
"p*	c #84510F",
"q*	c #6A2302",
"r*	c #9E5006",
"s*	c #CA8332",
"t*	c #AF6E2D",
"u*	c #530B02",
"v*	c #5C0E00",
"w*	c #651B00",
"                                                                                                    ",
"                                                  . +                                               ",
"                                              @ # $ % & *                                           ",
"                                          = - ; > , ' ) ! ~                                         ",
"                                        { ] ^ / ( _ : < [ }                                         ",
"                                        | 1 2 3 4 5 6 7 8 9                                         ",
"                                      0 a b c d e f g ' h i j                                       ",
"                                    k l m n o p q r s t u v w x y z                                 ",
"                                    A B C D E F G H I J K L M N O P                                 ",
"                                  Q R S T U V W X Y Z `  ...+.@.#.$.                                ",
"                              %.&.*.=.-.;.>.,.'.).!.~.{.].^./.(._.:.                                ",
"                            <.[.}.|.1.2.3.4.5.6.6.6.7.8.9.0.a.b.c.d.                                ",
"                            e.f.g.h.i.j.k.l.m.n.o.p.q.r.s.t.u.v.w.                                  ",
"                          x.y.z.A.B.C.D.E.F.G.H.I.J.K.L.M.N.O.P.Q.                                  ",
"                          R.S.T.U.V.W.X.Y.Z.`. +.+++@+#+$+%+&+*+=+                                  ",
"                          -+;+>+,+'+)+!+~+{+]+^+/+(+_+:+<+[+}+|+1+2+                                ",
"                          3+4+5+6+7+8+9+0+a+b+c+d+e+f+g+h+i+j+k+l+m+                                ",
"                            n+o+p+q+r+s+t+u+v+w+x+y+z+A+B+C+D+E+F+G+                                ",
"                              H+I+J+K+L+M+N+O+P+Q+R+S+T+U+V+W+X+Y+Z+                                ",
"                              `+ @.@+@@@#@$@%@&@*@=@-@;@>@,@'@)@!@                                  ",
"                                ~@{@]@^@/@(@_@:@<@[@}@|@1@2@3@4@5@                                  ",
"                                6@7@8@9@0@a@b@c@d@e@f@g@h@i@j@k@                                    ",
"                                l@m@n@o@p@q@r@s@t@u@v@w@x@y@z@                                      ",
"                                  A@B@C@D@E@F@G@H@I@J@K@L@M@                                        ",
"                                  N@O@P@Q@R@S@T@U@V@W@X@Y@Z@                                        ",
"                                `@ #.#+#@###$#%#&#*#=#-#;#>#                                        ",
"                                ,#'#)#!#~#{#]#^#/#(#_#:#<#[#}#                                      ",
"                              |#1#2#3#4#5#6#7#8#9#0#a#b#c#d#e#f#                                    ",
"                            g#h#i#j#k#l#m#n#o#p#q#r#s#t#u#v#w#x#                                    ",
"                            y#z#A#B#C#D#E#F#G#H#I#J#K#L#M#N#O#P#Q#R#S#T#U#V#W#X#Y#Z#    `#          ",
"                           $.$+$@$#$$$%$&$*$=$-$;$>$,$'$)$!$~${$]$^$/$($_$:$<$[$}$}$    |$          ",
"                          1$2$3$4$5$6$7$8$9$0$a$b$c$d$e$f$g$h$i$j$k$l$m$n$o$p$      q$r$            ",
"                          s$t$u$v$w$x$y$z$A$B$C$D$E$F$G$H$I$J$K$L$M$N$O$P$Q$                        ",
"                R$  S$T$U$V$W$X$Y$x$x$x$x$Z$`$ %.%+%@%#%$%%%&%*%=%-%;%>%,%'%                        ",
"                )%  !%~%{%]%^%/%(%x$x$x$_%:%<%[%}%|%1%2%3%4%5%6%7%8%9%0%a%b%                        ",
"                c%    d%e%f%g%h%i%j%x$y$k%l%m%n%o%p%q%r%s%t%u%v%w%x%y%z%A%B%                        ",
"                C%    D%E%l$F%G%H%I%J%K%L%M%N%O%P%Q%R%S%T%U%V%W%X%Y%Z%`% &                          ",
"                .&+&  @&#&$&%&&&*&=&-&;&>&,&'&)&!&~&{&]&^&/&(&_&:&<&[&}&|&                          ",
"                  1&  2&3&4&5&6&7&8&9&0&a&b&c&d&e&f&g&h&i&j&k&l&m&n&o&p&                            ",
"                  q&  r&s&t&u&v&w&x&y&z&A&B&C&D&E&F&G&H&I&J&K&L&M&N&O&P&                            ",
"                  Q&  R&S&T&U&V&W&X&Y&Z&`& *.*+*@*    #*$*%*&***=*-*;*                              ",
"                  >*,*'*)*!*~*{*]*^*/*(*_*:*<*[*        }*|*1*2*3*4*                                ",
"                    5*6*7*8*9*0*a*b*                      c*d*e*f*                                  ",
"                      g*h*i*j*k*l*m*                        n*o*                                    ",
"                        p*q*r*s*t*                                                                  ",
"                          u*v*w*                                                                    ",
"                                                                                                    ",
"                                                                                                    ",
"                                                                                                    ",
"                                                                                                    "};
