/* XPM */
static char * mario7_xpm[] = {
"50 50 891 2",
"  	c #FF000000",
". 	c #953534",
"+ 	c #A13736",
"@ 	c #A33B39",
"# 	c #963B3A",
"$ 	c #873534",
"% 	c #CC4A47",
"& 	c #F76C6C",
"* 	c #FE6D6D",
"= 	c #FE5F5E",
"- 	c #FA6564",
"; 	c #E45959",
"> 	c #A93D3B",
", 	c #CC524D",
"' 	c #FFB6B3",
") 	c #FFE6E5",
"! 	c #FFE4E4",
"~ 	c #FFB1B1",
"{ 	c #FF6563",
"] 	c #FF6868",
"^ 	c #FD6463",
"/ 	c #C5403E",
"( 	c #982622",
"_ 	c #FAA09D",
": 	c #EFB7B4",
"< 	c #EDB9B6",
"[ 	c #EAB0AD",
"} 	c #FDF3F3",
"| 	c #FF9796",
"1 	c #FF605E",
"2 	c #FF6867",
"3 	c #FF5D5B",
"4 	c #C02E2C",
"5 	c #B82825",
"6 	c #FC8B88",
"7 	c #E3908B",
"8 	c #EDB1AE",
"9 	c #E38680",
"0 	c #F6DCDA",
"a 	c #FFAEAD",
"b 	c #FF5350",
"c 	c #FF605D",
"d 	c #FF5956",
"e 	c #FA4240",
"f 	c #A12322",
"g 	c #9A3635",
"h 	c #A43C3B",
"i 	c #D23B39",
"j 	c #F75C59",
"k 	c #FBB4B2",
"l 	c #F4C4C2",
"m 	c #F4CDCC",
"n 	c #FA7675",
"o 	c #FF3D39",
"p 	c #FE4C4A",
"q 	c #FC4D4A",
"r 	c #FB3F3E",
"s 	c #D3181C",
"t 	c #B53D3B",
"u 	c #9B2426",
"v 	c #821318",
"w 	c #81161A",
"x 	c #9E2F2F",
"y 	c #DE4F4D",
"z 	c #FC6362",
"A 	c #FF8B8B",
"B 	c #F17E7E",
"C 	c #DE0000",
"D 	c #F0221F",
"E 	c #F63230",
"F 	c #F53534",
"G 	c #F02F2F",
"H 	c #D7131A",
"I 	c #900D12",
"J 	c #923432",
"K 	c #B33535",
"L 	c #530007",
"M 	c #570109",
"N 	c #450006",
"O 	c #200003",
"P 	c #480000",
"Q 	c #971718",
"R 	c #E13838",
"S 	c #FC4C4A",
"T 	c #EE4143",
"U 	c #C60A12",
"V 	c #CD0F15",
"W 	c #D8151A",
"X 	c #D8151B",
"Y 	c #C90E16",
"Z 	c #A0060F",
"` 	c #832324",
" .	c #8A1216",
"..	c #200106",
"+.	c #220306",
"@.	c #1F0306",
"#.	c #2D0306",
"$.	c #2E0307",
"%.	c #110003",
"&.	c #510001",
"*.	c #9C0C10",
"=.	c #DA282D",
"-.	c #CC161E",
";.	c #9F0610",
">.	c #B80912",
",.	c #C20B13",
"'.	c #BC0A13",
").	c #A10713",
"!.	c #70050E",
"~.	c #62181A",
"{.	c #691D1E",
"].	c #490406",
"^.	c #050305",
"/.	c #0A0305",
"(.	c #170306",
"_.	c #330305",
":.	c #4B0308",
"<.	c #57040C",
"[.	c #490208",
"}.	c #000001",
"|.	c #470002",
"1.	c #91070A",
"2.	c #91060D",
"3.	c #920511",
"4.	c #A80712",
"5.	c #AF0712",
"6.	c #A20715",
"7.	c #860614",
"8.	c #72030F",
"9.	c #62070D",
"0.	c #380508",
"a.	c #160205",
"b.	c #060205",
"c.	c #0F0205",
"d.	c #1F0205",
"e.	c #280104",
"f.	c #2A0103",
"g.	c #140002",
"h.	c #530706",
"i.	c #6D080D",
"j.	c #870613",
"k.	c #990714",
"l.	c #9B0715",
"m.	c #8C0714",
"n.	c #790612",
"o.	c #6B040E",
"p.	c #59080C",
"q.	c #0A0205",
"r.	c #030305",
"s.	c #020206",
"t.	c #380406",
"u.	c #4C0504",
"v.	c #590A05",
"w.	c #76170A",
"x.	c #921E08",
"y.	c #B84932",
"z.	c #AD422A",
"A.	c #57070F",
"B.	c #3B090B",
"C.	c #64080C",
"D.	c #79020E",
"E.	c #7B0005",
"F.	c #760007",
"G.	c #71000C",
"H.	c #6D0510",
"I.	c #5E020A",
"J.	c #581E1F",
"K.	c #090204",
"L.	c #180204",
"M.	c #000007",
"N.	c #570913",
"O.	c #A72D18",
"P.	c #BF4735",
"Q.	c #CB5D49",
"R.	c #EA927E",
"S.	c #DD8471",
"T.	c #75364D",
"U.	c #080135",
"V.	c #6E1B1B",
"W.	c #86190B",
"X.	c #6E221D",
"Y.	c #B15F55",
"Z.	c #B26156",
"`.	c #7A3333",
" +	c #60010A",
".+	c #62030D",
"++	c #570F12",
"@+	c #56271D",
"#+	c #150001",
"$+	c #2E0B0D",
"%+	c #320911",
"&+	c #24010C",
"*+	c #52181A",
"=+	c #A74E42",
"-+	c #CE6F5E",
";+	c #C58776",
">+	c #4F3237",
",+	c #00001A",
"'+	c #541828",
")+	c #A63B25",
"!+	c #BC320C",
"~+	c #C96B5C",
"{+	c #CC7562",
"]+	c #BE6449",
"^+	c #BC573E",
"/+	c #650C0E",
"(+	c #5A010A",
"_+	c #591A1C",
":+	c #905649",
"<+	c #B17365",
"[+	c #780100",
"}+	c #6B5054",
"|+	c #A599A0",
"1+	c #924D54",
"2+	c #755655",
"3+	c #987567",
"4+	c #C98D84",
"5+	c #835151",
"6+	c #91444C",
"7+	c #83606A",
"8+	c #BAB0B3",
"9+	c #A65348",
"0+	c #D64416",
"a+	c #CB5A3F",
"b+	c #954E2C",
"c+	c #B24A15",
"d+	c #CB5C33",
"e+	c #903921",
"f+	c #4A0004",
"g+	c #592426",
"h+	c #945943",
"i+	c #B15E45",
"j+	c #B44F43",
"k+	c #B95645",
"l+	c #9E675F",
"m+	c #C5A8A0",
"n+	c #ECD5CC",
"o+	c #FFEAE2",
"p+	c #FEDED6",
"q+	c #CA8176",
"r+	c #975556",
"s+	c #A57F84",
"t+	c #BA756E",
"u+	c #CE644D",
"v+	c #D15F4C",
"w+	c #B55536",
"x+	c #8C3E0C",
"y+	c #A94313",
"z+	c #CC5B34",
"A+	c #92431E",
"B+	c #480A11",
"C+	c #542427",
"D+	c #8E5F46",
"E+	c #7E3515",
"F+	c #A2483D",
"G+	c #C26F52",
"H+	c #F8BFAD",
"I+	c #FFEFE9",
"J+	c #FFF6F2",
"K+	c #FFEDE8",
"L+	c #F3D3C9",
"M+	c #FDC7B8",
"N+	c #E9A89B",
"O+	c #DE9486",
"P+	c #EDAC9D",
"Q+	c #E9A293",
"R+	c #D47466",
"S+	c #B05635",
"T+	c #A54413",
"U+	c #C85627",
"V+	c #D46438",
"W+	c #8B451C",
"X+	c #53262A",
"Y+	c #7F503C",
"Z+	c #4C2219",
"`+	c #750300",
" @	c #B45F41",
".@	c #FFB69F",
"+@	c #FFCBBC",
"@@	c #FFD0C4",
"#@	c #F9B3A2",
"$@	c #C77F6C",
"%@	c #E6AFA6",
"&@	c #EAB6AF",
"*@	c #E9B2AA",
"=@	c #E6B5AE",
"-@	c #D09897",
";@	c #C35F5C",
">@	c #C75431",
",@	c #B7582E",
"'@	c #D86538",
")@	c #C85F31",
"!@	c #7B452B",
"~@	c #694233",
"{@	c #2F050C",
"]@	c #270112",
"^@	c #8C4731",
"/@	c #B96346",
"(@	c #B55839",
"_@	c #944136",
":@	c #59346F",
"<@	c #482E73",
"[@	c #47296F",
"}@	c #482B72",
"|@	c #472A73",
"1@	c #341669",
"2@	c #A04242",
"3@	c #CA5A24",
"4@	c #CB5D33",
"5@	c #C75E2D",
"6@	c #8D4510",
"7@	c #744536",
"8@	c #36191A",
"9@	c #392222",
"0@	c #0A0613",
"a@	c #00002D",
"b@	c #000020",
"c@	c #000005",
"d@	c #000033",
"e@	c #1E2268",
"f@	c #000D5B",
"g@	c #000B51",
"h@	c #393276",
"i@	c #3D3073",
"j@	c #4E1A3F",
"k@	c #A3501D",
"l@	c #753F0F",
"m@	c #844510",
"n@	c #783E0C",
"o@	c #4D0E01",
"p@	c #5E2F28",
"q@	c #593D30",
"r@	c #180409",
"s@	c #40040D",
"t@	c #8E2312",
"u@	c #B53D25",
"v@	c #C55B49",
"w@	c #C85F47",
"x@	c #933D32",
"y@	c #5D1233",
"z@	c #541123",
"A@	c #6A3428",
"B@	c #69353C",
"C@	c #3E0E12",
"D@	c #3F1105",
"E@	c #500F02",
"F@	c #592319",
"G@	c #502424",
"H@	c #7C4F34",
"I@	c #804D35",
"J@	c #A52801",
"K@	c #DC5E44",
"L@	c #F9AB9D",
"M@	c #FFDAD5",
"N@	c #FFC9BD",
"O@	c #EA7D64",
"P@	c #C44837",
"Q@	c #711460",
"R@	c #980D3C",
"S@	c #B50513",
"T@	c #AF0A13",
"U@	c #80060F",
"V@	c #520707",
"W@	c #5B3432",
"X@	c #854D70",
"Y@	c #C8615F",
"Z@	c #E69184",
"`@	c #E9AFA7",
" #	c #E29A90",
".#	c #CF7274",
"+#	c #8C5298",
"@#	c #B31C68",
"##	c #D6100E",
"$#	c #E31F22",
"%#	c #F53232",
"&#	c #D61922",
"*#	c #85040E",
"=#	c #83171D",
"-#	c #6781CB",
";#	c #D5445C",
">#	c #E93E28",
",#	c #AA5C8C",
"'#	c #7E7FC7",
")#	c #5E88D8",
"!#	c #7C62AE",
"~#	c #F12E22",
"{#	c #D11219",
"]#	c #EB3234",
"^#	c #FF5454",
"/#	c #FA4E4E",
"(#	c #EE393B",
"_#	c #E43C3E",
":#	c #BB1C24",
"<#	c #B86097",
"[#	c #FF3D03",
"}#	c #EC586D",
"|#	c #7191D8",
"1#	c #639CE0",
"2#	c #4691E7",
"3#	c #C15984",
"4#	c #ED220C",
"5#	c #A40713",
"6#	c #D82D33",
"7#	c #E43236",
"8#	c #F13434",
"9#	c #FE4F50",
"0#	c #FD5B5C",
"a#	c #EC4647",
"b#	c #BF0000",
"c#	c #7B0909",
"d#	c #504C63",
"e#	c #382D3D",
"f#	c #493949",
"g#	c #464E7C",
"h#	c #705978",
"i#	c #7E5A74",
"j#	c #514863",
"k#	c #6A7286",
"l#	c #B6BFA6",
"m#	c #6F8EBC",
"n#	c #BD475E",
"o#	c #D6454C",
"p#	c #C3303B",
"q#	c #D61D2D",
"r#	c #CC131B",
"s#	c #D42029",
"t#	c #E84749",
"u#	c #FF5758",
"v#	c #FC5858",
"w#	c #E63537",
"x#	c #BD7071",
"y#	c #977476",
"z#	c #8C96B8",
"A#	c #808EB1",
"B#	c #8996B6",
"C#	c #B3BCD7",
"D#	c #9AA3BF",
"E#	c #7684AC",
"F#	c #8391B4",
"G#	c #778CC1",
"H#	c #8B7D9E",
"I#	c #746681",
"J#	c #666887",
"K#	c #7881A3",
"L#	c #727799",
"M#	c #6F7195",
"N#	c #7A7095",
"O#	c #837A9F",
"P#	c #867DA0",
"Q#	c #84485B",
"R#	c #9B0911",
"S#	c #B50B10",
"T#	c #BD282B",
"U#	c #E74041",
"V#	c #FF5555",
"W#	c #F99394",
"X#	c #E6C6C7",
"Y#	c #CEC4C4",
"Z#	c #ABA3A4",
"`#	c #9BBAD6",
" $	c #8999C6",
".$	c #8897C4",
"+$	c #8696C3",
"@$	c #8494C0",
"#$	c #8191BD",
"$$	c #8394C1",
"%$	c #8797C5",
"&$	c #8A99C8",
"*$	c #8B98C8",
"=$	c #8A98C7",
"-$	c #808CBA",
";$	c #514D6B",
">$	c #4B435F",
",$	c #585370",
"'$	c #4B4B67",
")$	c #42405B",
"!$	c #43425D",
"~$	c #525375",
"{$	c #64678F",
"]$	c #767FA9",
"^$	c #78799A",
"/$	c #7A121D",
"($	c #B40000",
"_$	c #985A59",
":$	c #C26568",
"<$	c #EA9797",
"[$	c #F4DBDA",
"}$	c #E3E2E2",
"|$	c #E5E6E6",
"1$	c #D1D2D2",
"2$	c #A7A1A1",
"3$	c #545E7F",
"4$	c #443F5C",
"5$	c #423D5A",
"6$	c #4D394A",
"7$	c #583A46",
"8$	c #5B3F49",
"9$	c #5B414B",
"0$	c #47394F",
"a$	c #3B3958",
"b$	c #423B59",
"c$	c #413B59",
"d$	c #474E6C",
"e$	c #495277",
"f$	c #4E4A64",
"g$	c #4E526B",
"h$	c #4A4A61",
"i$	c #443B55",
"j$	c #48435E",
"k$	c #545173",
"l$	c #5C5B80",
"m$	c #676B88",
"n$	c #734035",
"o$	c #853441",
"p$	c #898586",
"q$	c #917286",
"r$	c #C5AEB0",
"s$	c #D8DCDC",
"t$	c #EBEEED",
"u$	c #F9FAFA",
"v$	c #F8F9F9",
"w$	c #E8E7E7",
"x$	c #BDB6B6",
"y$	c #34374C",
"z$	c #252039",
"A$	c #271E38",
"B$	c #593C3E",
"C$	c #774639",
"D$	c #7A4733",
"E$	c #754B3E",
"F$	c #6C4131",
"G$	c #683F35",
"H$	c #39202F",
"I$	c #211D3A",
"J$	c #495071",
"K$	c #505F89",
"L$	c #423D53",
"M$	c #4F5370",
"N$	c #505370",
"O$	c #453F59",
"P$	c #45405A",
"Q$	c #46405D",
"R$	c #554B6A",
"S$	c #4F4862",
"T$	c #653B26",
"U$	c #77493A",
"V$	c #6C5254",
"W$	c #6A5A7B",
"X$	c #A3A5B1",
"Y$	c #E1E5E5",
"Z$	c #FFFFFF",
"`$	c #E5E4E4",
" %	c #A9A0A0",
".%	c #6A525C",
"+%	c #653828",
"@%	c #66382C",
"#%	c #633832",
"$%	c #673C30",
"%%	c #794A37",
"&%	c #4A3035",
"*%	c #464A6B",
"=%	c #4C5477",
"-%	c #5B6E98",
";%	c #494862",
">%	c #45425D",
",%	c #42405A",
"'%	c #4A4361",
")%	c #4C4763",
"!%	c #4C4460",
"~%	c #52445F",
"{%	c #4D3F55",
"]%	c #5C301E",
"^%	c #684039",
"/%	c #5F3523",
"(%	c #3F1955",
"_%	c #8E8CA5",
":%	c #E5E5E8",
"<%	c #FEFEFE",
"[%	c #EBEBEB",
"}%	c #B8B5B5",
"|%	c #72585E",
"1%	c #633827",
"2%	c #673C31",
"3%	c #673B2F",
"4%	c #603628",
"5%	c #744535",
"6%	c #543534",
"7%	c #4C577F",
"8%	c #536191",
"9%	c #697CA2",
"0%	c #4B4F68",
"a%	c #4C425D",
"b%	c #4D435E",
"c%	c #4D415C",
"d%	c #534963",
"e%	c #4A3E52",
"f%	c #573329",
"g%	c #4F465B",
"h%	c #59383A",
"i%	c #3A1756",
"j%	c #8885A8",
"k%	c #E5E5EA",
"l%	c #FCFCFC",
"m%	c #FDFDFD",
"n%	c #F1F1F1",
"o%	c #D3D4D4",
"p%	c #ABAAAA",
"q%	c #7F7174",
"r%	c #72605C",
"s%	c #7C6A60",
"t%	c #6D554C",
"u%	c #7A5541",
"v%	c #7E5941",
"w%	c #624150",
"x%	c #27227C",
"y%	c #323BA2",
"z%	c #3B447D",
"A%	c #2A3067",
"B%	c #2E3488",
"C%	c #353885",
"D%	c #32347B",
"E%	c #332E50",
"F%	c #4B4C59",
"G%	c #464555",
"H%	c #413F51",
"I%	c #3F2441",
"J%	c #433748",
"K%	c #4C3D54",
"L%	c #3D1858",
"M%	c #807EA4",
"N%	c #DFDEE5",
"O%	c #E3E3E2",
"P%	c #E3E3E3",
"Q%	c #E5E5E5",
"R%	c #CFCECE",
"S%	c #B7B8B8",
"T%	c #9D9C9C",
"U%	c #736262",
"V%	c #975E08",
"W%	c #A16511",
"X%	c #CA720C",
"Y%	c #E8A746",
"Z%	c #E1A13F",
"`%	c #8F604A",
" &	c #191889",
".&	c #28349F",
"+&	c #4360B7",
"@&	c #4F77CE",
"#&	c #4971CD",
"$&	c #3959BC",
"%&	c #373E8B",
"&&	c #5F6773",
"*&	c #616974",
"=&	c #555768",
"-&	c #363069",
";&	c #422538",
">&	c #4E4E6A",
",&	c #492B4A",
"'&	c #615C88",
")&	c #B3B2BE",
"!&	c #ABABAB",
"~&	c #B1B1B0",
"{&	c #BCBCBC",
"]&	c #AEAEAD",
"^&	c #AAABAB",
"/&	c #8E8B8B",
"(&	c #655154",
"_&	c #B28F47",
":&	c #BF9747",
"<&	c #D5983D",
"[&	c #DCA54A",
"}&	c #E9AA48",
"|&	c #D8933A",
"1&	c #663A6D",
"2&	c #416CC3",
"3&	c #548AE2",
"4&	c #517ED8",
"5&	c #4773D5",
"6&	c #3B63CB",
"7&	c #3852B7",
"8&	c #535A85",
"9&	c #5E6681",
"0&	c #5A5F80",
"a&	c #363578",
"b&	c #3C1A42",
"c&	c #555470",
"d&	c #5F4E60",
"e&	c #493264",
"f&	c #6A698F",
"g&	c #726F7C",
"h&	c #878693",
"i&	c #B0B0B4",
"j&	c #AEAEAC",
"k&	c #9C9B9B",
"l&	c #736968",
"m&	c #503D4F",
"n&	c #68471E",
"o&	c #897541",
"p&	c #8F7841",
"q&	c #C59C46",
"r&	c #D2A547",
"s&	c #D7953A",
"t&	c #D9841D",
"u&	c #8D4000",
"v&	c #4461AD",
"w&	c #4074DD",
"x&	c #395CCD",
"y&	c #314FC3",
"z&	c #263FB1",
"A&	c #273DAE",
"B&	c #37409E",
"C&	c #424689",
"D&	c #3E4485",
"E&	c #222076",
"F&	c #321341",
"G&	c #544E64",
"H&	c #6A5B71",
"I&	c #4D2141",
"J&	c #4C3C6A",
"K&	c #51395D",
"L&	c #645886",
"M&	c #9895A6",
"N&	c #83828B",
"O&	c #78727A",
"P&	c #54424D",
"Q&	c #4D4763",
"R&	c #67411D",
"S&	c #8C7540",
"T&	c #897340",
"U&	c #9F7D3E",
"V&	c #CFA548",
"W&	c #D59638",
"X&	c #CE740C",
"Y&	c #924D28",
"Z&	c #483D66",
"`&	c #3A53B4",
" *	c #324DC6",
".*	c #2C42B6",
"+*	c #2434A2",
"@*	c #272E92",
"#*	c #2E2681",
"$*	c #29227A",
"%*	c #1E1B6B",
"&*	c #161356",
"**	c #221436",
"=*	c #653A2E",
"-*	c #72443B",
";*	c #4B323D",
">*	c #3E040B",
",*	c #6C4D3F",
"'*	c #4D2459",
")*	c #756277",
"!*	c #514263",
"~*	c #4A4462",
"{*	c #856B39",
"]*	c #8C7641",
"^*	c #877240",
"/*	c #A08744",
"(*	c #D0A747",
"_*	c #C47616",
":*	c #A84E0A",
"<*	c #49305D",
"[*	c #283695",
"}*	c #2D3EAC",
"|*	c #263193",
"1*	c #1E1F80",
"2*	c #201C73",
"3*	c #201967",
"4*	c #181455",
"5*	c #15114A",
"6*	c #0F0D44",
"7*	c #1C1D47",
"8*	c #484059",
"9*	c #3A1F37",
"0*	c #571B0C",
"a*	c #450601",
"b*	c #764920",
"c*	c #764B32",
"d*	c #56577B",
"e*	c #6F4721",
"f*	c #8B7540",
"g*	c #89733F",
"h*	c #BD9642",
"i*	c #CB9238",
"j*	c #A04000",
"k*	c #5D334F",
"l*	c #222D86",
"m*	c #252C91",
"n*	c #1F196E",
"o*	c #1B115A",
"p*	c #1A1259",
"q*	c #14104D",
"r*	c #191658",
"s*	c #201B5E",
"t*	c #1C1858",
"u*	c #1D1C59",
"v*	c #192457",
"w*	c #391220",
"x*	c #631F01",
"y*	c #4E0E00",
"z*	c #5B2C0B",
"A*	c #865432",
"B*	c #3A2D3A",
"C*	c #5B5C82",
"D*	c #724F2A",
"E*	c #8D763F",
"F*	c #8A733E",
"G*	c #9F7C3C",
"H*	c #C39D4A",
"I*	c #7D4818",
"J*	c #661F11",
"K*	c #2C1F75",
"L*	c #1B1A76",
"M*	c #1A0F47",
"N*	c #1B0E3F",
"O*	c #1A1A5D",
"P*	c #28327C",
"Q*	c #2E3584",
"R*	c #292C76",
"S*	c #29276D",
"T*	c #281E5D",
"U*	c #0F1050",
"V*	c #5A2414",
"W*	c #783304",
"X*	c #661D00",
"Y*	c #4B1304",
"Z*	c #8C5D36",
"`*	c #3C3A51",
" =	c #5F5E82",
".=	c #5E5F85",
"+=	c #7D5D2E",
"@=	c #917038",
"#=	c #B99446",
"$=	c #9A6E34",
"%=	c #580F12",
"&=	c #33175A",
"*=	c #180F57",
"==	c #32082E",
"-=	c #25266D",
";=	c #36429F",
">=	c #333D94",
",=	c #2D3482",
"'=	c #2B2E76",
")=	c #1A1959",
"!=	c #3D1A4B",
"~=	c #8F3D06",
"{=	c #933C01",
"]=	c #712600",
"^=	c #501001",
"/=	c #885933",
"(=	c #5F2D14",
"_=	c #524F6F",
":=	c #886C36",
"<=	c #89733E",
"[=	c #9C8243",
"}=	c #BA913B",
"|=	c #511304",
"1=	c #3A0D40",
"2=	c #3F0C35",
"3=	c #3B388D",
"4=	c #363C95",
"5=	c #313789",
"6=	c #32327C",
"7=	c #3B0E3B",
"8=	c #510F16",
"9=	c #9F5408",
"0=	c #AA5E09",
"a=	c #883902",
"b=	c #5E1701",
"c=	c #936239",
"d=	c #663516",
"e=	c #8C753E",
"f=	c #907A42",
"g=	c #BA943E",
"h=	c #6A3A0F",
"i=	c #450004",
"j=	c #964E05",
"k=	c #BC6E0D",
"l=	c #9C4904",
"m=	c #6E3007",
"n=	c #936237",
"o=	c #5A1F10",
"p=	c #6F4B1C",
"q=	c #856D35",
"r=	c #A48137",
"s=	c #632C08",
"t=	c #611300",
"u=	c #853E02",
"v=	c #753203",
"w=	c #611C03",
"x=	c #5F2213",
"                                                                                                    ",
"                                                                                                    ",
"                                          . + @ #                                                   ",
"                                      $ % & * = - ; >                                               ",
"                                      , ' ) ! ~ { ] ^ /                                             ",
"                                    ( _ : < [ } | 1 2 3 4                                           ",
"                                    5 6 7 8 9 0 a b c d e f                                         ",
"                                g h i j k ! l m n o p q r s                                         ",
"                              t u v w x y z A B C D E F G H I                                       ",
"                            J K L M N O P Q R S T U V W X Y Z                                       ",
"                            `  ...+.@.#.$.%.&.*.=.-.;.>.,.'.).!.~.                                  ",
"                            {.].^./.(._.:.<.[.}.|.1.2.3.4.5.6.7.8.9.                                ",
"                              0.a.b.c.d.e.f.g.      h.i.j.k.l.m.n.o.p.                              ",
"                                q.r.s.t.u.v.w.x.y.z.A.B.C.D.E.F.G.H.I.J.                            ",
"                                K.L.M.N.O.P.Q.R.S.T.U.V.W.X.Y.Z.`. +.+++                            ",
"                              @+#+$+%+&+*+=+-+;+>+,+'+)+!+~+{+]+^+/+(+_+                            ",
"                            :+<+[+}+|+1+2+3+4+5+6+7+8+9+0+a+b+c+d+e+f+g+                            ",
"                            h+i+j+k+l+m+n+o+p+q+r+s+t+u+v+w+x+y+z+A+B+C+                            ",
"                            D+E+F+G+H+I+J+K+L+M+N+O+P+Q+R+S+T+U+V+W+X+                              ",
"                            Y+Z+`+ @.@+@@@#@$@%@&@*@=@-@;@>@,@'@)@!@                                ",
"                              ~@{@]@^@/@(@_@:@<@[@}@|@1@2@3@4@5@6@7@                                ",
"                              8@9@0@a@b@c@d@e@f@g@h@i@j@k@l@m@n@o@p@                                ",
"                                  q@r@s@t@u@v@w@x@y@z@A@B@C@D@E@F@G@                                ",
"                                  H@I@J@K@L@M@N@O@P@Q@R@S@T@U@V@W@                                  ",
"                                      X@Y@Z@`@ #.#+#@###$#%#&#*#=#                                  ",
"                                      -#;#>#,#'#)#!#~#{#]#^#/#(#_#:#                                ",
"                                      <#[#}#|#1#2#3#4#5#6#7#8#9#0#a#b#c#                            ",
"                        d#e#f#      g#h#i#j#k#l#m#n#o#p#q#r#s#t#u#v#w#x#y#                          ",
"                      z#A#B#C#D#E#F#G#H#I#J#K#L#M#N#O#P#Q#R#S#T#U#V#W#X#Y#Z#                        ",
"          `#     $.$+$@$#$$$%$&$*$=$-$;$>$,$'$)$!$~${$]$^$/$($_$:$<$[$}$|$1$2$                      ",
"          3$    4$4$5$6$7$8$9$0$a$b$c$d$e$f$g$h$i$j$k$l$m$n$o$p$q$r$s$t$u$v$w$x$                    ",
"            y$z$    A$B$C$D$E$F$G$H$I$J$K$L$M$N$O$P$Q$R$S$T$U$V$W$X$Y$Z$Z$Z$Z$`$ %                  ",
"                      .%+%@%#%$%%%&%*%=%-%;%>%,%'%)%!%~%{%]%^%/%(%_%:%Z$Z$Z$<%[%}%                  ",
"                      |%1%2%3%4%5%6%7%8%9%0%a%b%!%c%c%d%e%f%g%h%i%j%k%l%Z$m%n%o%p%q%                ",
"                        r%s%t%u%v%w%x%y%z%A%B%C%D%E%F%G%H%I%J%K%L%M%N%O%P%Q%R%S%T%U%                ",
"                          V%W%X%Y%Z%`% &.&+&@&#&$&%&&&*&=&-&;&>&,&'&)&!&~&{&]&^&/&(&                ",
"                          _&:&<&[&}&|&1&2&3&4&5&6&7&8&9&0&a&b&c&d&e&f&g&h&i&j&k&l&m&                ",
"                        n&o&p&q&r&s&t&u&v&w&x&y&z&A&B&C&D&E&F&G&H&I&J&K&L&M&N&O&P&Q&                ",
"                        R&S&T&U&V&W&X&Y&Z&`& *.*+*@*#*$*%*&***=*-*;*>*,*'*)*!*  ~*                  ",
"                          {*]*^*/*(*_*:*<*[*}*|*1*2*3*4*5*6*7*8*9*0*a*b*c*      d*                  ",
"                          e*f*f*g*h*i*j*k*l*m*n*o*p*q*r*s*t*u*v*w*x*y*z*A*  B*  C*                  ",
"                            D*E*F*G*H*I*J*K*L*M*N*O*P*Q*R*S*T*U*V*W*X*Y*Z*  `* =.=                  ",
"                              +=E*@=#=$=%=&=*===  -=;=>=,='=)=!=~={=]=^=/=(=  _=                    ",
"                                :=<=[=}=|=1=      2=3=4=5=6=7=8=9=0=a=b=c=d=                        ",
"                                  e=f=g=h=i=                    j=k=l=m=n=o=                        ",
"                                  p=q=r=s=                      t=u=v=w=x=                          ",
"                                                                                                    ",
"                                                                                                    ",
"                                                                                                    ",
"                                                                                                    "};
