/* XPM */
static char * mario6_xpm[] = {
"50 50 797 2",
"  	c #FF000000",
". 	c #A13736",
"+ 	c #A33B39",
"@ 	c #CC4A47",
"# 	c #F76C6C",
"$ 	c #FE6D6D",
"% 	c #FE5F5E",
"& 	c #FA6564",
"* 	c #E45959",
"= 	c #CC524D",
"- 	c #FFB6B3",
"; 	c #FFE6E5",
"> 	c #FFE4E4",
", 	c #FFB1B1",
"' 	c #FF6563",
") 	c #FF6868",
"! 	c #FD6463",
"~ 	c #C5403E",
"{ 	c #FAA09D",
"] 	c #EFB7B4",
"^ 	c #EDB9B6",
"/ 	c #EAB0AD",
"( 	c #FDF3F3",
"_ 	c #FF9796",
": 	c #FF605E",
"< 	c #FF6867",
"[ 	c #FF5D5B",
"} 	c #C02E2C",
"| 	c #FC8B88",
"1 	c #E3908B",
"2 	c #EDB1AE",
"3 	c #E38680",
"4 	c #F6DCDA",
"5 	c #FFAEAD",
"6 	c #FF5350",
"7 	c #FF605D",
"8 	c #FF5956",
"9 	c #FA4240",
"0 	c #D23B39",
"a 	c #F75C59",
"b 	c #FBB4B2",
"c 	c #F4C4C2",
"d 	c #F4CDCC",
"e 	c #FA7675",
"f 	c #FF3D39",
"g 	c #FE4C4A",
"h 	c #FC4D4A",
"i 	c #FB3F3E",
"j 	c #D3181C",
"k 	c #B53D3B",
"l 	c #9B2426",
"m 	c #821318",
"n 	c #81161A",
"o 	c #9E2F2F",
"p 	c #DE4F4D",
"q 	c #FC6362",
"r 	c #FF8B8B",
"s 	c #F17E7E",
"t 	c #DE0000",
"u 	c #F0221F",
"v 	c #F63230",
"w 	c #F53534",
"x 	c #F02F2F",
"y 	c #D7131A",
"z 	c #900D12",
"A 	c #B33535",
"B 	c #530007",
"C 	c #570109",
"D 	c #450006",
"E 	c #200003",
"F 	c #480000",
"G 	c #971718",
"H 	c #E13838",
"I 	c #FC4C4A",
"J 	c #EE4143",
"K 	c #C60A12",
"L 	c #CD0F15",
"M 	c #D8151A",
"N 	c #D8151B",
"O 	c #C90E16",
"P 	c #A0060F",
"Q 	c #8A1216",
"R 	c #200106",
"S 	c #220306",
"T 	c #1F0306",
"U 	c #2D0306",
"V 	c #2E0307",
"W 	c #110003",
"X 	c #510001",
"Y 	c #9C0C10",
"Z 	c #DA282D",
"` 	c #CC161E",
" .	c #9F0610",
"..	c #B80912",
"+.	c #C20B13",
"@.	c #BC0A13",
"#.	c #A10713",
"$.	c #70050E",
"%.	c #490406",
"&.	c #050305",
"*.	c #0A0305",
"=.	c #170306",
"-.	c #330305",
";.	c #4B0308",
">.	c #57040C",
",.	c #490208",
"'.	c #000001",
").	c #470002",
"!.	c #91070A",
"~.	c #91060D",
"{.	c #920511",
"].	c #A80712",
"^.	c #AF0712",
"/.	c #A20715",
"(.	c #860614",
"_.	c #72030F",
":.	c #62070D",
"<.	c #380508",
"[.	c #160205",
"}.	c #060205",
"|.	c #0F0205",
"1.	c #1F0205",
"2.	c #280104",
"3.	c #2A0103",
"4.	c #140002",
"5.	c #530706",
"6.	c #6D080D",
"7.	c #870613",
"8.	c #990714",
"9.	c #9B0715",
"0.	c #8C0714",
"a.	c #790612",
"b.	c #6B040E",
"c.	c #59080C",
"d.	c #0A0205",
"e.	c #030305",
"f.	c #020206",
"g.	c #380406",
"h.	c #4C0504",
"i.	c #590A05",
"j.	c #76170A",
"k.	c #921E08",
"l.	c #B84932",
"m.	c #AD422A",
"n.	c #57070F",
"o.	c #3B090B",
"p.	c #64080C",
"q.	c #79020E",
"r.	c #7B0005",
"s.	c #760007",
"t.	c #71000C",
"u.	c #6D0510",
"v.	c #5E020A",
"w.	c #090204",
"x.	c #180204",
"y.	c #000007",
"z.	c #570913",
"A.	c #A72D18",
"B.	c #BF4735",
"C.	c #CB5D49",
"D.	c #EA927E",
"E.	c #DD8471",
"F.	c #75364D",
"G.	c #080135",
"H.	c #6E1B1B",
"I.	c #86190B",
"J.	c #6E221D",
"K.	c #B15F55",
"L.	c #B26156",
"M.	c #7A3333",
"N.	c #60010A",
"O.	c #62030D",
"P.	c #570F12",
"Q.	c #150001",
"R.	c #2E0B0D",
"S.	c #320911",
"T.	c #24010C",
"U.	c #52181A",
"V.	c #A74E42",
"W.	c #CE6F5E",
"X.	c #C58776",
"Y.	c #4F3237",
"Z.	c #00001A",
"`.	c #541828",
" +	c #A63B25",
".+	c #BC320C",
"++	c #C96B5C",
"@+	c #CC7562",
"#+	c #BE6449",
"$+	c #BC573E",
"%+	c #650C0E",
"&+	c #5A010A",
"*+	c #591A1C",
"=+	c #B17365",
"-+	c #780100",
";+	c #6B5054",
">+	c #A599A0",
",+	c #924D54",
"'+	c #755655",
")+	c #987567",
"!+	c #C98D84",
"~+	c #835151",
"{+	c #91444C",
"]+	c #83606A",
"^+	c #BAB0B3",
"/+	c #A65348",
"(+	c #D64416",
"_+	c #CB5A3F",
":+	c #954E2C",
"<+	c #B24A15",
"[+	c #CB5C33",
"}+	c #903921",
"|+	c #4A0004",
"1+	c #582425",
"2+	c #B15E45",
"3+	c #B44F43",
"4+	c #B95645",
"5+	c #9E675F",
"6+	c #C5A8A0",
"7+	c #ECD5CC",
"8+	c #FFEAE2",
"9+	c #FEDED6",
"0+	c #CA8176",
"a+	c #975556",
"b+	c #A57F84",
"c+	c #BA756E",
"d+	c #CE644D",
"e+	c #D15F4C",
"f+	c #B55536",
"g+	c #8C3E0C",
"h+	c #A94313",
"i+	c #CC5B34",
"j+	c #92431E",
"k+	c #480A11",
"l+	c #562324",
"m+	c #7E3515",
"n+	c #A2483D",
"o+	c #C26F52",
"p+	c #F8BFAD",
"q+	c #FFEFE9",
"r+	c #FFF6F2",
"s+	c #FFEDE8",
"t+	c #F3D3C9",
"u+	c #FDC7B8",
"v+	c #E9A89B",
"w+	c #DE9486",
"x+	c #EDAC9D",
"y+	c #E9A293",
"z+	c #D47466",
"A+	c #B05635",
"B+	c #A54413",
"C+	c #C85627",
"D+	c #D46438",
"E+	c #8A451C",
"F+	c #51212A",
"G+	c #481A16",
"H+	c #750300",
"I+	c #B45F41",
"J+	c #FFB69F",
"K+	c #FFCBBC",
"L+	c #FFD0C4",
"M+	c #F9B3A2",
"N+	c #C77F6C",
"O+	c #E6AFA6",
"P+	c #EAB6AF",
"Q+	c #E9B2AA",
"R+	c #E6B5AE",
"S+	c #D09897",
"T+	c #C35F5C",
"U+	c #C75431",
"V+	c #B7582E",
"W+	c #D86538",
"X+	c #C85F31",
"Y+	c #794229",
"Z+	c #2F050C",
"`+	c #270112",
" @	c #8C4731",
".@	c #B96346",
"+@	c #B55839",
"@@	c #944136",
"#@	c #59346F",
"$@	c #482E73",
"%@	c #47296F",
"&@	c #482B72",
"*@	c #472A73",
"=@	c #341669",
"-@	c #A04242",
";@	c #CA5A24",
">@	c #CB5D33",
",@	c #C75E2D",
"'@	c #8D4510",
")@	c #6E4034",
"!@	c #3A2222",
"~@	c #0A0613",
"{@	c #00002D",
"]@	c #000020",
"^@	c #000005",
"/@	c #000033",
"(@	c #1E2268",
"_@	c #000D5B",
":@	c #000B51",
"<@	c #393276",
"[@	c #3D3073",
"}@	c #4E1A3F",
"|@	c #A3501D",
"1@	c #753F0F",
"2@	c #844510",
"3@	c #783E0C",
"4@	c #4D0E01",
"5@	c #3D2726",
"6@	c #180409",
"7@	c #40040D",
"8@	c #8E2312",
"9@	c #B53D25",
"0@	c #C55B49",
"a@	c #C85F47",
"b@	c #933D32",
"c@	c #5D1233",
"d@	c #541123",
"e@	c #6A3428",
"f@	c #69353C",
"g@	c #3E0E12",
"h@	c #3F1105",
"i@	c #500F02",
"j@	c #5A2319",
"k@	c #6E392C",
"l@	c #A52801",
"m@	c #DC5E44",
"n@	c #F9AB9D",
"o@	c #FFDAD5",
"p@	c #FFC9BD",
"q@	c #EA7D64",
"r@	c #C44837",
"s@	c #711460",
"t@	c #980D3C",
"u@	c #B50513",
"v@	c #AF0A13",
"w@	c #80060F",
"x@	c #520707",
"y@	c #573532",
"z@	c #854D70",
"A@	c #C8615F",
"B@	c #E69184",
"C@	c #E9AFA7",
"D@	c #E29A90",
"E@	c #CF7274",
"F@	c #8C5298",
"G@	c #B31C68",
"H@	c #D6100E",
"I@	c #E31F22",
"J@	c #F53232",
"K@	c #D61922",
"L@	c #85040E",
"M@	c #6781CB",
"N@	c #D5445C",
"O@	c #E93E28",
"P@	c #AA5C8C",
"Q@	c #7E7FC7",
"R@	c #5E88D8",
"S@	c #7C62AE",
"T@	c #F12E22",
"U@	c #D11219",
"V@	c #EB3234",
"W@	c #FF5454",
"X@	c #FA4E4E",
"Y@	c #C61019",
"Z@	c #B86097",
"`@	c #FF3D03",
" #	c #EC586D",
".#	c #7191D8",
"+#	c #639CE0",
"@#	c #4691E7",
"##	c #C15984",
"$#	c #ED220C",
"%#	c #A40713",
"&#	c #D82D33",
"*#	c #F04446",
"=#	c #F53F40",
"-#	c #F73738",
";#	c #B60D17",
">#	c #A19597",
",#	c #B7B1B6",
"'#	c #B8B0BC",
")#	c #A99EB6",
"!#	c #A6A793",
"~#	c #DBD05B",
"{#	c #908FA0",
"]#	c #C63562",
"^#	c #F74547",
"/#	c #E2383B",
"(#	c #A40811",
"_#	c #D62A32",
":#	c #FD5354",
"<#	c #FF5656",
"[#	c #CE222A",
"}#	c #665F67",
"|#	c #888897",
"1#	c #7E8093",
"2#	c #525167",
"3#	c #828390",
"4#	c #CCD2D9",
"5#	c #B4B7BF",
"6#	c #BDB3B6",
"7#	c #CB555D",
"8#	c #E84348",
"9#	c #C1141D",
"0#	c #880508",
"a#	c #C93235",
"b#	c #FF5B5C",
"c#	c #FD5D5D",
"d#	c #D5262E",
"e#	c #7F0E15",
"f#	c #8E99B7",
"g#	c #8E96AE",
"h#	c #747990",
"i#	c #666887",
"j#	c #8388A7",
"k#	c #8A8CA6",
"l#	c #8284A0",
"m#	c #8085A4",
"n#	c #7F7DA2",
"o#	c #8B7D9F",
"p#	c #93495D",
"q#	c #4D020F",
"r#	c #D0060B",
"s#	c #FE4C4C",
"t#	c #FB5152",
"u#	c #CE0F11",
"v#	c #864849",
"w#	c #583638",
"x#	c #9BBAD6",
"y#	c #8999C6",
"z#	c #8897C4",
"A#	c #8696C3",
"B#	c #8494C0",
"C#	c #8191BD",
"D#	c #8394C1",
"E#	c #8797C5",
"F#	c #8A99C8",
"G#	c #8B98C8",
"H#	c #8A98C7",
"I#	c #808CBA",
"J#	c #58576E",
"K#	c #525064",
"L#	c #5B5572",
"M#	c #4B4B67",
"N#	c #42405B",
"O#	c #43425D",
"P#	c #525375",
"Q#	c #64678F",
"R#	c #767FA9",
"S#	c #6F6F94",
"T#	c #602E59",
"U#	c #DF7272",
"V#	c #FC8383",
"W#	c #F75757",
"X#	c #C2060D",
"Y#	c #6F080A",
"Z#	c #9C9694",
"`#	c #545E7F",
" $	c #443F5C",
".$	c #423D5A",
"+$	c #4D394A",
"@$	c #583A46",
"#$	c #5B3F49",
"$$	c #5B414B",
"%$	c #47394F",
"&$	c #3B3958",
"*$	c #423B59",
"=$	c #423C58",
"-$	c #505268",
";$	c #5D5F75",
">$	c #504D67",
",$	c #4E526B",
"'$	c #4A4A61",
")$	c #443B55",
"!$	c #48435E",
"~$	c #545173",
"{$	c #5C5B80",
"]$	c #49477E",
"^$	c #9A97A6",
"/$	c #D4BCBA",
"($	c #F5DCDC",
"_$	c #F4DCDC",
":$	c #D3A2A4",
"<$	c #6E3639",
"[$	c #B8B5B2",
"}$	c #725857",
"|$	c #34374C",
"1$	c #252039",
"2$	c #593C3D",
"3$	c #774639",
"4$	c #7A4733",
"5$	c #754B3E",
"6$	c #6C4131",
"7$	c #683F35",
"8$	c #391F2E",
"9$	c #211B37",
"0$	c #4F536B",
"a$	c #6B7187",
"b$	c #494459",
"c$	c #4F5370",
"d$	c #505370",
"e$	c #453F59",
"f$	c #45405A",
"g$	c #443E60",
"h$	c #413972",
"i$	c #5F5C8B",
"j$	c #B4B4B8",
"k$	c #E3E8E8",
"l$	c #DADFDF",
"m$	c #DBDDDD",
"n$	c #DFDCDD",
"o$	c #A69798",
"p$	c #88746F",
"q$	c #8D7775",
"r$	c #653828",
"s$	c #66382C",
"t$	c #633832",
"u$	c #673C30",
"v$	c #794A37",
"w$	c #4A2E30",
"x$	c #464760",
"y$	c #51546E",
"z$	c #687592",
"A$	c #4E4C63",
"B$	c #45425D",
"C$	c #42405A",
"D$	c #4A4361",
"E$	c #4C4763",
"F$	c #332A71",
"G$	c #656297",
"H$	c #B5B4C5",
"I$	c #F6F6F5",
"J$	c #FCFCFC",
"K$	c #FFFFFF",
"L$	c #F2F3F3",
"M$	c #CFD1D1",
"N$	c #837979",
"O$	c #673830",
"P$	c #744635",
"Q$	c #633827",
"R$	c #673C31",
"S$	c #673B2F",
"T$	c #603628",
"U$	c #744535",
"V$	c #543534",
"W$	c #4E5471",
"X$	c #545C7A",
"Y$	c #697CA2",
"Z$	c #4B4F68",
"`$	c #4C425D",
" %	c #4D435E",
".%	c #4C4460",
"+%	c #4A3E5D",
"@%	c #31237F",
"#%	c #BAB9CC",
"$%	c #F2F2F4",
"%%	c #E3E3E3",
"&%	c #897C7C",
"*%	c #571F19",
"=%	c #5D3324",
"-%	c #613727",
";%	c #673D31",
">%	c #4F2712",
",%	c #726D92",
"'%	c #643E27",
")%	c #704A2E",
"!%	c #562F18",
"~%	c #643316",
"{%	c #703A18",
"]%	c #683619",
"^%	c #4D171B",
"/%	c #383776",
"(%	c #3F456A",
"_%	c #3D3E55",
":%	c #35346D",
"<%	c #31317A",
"[%	c #323172",
"}%	c #211F61",
"|%	c #78759B",
"1%	c #CBCBCF",
"2%	c #EFEFEE",
"3%	c #FEFEFE",
"4%	c #F2F2F2",
"5%	c #948484",
"6%	c #5B2A22",
"7%	c #603328",
"8%	c #5E3222",
"9%	c #563737",
"0%	c #3E2329",
"a%	c #4A3B56",
"b%	c #6F421C",
"c%	c #9A6D3D",
"d%	c #9E7342",
"e%	c #65310C",
"f%	c #763507",
"g%	c #7E3500",
"h%	c #4E1621",
"i%	c #3748B8",
"j%	c #2D3BA5",
"k%	c #100C5A",
"l%	c #201D79",
"m%	c #2A247E",
"n%	c #2A237B",
"o%	c #202887",
"p%	c #72728E",
"q%	c #979695",
"r%	c #B5B6B4",
"s%	c #EEEEEE",
"t%	c #FDFEFE",
"u%	c #EDECEC",
"v%	c #918181",
"w%	c #683C35",
"x%	c #6B392D",
"y%	c #6A352A",
"z%	c #5F2D21",
"A%	c #4A415C",
"B%	c #845A31",
"C%	c #A27745",
"D%	c #9C6E3E",
"E%	c #521002",
"F%	c #631D00",
"G%	c #521605",
"H%	c #363A9E",
"I%	c #353BA3",
"J%	c #1B1762",
"K%	c #251C5F",
"L%	c #302469",
"M%	c #2E236E",
"N%	c #363273",
"O%	c #4D5184",
"P%	c #6D6C77",
"Q%	c #B1B1B2",
"R%	c #C8C8C8",
"S%	c #E2E2E2",
"T%	c #E5E5E5",
"U%	c #E6E7E7",
"V%	c #C8C5C5",
"W%	c #826D6C",
"X%	c #643524",
"Y%	c #6C3C2E",
"Z%	c #633322",
"`%	c #4D4765",
" &	c #734B1D",
".&	c #886133",
"+&	c #AC7C4A",
"@&	c #7A502B",
"#&	c #460300",
"$&	c #4A0F00",
"%&	c #371B60",
"&&	c #2E3499",
"*&	c #262973",
"=&	c #161046",
"-&	c #221B5A",
";&	c #231F68",
">&	c #222174",
",&	c #2339AE",
"'&	c #8484A4",
")&	c #BFBFBE",
"!&	c #AAAAA9",
"~&	c #ACACAC",
"{&	c #B7B7B7",
"]&	c #B3B3B3",
"^&	c #999191",
"/&	c #674949",
"(&	c #572A1E",
"_&	c #6D3C32",
":&	c #6B3D32",
"<&	c #5E3422",
"[&	c #4B4765",
"}&	c #4E4C6D",
"|&	c #805A2C",
"1&	c #92663A",
"2&	c #A9794A",
"3&	c #5D2E0C",
"4&	c #430700",
"5&	c #39134E",
"6&	c #292E8C",
"7&	c #272B71",
"8&	c #16134D",
"9&	c #110E3D",
"0&	c #15144B",
"a&	c #1B1A63",
"b&	c #1C3AB5",
"c&	c #8B8EB2",
"d&	c #9B9B9A",
"e&	c #A5A6A5",
"f&	c #AFB0B0",
"g&	c #9A9999",
"h&	c #8D8787",
"i&	c #715C5E",
"j&	c #5F2833",
"k&	c #6C2808",
"l&	c #582C1E",
"m&	c #683E3D",
"n&	c #4D3034",
"o&	c #4E4C6C",
"p&	c #643814",
"q&	c #886135",
"r&	c #A67A4A",
"s&	c #8D613A",
"t&	c #340000",
"u&	c #3C1131",
"v&	c #30226C",
"w&	c #2E2471",
"x&	c #251B60",
"y&	c #201351",
"z&	c #310C3A",
"A&	c #171248",
"B&	c #1F2687",
"C&	c #213AB0",
"D&	c #5C506C",
"E&	c #8A8686",
"F&	c #756D6E",
"G&	c #746768",
"H&	c #5F4249",
"I&	c #493466",
"J&	c #682933",
"K&	c #813300",
"L&	c #5A190C",
"M&	c #5B3323",
"N&	c #4F2A23",
"O&	c #56577B",
"P&	c #693D17",
"Q&	c #946B3E",
"R&	c #AC7D4F",
"S&	c #542A0C",
"T&	c #3B0701",
"U&	c #331E63",
"V&	c #2E2376",
"W&	c #321557",
"X&	c #3E0D21",
"Y&	c #1D1C7D",
"Z&	c #2538AF",
"`&	c #32389C",
" *	c #3E195B",
".*	c #483E75",
"+*	c #3F1F65",
"@*	c #413278",
"#*	c #311F6F",
"$*	c #8F420D",
"%*	c #9F4C01",
"&*	c #681900",
"**	c #593409",
"=*	c #3A2D3A",
"-*	c #5B5C82",
";*	c #764821",
">*	c #A57746",
",*	c #855E35",
"'*	c #310000",
")*	c #36103C",
"!*	c #3B1350",
"~*	c #40134A",
"{*	c #381B74",
"]*	c #34247C",
"^*	c #34287D",
"/*	c #37216F",
"(*	c #381766",
"_*	c #341357",
":*	c #794739",
"<*	c #C27010",
"[*	c #C06708",
"}*	c #783002",
"|*	c #582F0E",
"1*	c #3C3A51",
"2*	c #5F5E82",
"3*	c #5E5F85",
"4*	c #845529",
"5*	c #A77B48",
"6*	c #633C18",
"7*	c #3B0203",
"8*	c #653211",
"9*	c #C67E23",
"0*	c #DE8B21",
"a*	c #C26B0B",
"b*	c #7A3202",
"c*	c #6B380B",
"d*	c #593F36",
"e*	c #524F6F",
"f*	c #7F4E29",
"g*	c #6F3D1C",
"h*	c #7A380D",
"i*	c #DB963F",
"j*	c #E9A03E",
"k*	c #B66710",
"l*	c #732F02",
"m*	c #7E4E10",
"n*	c #805217",
"o*	c #AF6E2D",
"p*	c #CA8332",
"q*	c #9E5006",
"r*	c #6A2302",
"s*	c #84510F",
"t*	c #651B00",
"u*	c #5C0E00",
"v*	c #530B02",
"                                                                                                    ",
"                                              . +                                                   ",
"                                          @ # $ % & *                                               ",
"                                        = - ; > , ' ) ! ~                                           ",
"                                        { ] ^ / ( _ : < [ }                                         ",
"                                        | 1 2 3 4 5 6 7 8 9                                         ",
"                                      0 a b > c d e f g h i j                                       ",
"                                k l m n o p q r s t u v w x y z                                     ",
"                                A B C D E F G H I J K L M N O P                                     ",
"                                Q R S T U V W X Y Z `  ...+.@.#.$.                                  ",
"                                %.&.*.=.-.;.>.,.'.).!.~.{.].^./.(._.:.                              ",
"                                <.[.}.|.1.2.3.4.      5.6.7.8.9.0.a.b.c.                            ",
"                                  d.e.f.g.h.i.j.k.l.m.n.o.p.q.r.s.t.u.v.                            ",
"                                  w.x.y.z.A.B.C.D.E.F.G.H.I.J.K.L.M.N.O.P.                          ",
"                                  Q.R.S.T.U.V.W.X.Y.Z.`. +.+++@+#+$+%+&+*+                          ",
"                                =+-+;+>+,+'+)+!+~+{+]+^+/+(+_+:+<+[+}+|+1+                          ",
"                                2+3+4+5+6+7+8+9+0+a+b+c+d+e+f+g+h+i+j+k+l+                          ",
"                                m+n+o+p+q+r+s+t+u+v+w+x+y+z+A+B+C+D+E+F+                            ",
"                                G+H+I+J+K+L+M+N+O+P+Q+R+S+T+U+V+W+X+Y+                              ",
"                                  Z+`+ @.@+@@@#@$@%@&@*@=@-@;@>@,@'@)@                              ",
"                                  !@~@{@]@^@/@(@_@:@<@[@}@|@1@2@3@4@                                ",
"                                    5@6@7@8@9@0@a@b@c@d@e@f@g@h@i@j@                                ",
"                                      k@l@m@n@o@p@q@r@s@t@u@v@w@x@y@                                ",
"                                        z@A@B@C@D@E@F@G@H@I@J@K@L@                                  ",
"                                        M@N@O@P@Q@R@S@T@U@V@W@X@Y@                                  ",
"                                        Z@`@ #.#+#@###$#%#&#*#=#-#;#                                ",
"                                      >#,#'#)#!#~#{#]#^#/#(#_#:#<#[#                                ",
"                                    }#|#1#2#3#4#5#6#7#8#9#0#a#b#c#d#e#                              ",
"                                    f#g#h#i#j#k#l#m#n#o#p#q#r#s#t#u#v#w#                            ",
"          x#    y#z#A#B#C#D#E#F#G#H#I#J#K#L#M#N#O#P#Q#R#S#T#U#V#W#X#Y#Z#                            ",
"          `#     $ $.$+$@$#$$$%$&$*$=$-$;$>$,$'$)$!$~${$]$^$/$($_$:$<$[$}$                          ",
"            |$1$      2$3$4$5$6$7$8$9$0$a$b$c$d$e$f$g$h$i$j$k$l$m$n$o$p$q$                          ",
"                        r$s$t$u$v$w$x$y$z$A$B$C$D$E$F$G$H$I$J$K$L$M$N$O$P$                          ",
"                        Q$R$S$T$U$V$W$X$Y$Z$`$ %.%+%@%#%$%K$K$K$K$%%&%*%=%-%;%>%  ,%                ",
"                        '%)%!%~%{%]%^%/%(%_%:%<%[%}%|%1%2%3%K$K$K$4%5%6%7%8%9%0%  a%                ",
"                        b%c%d%e%f%g%h%i%j%k%l%m%n%o%p%q%r%s%J$K$t%u%v%w%x%y%z%    A%                ",
"                          B%C%D%E%F%G%H%I%J%K%L%M%N%O%P%Q%R%S%T%U%V%W%X%6$Y%Z%    `%                ",
"                           &.&+&@&#&$&%&&&*&=&-&;&>&,&'&)&!&~&{&]&^&/&(&_&:&<&  [&}&                ",
"                            |&1&2&3&4&5&6&7&8&9&0&a&b&c&d&e&f&g&h&i&j&k&l&m&n&  o&                  ",
"                            p&q&r&s&t&u&v&w&x&y&z&A&B&C&D&E&F&G&H&I&J&K&L&M&N&  O&                  ",
"                              P&Q&R&S&T&U&V&W&    X&Y&Z&`& *.*+*@*#*$*%*&***=*  -*                  ",
"                                ;*>*,*'*)*!*        ~*{*]*^*/*(*_*:*<*[*}*|*1*2*3*                  ",
"                                  4*5*6*7*                      8*9*0*a*b*c*d*e*                    ",
"                                    f*g*                        h*i*j*k*l*m*n*                      ",
"                                                                  o*p*q*r*s*                        ",
"                                                                    t*u*v*                          ",
"                                                                                                    ",
"                                                                                                    ",
"                                                                                                    ",
"                                                                                                    "};
