/* XPM */
static char * mario8_xpm[] = {
"50 50 763 2",
"  	c #FF000000",
". 	c #A13736",
"+ 	c #A33B39",
"@ 	c #CC4A47",
"# 	c #F76C6C",
"$ 	c #FE6D6D",
"% 	c #FE5F5E",
"& 	c #FA6564",
"* 	c #E45959",
"= 	c #CC524D",
"- 	c #FFB6B3",
"; 	c #FFE6E5",
"> 	c #FFE4E4",
", 	c #FFB1B1",
"' 	c #FF6563",
") 	c #FF6868",
"! 	c #FD6463",
"~ 	c #C5403E",
"{ 	c #FAA09D",
"] 	c #EFB7B4",
"^ 	c #EDB9B6",
"/ 	c #EAB0AD",
"( 	c #FDF3F3",
"_ 	c #FF9796",
": 	c #FF605E",
"< 	c #FF6867",
"[ 	c #FF5D5B",
"} 	c #C02E2C",
"| 	c #FC8B88",
"1 	c #E3908B",
"2 	c #EDB1AE",
"3 	c #E38680",
"4 	c #F6DCDA",
"5 	c #FFAEAD",
"6 	c #FF5350",
"7 	c #FF605D",
"8 	c #FF5956",
"9 	c #FA4240",
"0 	c #DD6B6A",
"a 	c #F75D5B",
"b 	c #FBB4B2",
"c 	c #F4C4C2",
"d 	c #F4CDCC",
"e 	c #FA7675",
"f 	c #FF3D39",
"g 	c #FE4C4A",
"h 	c #FC4D4A",
"i 	c #FB3F3E",
"j 	c #D3181C",
"k 	c #E2B1AD",
"l 	c #DAAEAB",
"m 	c #CC9FA0",
"n 	c #A75C5E",
"o 	c #A33934",
"p 	c #DF534B",
"q 	c #FC6561",
"r 	c #FF8B8B",
"s 	c #F17E7E",
"t 	c #DE0000",
"u 	c #F0221F",
"v 	c #F63230",
"w 	c #F53534",
"x 	c #F02F2F",
"y 	c #D7131A",
"z 	c #EBC6BB",
"A 	c #D9C2AE",
"B 	c #C4A295",
"C 	c #8D615D",
"D 	c #7D6758",
"E 	c #753A26",
"F 	c #9D2117",
"G 	c #E23938",
"H 	c #FC4C4A",
"I 	c #EE4143",
"J 	c #C60A12",
"K 	c #CD0F15",
"L 	c #D8151A",
"M 	c #D8151B",
"N 	c #C90E16",
"O 	c #A0060F",
"P 	c #D4A492",
"Q 	c #B19D78",
"R 	c #B9A889",
"S 	c #836E5B",
"T 	c #A2896E",
"U 	c #876850",
"V 	c #423227",
"W 	c #520201",
"X 	c #9C0C10",
"Y 	c #DA282D",
"Z 	c #CC161E",
"` 	c #9F0610",
" .	c #B80912",
"..	c #C20B13",
"+.	c #BC0A13",
"@.	c #A10713",
"#.	c #70050E",
"$.	c #9D7361",
"%.	c #7B7354",
"&.	c #AFA68A",
"*.	c #A4967E",
"=.	c #987A5E",
"-.	c #8E5B44",
";.	c #773330",
">.	c #490208",
",.	c #000001",
"'.	c #470002",
").	c #91070A",
"!.	c #91060D",
"~.	c #920511",
"{.	c #A80712",
"].	c #AF0712",
"^.	c #A20715",
"/.	c #860614",
"(.	c #72030F",
"_.	c #62070D",
":.	c #886965",
"<.	c #5C4C42",
"[.	c #888377",
"}.	c #988E7E",
"|.	c #583E2B",
"1.	c #583629",
"2.	c #2C0303",
"3.	c #140002",
"4.	c #000000",
"5.	c #530706",
"6.	c #6D080D",
"7.	c #870613",
"8.	c #990714",
"9.	c #9B0715",
"0.	c #8C0714",
"a.	c #790612",
"b.	c #6B040E",
"c.	c #59080C",
"d.	c #110A0B",
"e.	c #494848",
"f.	c #54534F",
"g.	c #714B42",
"h.	c #520B05",
"i.	c #590A05",
"j.	c #76170A",
"k.	c #921E08",
"l.	c #B84932",
"m.	c #AD422A",
"n.	c #57070F",
"o.	c #3B090B",
"p.	c #64080C",
"q.	c #79020E",
"r.	c #7B0005",
"s.	c #760007",
"t.	c #71000C",
"u.	c #6D0510",
"v.	c #5E020A",
"w.	c #090204",
"x.	c #534344",
"y.	c #4A4A4C",
"z.	c #8A5253",
"A.	c #AE3C24",
"B.	c #BF4835",
"C.	c #CB5D49",
"D.	c #EA927E",
"E.	c #DD8471",
"F.	c #75364D",
"G.	c #080135",
"H.	c #6E1B1B",
"I.	c #86190B",
"J.	c #6E221D",
"K.	c #B15F55",
"L.	c #B26156",
"M.	c #7A3333",
"N.	c #60010A",
"O.	c #62030D",
"P.	c #570F12",
"Q.	c #493836",
"R.	c #48292A",
"S.	c #6A4A47",
"T.	c #5F3930",
"U.	c #5F2618",
"V.	c #A95140",
"W.	c #CE6F5E",
"X.	c #C58776",
"Y.	c #6A2A2F",
"Z.	c #00001A",
"`.	c #541828",
" +	c #A63B25",
".+	c #BC320C",
"++	c #C96B5C",
"@+	c #CC7562",
"#+	c #BE644A",
"$+	c #BC573E",
"%+	c #650E11",
"&+	c #5A020A",
"*+	c #EDDAC4",
"=+	c #AD6153",
"-+	c #7A6264",
";+	c #AA9B97",
">+	c #E11C1A",
",+	c #905644",
"'+	c #9C7863",
")+	c #C98D84",
"!+	c #A13D3E",
"~+	c #E41115",
"{+	c #83606A",
"]+	c #BAB0B3",
"^+	c #A65348",
"/+	c #D54517",
"(+	c #CB5A40",
"_+	c #944F2E",
":+	c #B14B18",
"<+	c #CA5D34",
"[+	c #903A24",
"}+	c #4A0206",
"|+	c #F1DBB9",
"1+	c #D5966D",
"2+	c #C77763",
"3+	c #A0695D",
"4+	c #CD9B8A",
"5+	c #EDD5C1",
"6+	c #FFEADF",
"7+	c #FEDED6",
"8+	c #CA8176",
"9+	c #975557",
"0+	c #A57F83",
"a+	c #B9756E",
"b+	c #CD644D",
"c+	c #D15F4D",
"d+	c #B55636",
"e+	c #8B3F10",
"f+	c #A94416",
"g+	c #CC5C35",
"h+	c #924320",
"i+	c #D7B98D",
"j+	c #D29D6D",
"k+	c #E3B999",
"l+	c #F9CCBE",
"m+	c #FFEEE6",
"n+	c #FEF5F0",
"o+	c #FEECE8",
"p+	c #F2D3C8",
"q+	c #FCC7B7",
"r+	c #E8A89B",
"s+	c #DD9486",
"t+	c #ECAB9D",
"u+	c #E8A293",
"v+	c #D47466",
"w+	c #B05636",
"x+	c #A44515",
"y+	c #C75729",
"z+	c #D36439",
"A+	c #C58E66",
"B+	c #EFD8BE",
"C+	c #FFDDCB",
"D+	c #FFCDB9",
"E+	c #FFD0C3",
"F+	c #F8B3A2",
"G+	c #C77F6C",
"H+	c #E5AFA6",
"I+	c #E9B6AF",
"J+	c #E8B1AA",
"K+	c #E5B5AE",
"L+	c #CF9897",
"M+	c #C35F5C",
"N+	c #C65432",
"O+	c #B65930",
"P+	c #D76539",
"Q+	c #C75F32",
"R+	c #9D8677",
"S+	c #BAAAA1",
"T+	c #E6D2B9",
"U+	c #E9C9AD",
"V+	c #E2BBA8",
"W+	c #A9675D",
"X+	c #59356F",
"Y+	c #493073",
"Z+	c #472B6F",
"`+	c #482D72",
" @	c #472C73",
".@	c #35186A",
"+@	c #9F4343",
"@@	c #CA5A27",
"#@	c #CB5D33",
"$@	c #C75E2E",
"%@	c #8D4510",
"&@	c #5B5654",
"*@	c #6A656B",
"=@	c #8F8A84",
"-@	c #7C7972",
";@	c #34345B",
">@	c #202568",
",@	c #020F5B",
"'@	c #020E52",
")@	c #3A3376",
"!@	c #3E3273",
"~@	c #4E1B40",
"{@	c #A2511F",
"]@	c #754012",
"^@	c #844511",
"/@	c #783E0C",
"(@	c #4D0E01",
"_@	c #48352C",
":@	c #967060",
"<@	c #993411",
"[@	c #BB4924",
"}@	c #C76146",
"|@	c #C86247",
"1@	c #933E32",
"2@	c #5D1534",
"3@	c #541325",
"4@	c #6A352A",
"5@	c #69363D",
"6@	c #3E1015",
"7@	c #401106",
"8@	c #500F02",
"9@	c #D7996E",
"0@	c #E78951",
"a@	c #FAB27E",
"b@	c #FED9BB",
"c@	c #FEC9B1",
"d@	c #E97E63",
"e@	c #C44938",
"f@	c #711760",
"g@	c #970F3C",
"h@	c #B50715",
"i@	c #AF0C15",
"j@	c #800610",
"k@	c #520707",
"l@	c #CDB09F",
"m@	c #EABA8A",
"n@	c #EA9F67",
"o@	c #EBB391",
"p@	c #E39D86",
"q@	c #CF7373",
"r@	c #8C5398",
"s@	c #B21E68",
"t@	c #D51216",
"u@	c #CE1D37",
"v@	c #B81739",
"w@	c #C0121C",
"x@	c #830610",
"y@	c #D6D5C1",
"z@	c #E37E64",
"A@	c #EC5624",
"B@	c #B06581",
"C@	c #8181C2",
"D@	c #5E88D7",
"E@	c #7C62AE",
"F@	c #F1382D",
"G@	c #D33753",
"H@	c #D42749",
"I@	c #CF1221",
"J@	c #D21018",
"K@	c #B60D16",
"L@	c #6F060D",
"M@	c #D63100",
"N@	c #D1D7C8",
"O@	c #CC847D",
"P@	c #FE5605",
"Q@	c #ED6165",
"R@	c #7391D4",
"S@	c #639CDF",
"T@	c #4790E7",
"U@	c #C05984",
"V@	c #F26C5D",
"W@	c #E4A7A9",
"X@	c #EC959A",
"Y@	c #EB4847",
"Z@	c #F84747",
"`@	c #F03234",
" #	c #AC0A15",
".#	c #E2D893",
"+#	c #8C9988",
"@#	c #AC7C90",
"##	c #D47384",
"$#	c #A885A9",
"%#	c #CDD57B",
"&#	c #EAE446",
"*#	c #7E9EB2",
"=#	c #AF428A",
"-#	c #DD210E",
";#	c #A03D3B",
">#	c #E1ACAF",
",#	c #F09EA3",
"'#	c #FD6566",
")#	c #FF5555",
"!#	c #CF242C",
"~#	c #770B13",
"{#	c #7B7A79",
"]#	c #514E5E",
"^#	c #586183",
"/#	c #5289D8",
"(#	c #7E9DBA",
"_#	c #EEE43B",
":#	c #F0E841",
"<#	c #929974",
"[#	c #3458CB",
"}#	c #7950A1",
"|#	c #702055",
"1#	c #A35C5F",
"2#	c #EEC4C6",
"3#	c #FE8C8C",
"4#	c #FF6161",
"5#	c #E03235",
"6#	c #87050E",
"7#	c #606886",
"8#	c #666887",
"9#	c #777FA5",
"0#	c #6D75A1",
"a#	c #6B739D",
"b#	c #7B7F95",
"c#	c #7E849F",
"d#	c #7782AB",
"e#	c #5070CB",
"f#	c #1C60D3",
"g#	c #183CA6",
"h#	c #522F6D",
"i#	c #E1AEAE",
"j#	c #FE9495",
"k#	c #FE6E6E",
"l#	c #E32426",
"m#	c #920708",
"n#	c #644647",
"o#	c #ECC8B2",
"p#	c #C2CFD8",
"q#	c #8999C6",
"r#	c #8897C4",
"s#	c #8696C3",
"t#	c #8494C0",
"u#	c #8191BD",
"v#	c #8394C1",
"w#	c #8797C5",
"x#	c #8A99C8",
"y#	c #8B98C8",
"z#	c #8A98C7",
"A#	c #808CBA",
"B#	c #4C4C6B",
"C#	c #414163",
"D#	c #575271",
"E#	c #4B4B67",
"F#	c #42405B",
"G#	c #43425D",
"H#	c #525375",
"I#	c #64678F",
"J#	c #767FA9",
"K#	c #737FB0",
"L#	c #3353C3",
"M#	c #142F9F",
"N#	c #554C7D",
"O#	c #D1979C",
"P#	c #FA9292",
"Q#	c #FF6565",
"R#	c #E14144",
"S#	c #900000",
"T#	c #5A3A3B",
"U#	c #B0B1B6",
"V#	c #443F5C",
"W#	c #423D5A",
"X#	c #4D394A",
"Y#	c #583A46",
"Z#	c #5B3F49",
"`#	c #5B414B",
" $	c #47394F",
".$	c #3B3958",
"+$	c #423B59",
"@$	c #423C58",
"#$	c #4C506E",
"$$	c #484E77",
"%$	c #4A4766",
"&$	c #4E526B",
"*$	c #4A4A61",
"=$	c #443B55",
"-$	c #48435E",
";$	c #545173",
">$	c #5C5B80",
",$	c #676B89",
"'$	c #68486B",
")$	c #4B3988",
"!$	c #473B7D",
"~$	c #B9959A",
"{$	c #EEC5C5",
"]$	c #F7E0E0",
"^$	c #EFD5D5",
"/$	c #C1A2A4",
"($	c #74595A",
"_$	c #34374C",
":$	c #252039",
"<$	c #593C3D",
"[$	c #774639",
"}$	c #7A4733",
"|$	c #754B3E",
"1$	c #6C4131",
"2$	c #683F35",
"3$	c #391F2E",
"4$	c #2D283C",
"5$	c #525772",
"6$	c #4C5684",
"7$	c #3E3A57",
"8$	c #4F5370",
"9$	c #505370",
"0$	c #453F59",
"a$	c #45405A",
"b$	c #46405D",
"c$	c #554B6A",
"d$	c #4F4862",
"e$	c #653B29",
"f$	c #72464A",
"g$	c #4C4581",
"h$	c #BDC0C1",
"i$	c #D6DFDE",
"j$	c #D8DBDB",
"k$	c #DBDCDC",
"l$	c #D4D2D2",
"m$	c #897778",
"n$	c #6F5151",
"o$	c #653828",
"p$	c #66382C",
"q$	c #633832",
"r$	c #673C30",
"s$	c #794A37",
"t$	c #555974",
"u$	c #596891",
"v$	c #494762",
"w$	c #45425D",
"x$	c #42405A",
"y$	c #4A4361",
"z$	c #4C4763",
"A$	c #4A3E62",
"B$	c #605570",
"C$	c #706677",
"D$	c #7F5E6E",
"E$	c #6F5791",
"F$	c #A4A3B9",
"G$	c #DDDEDD",
"H$	c #F4F3F2",
"I$	c #FDFDFD",
"J$	c #F3F4F4",
"K$	c #D2D4D3",
"L$	c #7A6E6E",
"M$	c #704C49",
"N$	c #633827",
"O$	c #673C31",
"P$	c #673B2F",
"Q$	c #603628",
"R$	c #744535",
"S$	c #543534",
"T$	c #697CA2",
"U$	c #4B4F68",
"V$	c #4C425D",
"W$	c #4D435E",
"X$	c #4C4460",
"Y$	c #48375E",
"Z$	c #4D415C",
"`$	c #534963",
" %	c #4A3E52",
".%	c #371765",
"+%	c #7472A2",
"@%	c #D6D5DE",
"#%	c #FFFFFF",
"$%	c #DDD1CF",
"%%	c #EDECEC",
"&%	c #9B9090",
"*%	c #571C11",
"=%	c #4F2712",
"-%	c #726D92",
";%	c #302A5F",
">%	c #353363",
",%	c #343165",
"'%	c #2A2454",
")%	c #4B4C59",
"!%	c #464555",
"~%	c #403E51",
"{%	c #100871",
"]%	c #BEBDCE",
"^%	c #F2F2F3",
"/%	c #FEFEFE",
"(%	c #F1EDED",
"_%	c #FBFCFC",
":%	c #B7AEAE",
"<%	c #561E1E",
"[%	c #3D2127",
"}%	c #4A3B56",
"|%	c #1D1660",
"1%	c #1C1756",
"2%	c #363567",
"3%	c #5F6773",
"4%	c #616974",
"5%	c #51546F",
"6%	c #3D397F",
"7%	c #BCBCC3",
"8%	c #C4C4C3",
"9%	c #EEEEEE",
"0%	c #F5F2F2",
"a%	c #F6F7F7",
"b%	c #B4ACAC",
"c%	c #653D3B",
"d%	c #3B1619",
"e%	c #4A415C",
"f%	c #281DA0",
"g%	c #1E1381",
"h%	c #292A66",
"i%	c #5B607B",
"j%	c #5E6682",
"k%	c #545B8E",
"l%	c #414A9A",
"m%	c #848488",
"n%	c #898984",
"o%	c #CACACA",
"p%	c #E6E6E6",
"q%	c #E4E2E2",
"r%	c #E5E5E5",
"s%	c #D6D6D6",
"t%	c #A19898",
"u%	c #602F28",
"v%	c #4D4765",
"w%	c #2925BC",
"x%	c #2013A2",
"y%	c #1B1372",
"z%	c #23254F",
"A%	c #3C4EA4",
"B%	c #4468D4",
"C%	c #235DE0",
"D%	c #363987",
"E%	c #9797A0",
"F%	c #B6B6B7",
"G%	c #AEAEAE",
"H%	c #B4B2B2",
"I%	c #B8B9B9",
"J%	c #A6A4A4",
"K%	c #827272",
"L%	c #5C241A",
"M%	c #4B4765",
"N%	c #4E4C6D",
"O%	c #9C86A5",
"P%	c #292FC5",
"Q%	c #2317AF",
"R%	c #241982",
"S%	c #0B083F",
"T%	c #122586",
"U%	c #2053D4",
"V%	c #1E5DE6",
"W%	c #1428A6",
"X%	c #A3A3B3",
"Y%	c #AEAEAC",
"Z%	c #ADADAC",
"`%	c #9C9596",
" &	c #999999",
".&	c #837A7A",
"+&	c #6A4B4A",
"@&	c #512A2E",
"#&	c #4E4C6C",
"$&	c #B08A7E",
"%&	c #76537D",
"&&	c #2233B0",
"*&	c #2A21AB",
"=&	c #1A1A81",
"-&	c #020446",
";&	c #382E75",
">&	c #2555BA",
",&	c #006BE5",
"'&	c #184EBF",
")&	c #7B7A9C",
"!&	c #7A787E",
"~&	c #9B9A9A",
"{&	c #7B7170",
"]&	c #736667",
"^&	c #56577B",
"/&	c #D9C2AC",
"(&	c #D7B083",
"_&	c #B5773C",
":&	c #853E0B",
"<&	c #562A45",
"[&	c #362174",
"}&	c #704967",
"|&	c #B4753B",
"1&	c #C78E4E",
"2&	c #C0865B",
"3&	c #926678",
"4&	c #545EA9",
"5&	c #1749B8",
"6&	c #321170",
"7&	c #4F333D",
"8&	c #513F5C",
"9&	c #3A2D3A",
"0&	c #5B5C82",
"a&	c #D8B587",
"b&	c #CF9A60",
"c&	c #A04F0F",
"d&	c #883801",
"e&	c #6F2802",
"f&	c #642803",
"g&	c #B5610B",
"h&	c #E1973F",
"i&	c #E9B463",
"j&	c #E7A447",
"k&	c #DB8003",
"l&	c #BF5F02",
"m&	c #814E6F",
"n&	c #3A47A9",
"o&	c #1D34A4",
"p&	c #2B2387",
"q&	c #3C3A51",
"r&	c #5F5E82",
"s&	c #5E5F85",
"t&	c #CBAE84",
"u&	c #CBA572",
"v&	c #944C18",
"w&	c #712100",
"x&	c #641900",
"y&	c #591100",
"z&	c #662201",
"A&	c #A74D02",
"B&	c #CE7718",
"C&	c #DE8F34",
"D&	c #DB8623",
"E&	c #D47A14",
"F&	c #CC6B06",
"G&	c #B25001",
"H&	c #85390D",
"I&	c #5C2D5A",
"J&	c #511D57",
"K&	c #524F6F",
"L&	c #BEA172",
"M&	c #AF9161",
"N&	c #643109",
"O&	c #562308",
"P&	c #54260A",
"Q&	c #593310",
"R&	c #663913",
"S&	c #812E00",
"T&	c #9C4101",
"U&	c #B05102",
"V&	c #B35603",
"W&	c #AB4F02",
"X&	c #9E4502",
"Y&	c #883501",
"Z&	c #6C1700",
"`&	c #590100",
" *	c #5B0400",
".*	c #A4774C",
"+*	c #956139",
"@*	c #9A673D",
"#*	c #9E6C41",
"$*	c #98653C",
"%*	c #925E35",
"&*	c #956321",
"**	c #75410C",
"=*	c #733204",
"-*	c #712D05",
";*	c #713305",
">*	c #6F3808",
",*	c #6C3C0B",
"'*	c #7A5015",
")*	c #946D27",
"!*	c #90621F",
"~*	c #976828",
"{*	c #A3732C",
"]*	c #9C6B26",
"^*	c #9E6F28",
"/*	c #A3742D",
"(*	c #A6762F",
"_*	c #A2722C",
":*	c #A4752F",
"<*	c #A1742F",
"[*	c #815228",
"                                                                                                    ",
"                                                                                                    ",
"                                                  . +                                               ",
"                                              @ # $ % & *                                           ",
"                                            = - ; > , ' ) ! ~                                       ",
"                                            { ] ^ / ( _ : < [ }                                     ",
"                                            | 1 2 3 4 5 6 7 8 9                                     ",
"                                          0 a b > c d e f g h i j                                   ",
"                                    k l m n o p q r s t u v w x y                                   ",
"                                    z A B C D E F G H I J K L M N O                                 ",
"                                    P Q R S T U V W X Y Z `  ...+.@.#.                              ",
"                                    $.%.&.*.=.-.;.>.,.'.).!.~.{.].^./.(._.                          ",
"                                    :.<.[.}.|.1.2.3.4.4.4.5.6.7.8.9.0.a.b.c.                        ",
"                                      d.e.f.g.h.i.j.k.l.m.n.o.p.q.r.s.t.u.v.                        ",
"                                      w.x.y.z.A.B.C.D.E.F.G.H.I.J.K.L.M.N.O.P.                      ",
"                                      Q.R.S.T.U.V.W.X.Y.Z.`. +.+++@+#+$+%+&+                        ",
"                                    *+=+-+;+>+,+'+)+!+~+{+]+^+/+(+_+:+<+[+}+                        ",
"                                    |+1+2+3+4+5+6+7+8+9+0+a+b+c+d+e+f+g+h+                          ",
"                                    i+j+k+l+m+n+o+p+q+r+s+t+u+v+w+x+y+z+                            ",
"                                      A+B+C+D+E+F+G+H+I+J+K+L+M+N+O+P+Q+                            ",
"                                      R+S+T+U+V+W+X+Y+Z+`+ @.@+@@@#@$@%@                            ",
"                                        &@*@=@-@;@>@,@'@)@!@~@{@]@^@/@(@                            ",
"                                          _@:@<@[@}@|@1@2@3@4@5@6@7@8@                              ",
"                                            9@0@a@b@c@d@e@f@g@h@i@j@k@                              ",
"                                            l@m@n@o@p@q@r@s@t@u@v@w@x@                              ",
"                                            y@z@A@B@C@D@E@F@G@H@I@J@K@L@                            ",
"        M@                                N@O@P@Q@R@S@T@U@V@W@X@Y@Z@`@ #                            ",
"                                        .#+#@###$#%#&#*#=#-#;#>#,#'#)#!#~#                          ",
"                                        {#]#^#/#(#_#:#<#[#}#|#1#2#3#4#5#6#                          ",
"                                        7#8#9#0#a#b#c#d#e#f#g#h#i#j#k#l#m#n#                        ",
"        o#p#    q#r#s#t#u#v#w#x#y#z#A#B#C#D#E#F#G#H#I#J#K#L#M#N#O#P#Q#R#S#T#                        ",
"          U#    V#V#W#X#Y#Z#`# $.$+$@$#$$$%$&$*$=$-$;$>$,$'$)$!$~${$]$^$/$($                        ",
"            _$:$      <$[$}$|$1$2$3$4$5$6$7$8$9$0$a$b$c$d$e$f$g$h$i$j$k$l$m$n$                      ",
"                        o$p$q$r$s$    t$u$v$w$x$y$z$A$B$C$D$E$F$G$H$I$J$K$L$M$                      ",
"                        N$O$P$Q$R$S$    T$U$V$W$X$Y$Z$`$ %.%+%@%#%#%$%#%%%&%*%=%  -%                ",
"                                            ;%>%,%'%)%!%~%{%]%^%/%#%(%#%_%:%<%[%  }%                ",
"                                              |%1%2%3%4%5%6%7%8%9%/%0%#%a%b%c%d%  e%                ",
"                                              f%g%h%i%j%k%l%m%n%o%p%q%r%s%t%u%    v%                ",
"                                              w%x%y%z%A%B%C%D%E%F%G%H%I%J%K%L%  M%N%                ",
"                                            O%P%Q%R%S%T%U%V%W%X%Y%Z%`% &.&+&@&  #&                  ",
"                                          $&%&&&*&=&-&;&>&,&'&)&!&~&{&]&        ^&                  ",
"                                      /&(&_&:&<&[&}&|&1&2&3&4&5&6&7&8&      9&  0&                  ",
"                                      a&b&c&d&e&f&g&h&i&j&k&l&m&n&o&p&      q&r&s&                  ",
"                                    t&u&v&w&x&y&z&A&B&C&D&E&F&G&H&I&J&        K&                    ",
"                                    L&M&N&O&P&Q&R&S&T&U&V&W&X&Y&Z&`& *                              ",
"                                      .*+*@*#*$*%*&***=*-*;*>*,*'*)*!*                              ",
"                                                  ~*{*]*^*/*(*_*:*<*[*                              ",
"                                                                                                    ",
"                                                                                                    ",
"                                                                                                    "};
