/* XPM */
static char * treasure2_xpm[] = {
"50 50 5 1",
" 	c #FF000000",
".	c #FFFFFF",
"+	c #FFAE4C",
"@	c #B66504",
"#	c #E3E45D",
"                                                  ",
"                                                  ",
"                                                  ",
"                                                  ",
"                                                  ",
"                                                  ",
"                                                  ",
"                                                  ",
"                                                  ",
"                                                  ",
"                                                  ",
"               ..............  ++++               ",
"               ..............  ++++               ",
"             ..++++++++++++  ++@@@@++             ",
"             ..++++++++++++  ++@@@@++             ",
"                               @@@@@@             ",
"                               @@@@@@             ",
"               ##############    @@@@@@           ",
"               ##############    @@@@@@           ",
"                 ##############    @@@@           ",
"                 ##############    @@@@           ",
"                      ###########    @@           ",
"               ...... ###########    @@           ",
"               ..  .. #############               ",
"               .    . #############               ",
"               .    .                             ",
"               ..  ..                             ",
"           ++@ ..  .. @@@  ++++++++++++           ",
"           ++@ ..  .. @@@  ++++++++++++           ",
"           ..+ ...... @++  ++@@@@@@@@@@           ",
"           ..+        @++  ++@@@@@@@@@@           ",
"           ..++@@@@@@@@++  ++@@@@@@@@@@           ",
"           ..++++++++++++  ++@@@@@@@@@@           ",
"           ..++++++++++++  ++@@@@@@@@@@           ",
"           ..++++++++++++  ++@@@@@@@@@@           ",
"           ..++++++++++++  ++@@@@@@@@@@           ",
"           ..++++++++++++  ++@@@@@@@@@@           ",
"           ..++++++++++++  ++@@@@@@@@@@           ",
"           ..++++++++++++  ++@@@@@@@@@@           ",
"                                                  ",
"                                                  ",
"                                                  ",
"                                                  ",
"                                                  ",
"                                                  ",
"                                                  ",
"                                                  ",
"                                                  ",
"                                                  ",
"                                                  "};
