/* XPM */
static char * treasure_xpm[] = {
"50 50 5 1",
" 	c #FF000000",
".	c #000000",
"+	c #FFFFFF",
"@	c #FFAE4C",
"#	c #B66504",
"                                                  ",
"                                                  ",
"                                                  ",
"                                                  ",
"                                                  ",
"                                                  ",
"                                                  ",
"                                                  ",
"               ....................               ",
"               ....................               ",
"             ..++++++++++++++..@@@@..             ",
"             ..++++++++++++++..@@@@..             ",
"           ..++@@@@@@@@@@@@..@@######..           ",
"           ..++@@@@@@@@@@@@..@@######..           ",
"           ..++@@@@@@@@@@@@..@@######..           ",
"           ..++@@@@@@@@@@@@..@@######..           ",
"         ..++@@@@@@@@@@@@..@@##########..         ",
"         ..++@@@@@@@@@@@@..@@##########..         ",
"         ..++@@@@@@@@@@@@..@@##########..         ",
"         ..++@@@@@@@@@@@@..@@##########..         ",
"         ..++@........@@@..@@##########..         ",
"         ..++@.++++++.@@@..@@##########..         ",
"         ..++@.++..++.@@@..@@##########..         ",
"         ..++@.+....+.@@@..@@##########..         ",
"         ......+....+....................         ",
"         ......++..++....................         ",
"         ..@@#.++..++.###..@@@@@@@@@@@@..         ",
"         ..@@#.++..++.###..@@@@@@@@@@@@..         ",
"         ..++@.++++++.#@@..@@##########..         ",
"         ..++@........#@@..@@##########..         ",
"         ..++@@########@@..@@##########..         ",
"         ..++@@@@@@@@@@@@..@@##########..         ",
"         ..++@@@@@@@@@@@@..@@##########..         ",
"         ..++@@@@@@@@@@@@..@@##########..         ",
"         ..++@@@@@@@@@@@@..@@##########..         ",
"         ..++@@@@@@@@@@@@..@@##########..         ",
"         ..++@@@@@@@@@@@@..@@##########..         ",
"         ..++@@@@@@@@@@@@..@@##########..         ",
"         ................................         ",
"         ................................         ",
"         ................................         ",
"                                                  ",
"                                                  ",
"                                                  ",
"                                                  ",
"                                                  ",
"                                                  ",
"                                                  ",
"                                                  ",
"                                                  "};
